<svg width="37" height="30" viewBox="0 0 37 30" fill="none" xmlns="http://www.w3.org/2000/svg">
<path d="M0.5 15C0.5 14.5374 0.684967 14.0929 1.01563 13.7646C1.34641 13.4363 1.79626 13.251 2.26563 13.251L30.1211 13.251L29.1377 12.3779L19.21 3.55957L19.207 3.55762C19.033 3.40487 18.8915 3.21954 18.79 3.0127C18.6886 2.80562 18.6288 2.58018 18.6152 2.35059C18.6017 2.12108 18.6346 1.89105 18.7109 1.67383C18.7873 1.45659 18.9057 1.25585 19.0605 1.08398C19.2154 0.912116 19.4033 0.771791 19.6133 0.671875C19.8233 0.57195 20.0523 0.515134 20.2852 0.50293C20.5178 0.490791 20.7503 0.524225 20.9697 0.601562C21.1892 0.678962 21.3911 0.79838 21.5635 0.953125L21.5664 0.955078L35.9131 13.6982C36.0979 13.8624 36.2457 14.063 36.3467 14.2871C36.4477 14.5114 36.5 14.7545 36.5 15C36.5 15.2455 36.4477 15.4886 36.3467 15.7129C36.2457 15.937 36.0979 16.1376 35.9131 16.3018L21.5664 29.0449L21.5635 29.0469C21.3911 29.2016 21.1892 29.321 20.9697 29.3984C20.7503 29.4758 20.5178 29.5092 20.2852 29.4971C20.0523 29.4849 19.8233 29.428 19.6133 29.3281C19.4033 29.2282 19.2154 29.0879 19.0605 28.916C18.9057 28.7441 18.7873 28.5434 18.7109 28.3262C18.6346 28.1089 18.6017 27.8789 18.6152 27.6494C18.6288 27.4198 18.6886 27.1944 18.79 26.9873C18.8662 26.832 18.9648 26.6888 19.083 26.5625L19.207 26.4424L19.21 26.4404L29.1377 17.6221L30.1211 16.749H2.26563C2.03341 16.749 1.80323 16.7033 1.58887 16.6152C1.37443 16.5271 1.17938 16.3979 1.01563 16.2354C0.851874 16.0728 0.722209 15.8799 0.633789 15.668C0.545387 15.4561 0.5 15.2291 0.5 15Z" fill="#ECF1F4" stroke="#D9D9D9"/>
</svg>
