<svg width="603" height="82" viewBox="0 0 603 82" fill="none" xmlns="http://www.w3.org/2000/svg">
<g clip-path="url(#clip0_1712_527)" filter="url(#filter0_d_1712_527)">
<path d="M591.562 0H11.4375C7.32988 0 4 3.31309 4 7.4V66.6C4 70.6869 7.32988 74 11.4375 74H591.562C595.67 74 599 70.6869 599 66.6V7.4C599 3.31309 595.67 0 591.562 0Z" fill="white"/>
<path d="M567.762 24.4199H485.949C477.734 24.4199 471.074 31.0461 471.074 39.2199C471.074 47.3937 477.734 54.0199 485.949 54.0199H567.762C575.977 54.0199 582.637 47.3937 582.637 39.2199C582.637 31.0461 575.977 24.4199 567.762 24.4199Z" fill="#1E2B41"/>
<path d="M503.181 38.816C503.181 39.8724 502.979 40.7711 502.577 41.5122C502.178 42.2532 501.632 42.8192 500.941 43.2103C500.253 43.5982 499.48 43.7921 498.622 43.7921C497.756 43.7921 496.979 43.5966 496.292 43.2056C495.604 42.8146 495.061 42.2485 494.661 41.5074C494.262 40.7664 494.062 39.8692 494.062 38.816C494.062 37.7596 494.262 36.8609 494.661 36.1199C495.061 35.3788 495.604 34.8144 496.292 34.4265C496.979 34.0354 497.756 33.8399 498.622 33.8399C499.48 33.8399 500.253 34.0354 500.941 34.4265C501.632 34.8144 502.178 35.3788 502.577 36.1199C502.979 36.8609 503.181 37.7596 503.181 38.816ZM501.094 38.816C501.094 38.1317 500.991 37.5547 500.784 37.0848C500.581 36.6149 500.295 36.2586 499.924 36.0158C499.553 35.773 499.119 35.6516 498.622 35.6516C498.124 35.6516 497.69 35.773 497.319 36.0158C496.948 36.2586 496.66 36.6149 496.454 37.0848C496.251 37.5547 496.149 38.1317 496.149 38.816C496.149 39.5003 496.251 40.0774 496.454 40.5472C496.66 41.0171 496.948 41.3734 497.319 41.6162C497.69 41.8591 498.124 41.9804 498.622 41.9804C499.119 41.9804 499.553 41.8591 499.924 41.6162C500.295 41.3734 500.581 41.0171 500.784 40.5472C500.991 40.0774 501.094 39.5003 501.094 38.816ZM506.502 41.5689L506.507 39.1519H506.802L509.141 36.3942H511.465L508.323 40.0459H507.843L506.502 41.5689ZM504.668 43.6597V33.9724H506.693V43.6597H504.668ZM509.231 43.6597L507.083 40.4952L508.432 39.0714L511.604 43.6597H509.231ZM514.661 42.3352L514.608 42.8556C514.567 43.2718 514.488 43.6864 514.371 44.0996C514.256 44.5158 514.136 44.8926 514.009 45.2301C513.886 45.5674 513.786 45.8324 513.709 46.0247H512.397C512.445 45.8387 512.51 45.5785 512.592 45.2442C512.675 44.9131 512.752 44.5411 512.825 44.1279C512.898 43.7149 512.944 43.2939 512.963 42.865L512.987 42.3352H514.661ZM521.25 33.9724V43.6597H519.191V33.9724H521.25ZM529.294 46.5356C528.637 46.5356 528.075 46.4457 527.606 46.2659C527.14 46.0894 526.769 45.8481 526.494 45.5422C526.218 45.2364 526.039 44.8926 525.956 44.5111L527.829 44.2604C527.886 44.4054 527.977 44.5411 528.1 44.6672C528.224 44.7933 528.387 44.8942 528.59 44.9699C528.796 45.0487 529.046 45.0882 529.341 45.0882C529.782 45.0882 530.145 44.9809 530.43 44.7665C530.718 44.5552 530.863 44.2004 530.863 43.7022V42.3731H530.777C530.688 42.5749 530.555 42.7657 530.378 42.9454C530.2 43.1252 529.971 43.2718 529.693 43.3853C529.414 43.4989 529.081 43.5556 528.694 43.5556C528.146 43.5556 527.647 43.4294 527.197 43.1772C526.75 42.9217 526.393 42.5323 526.127 42.0089C525.865 41.4822 525.733 40.8169 525.733 40.0127C525.733 39.1897 525.867 38.5022 526.137 37.9504C526.406 37.3986 526.764 36.9854 527.211 36.7111C527.661 36.4367 528.155 36.2996 528.69 36.2996C529.098 36.2996 529.441 36.369 529.716 36.5077C529.992 36.6433 530.214 36.8136 530.382 37.0186C530.553 37.2204 530.685 37.4191 530.777 37.6146H530.853V36.3942H532.864V43.7306C532.864 44.3487 532.711 44.8659 532.407 45.2821C532.103 45.6984 531.681 46.0105 531.143 46.2186C530.607 46.4299 529.991 46.5356 529.294 46.5356ZM529.336 42.0419C529.663 42.0419 529.939 41.9616 530.163 41.8007C530.392 41.6367 530.566 41.4034 530.686 41.1007C530.81 40.7948 530.872 40.429 530.872 40.0032C530.872 39.5776 530.812 39.2086 530.691 38.8964C530.571 38.5811 530.396 38.3367 530.169 38.1632C529.94 37.9898 529.663 37.9031 529.336 37.9031C529.004 37.9031 528.723 37.993 528.495 38.1727C528.267 38.3493 528.094 38.5952 527.977 38.9106C527.859 39.2259 527.8 39.5902 527.8 40.0032C527.8 40.4227 527.859 40.7853 527.977 41.0912C528.097 41.3939 528.27 41.6289 528.495 41.796C528.723 41.9599 529.004 42.0419 529.336 42.0419ZM537.775 43.8016C537.036 43.8016 536.397 43.6454 535.859 43.3332C535.323 43.0179 534.91 42.5796 534.618 42.0183C534.327 41.4539 534.181 40.7995 534.181 40.0553C534.181 39.3048 534.327 38.6489 534.618 38.0876C534.91 37.5231 535.323 37.0848 535.859 36.7726C536.397 36.4572 537.036 36.2996 537.775 36.2996C538.513 36.2996 539.15 36.4572 539.686 36.7726C540.225 37.0848 540.64 37.5231 540.931 38.0876C541.223 38.6489 541.369 39.3048 541.369 40.0553C541.369 40.7995 541.223 41.4539 540.931 42.0183C540.64 42.5796 540.225 43.0179 539.686 43.3332C539.15 43.6454 538.513 43.8016 537.775 43.8016ZM537.785 42.2406C538.12 42.2406 538.401 42.146 538.626 41.9568C538.851 41.7644 539.021 41.5027 539.134 41.1716C539.252 40.8405 539.311 40.4637 539.311 40.0411C539.311 39.6186 539.252 39.2417 539.134 38.9106C539.021 38.5795 538.851 38.3177 538.626 38.1254C538.401 37.9331 538.12 37.8369 537.785 37.8369C537.445 37.8369 537.16 37.9331 536.929 38.1254C536.7 38.3177 536.528 38.5795 536.41 38.9106C536.296 39.2417 536.239 39.6186 536.239 40.0411C536.239 40.4637 536.296 40.8405 536.41 41.1716C536.528 41.5027 536.7 41.7644 536.929 41.9568C537.16 42.146 537.445 42.2406 537.785 42.2406ZM546.57 36.3942V37.9079H542.173V36.3942H546.57ZM543.171 34.6535H545.196V41.4271C545.196 41.6131 545.224 41.7582 545.282 41.8622C545.339 41.9631 545.418 42.0341 545.52 42.0751C545.624 42.1161 545.744 42.1366 545.88 42.1366C545.975 42.1366 546.071 42.1287 546.166 42.1129C546.261 42.094 546.334 42.0798 546.385 42.0704L546.703 43.5698C546.602 43.6013 546.459 43.6376 546.275 43.6786C546.092 43.7227 545.868 43.7495 545.605 43.759C545.116 43.7779 544.689 43.7132 544.321 43.5651C543.957 43.4169 543.673 43.1866 543.471 42.8744C543.267 42.5622 543.168 42.1681 543.171 41.6919V34.6535ZM550.988 43.6597V36.3942H553.013V43.6597H550.988ZM552.005 35.4576C551.704 35.4576 551.446 35.3583 551.23 35.1596C551.018 34.9578 550.912 34.7166 550.912 34.4359C550.912 34.1584 551.018 33.9204 551.23 33.7217C551.446 33.5199 551.704 33.4189 552.005 33.4189C552.306 33.4189 552.563 33.5199 552.775 33.7217C552.991 33.9204 553.098 34.1584 553.098 34.4359C553.098 34.7166 552.991 34.9578 552.775 35.1596C552.563 35.3583 552.306 35.4576 552.005 35.4576ZM558.52 36.3942V37.9079H554.122V36.3942H558.52ZM555.12 34.6535H557.145V41.4271C557.145 41.6131 557.174 41.7582 557.231 41.8622C557.288 41.9631 557.367 42.0341 557.469 42.0751C557.574 42.1161 557.694 42.1366 557.83 42.1366C557.925 42.1366 558.02 42.1287 558.115 42.1129C558.21 42.094 558.283 42.0798 558.334 42.0704L558.653 43.5698C558.551 43.6013 558.408 43.6376 558.224 43.6786C558.041 43.7227 557.818 43.7495 557.554 43.759C557.066 43.7779 556.639 43.7132 556.27 43.5651C555.906 43.4169 555.623 43.1866 555.42 42.8744C555.217 42.5622 555.117 42.1681 555.12 41.6919V34.6535ZM561.022 43.7826C560.708 43.7826 560.439 43.6722 560.214 43.4516C559.992 43.2276 559.881 42.9596 559.881 42.6474C559.881 42.3384 559.992 42.0735 560.214 41.8527C560.439 41.632 560.708 41.5216 561.022 41.5216C561.326 41.5216 561.593 41.632 561.821 41.8527C562.049 42.0735 562.163 42.3384 562.163 42.6474C562.163 42.8556 562.11 43.0463 562.002 43.2197C561.897 43.3901 561.759 43.5272 561.588 43.6312C561.417 43.7322 561.228 43.7826 561.022 43.7826Z" fill="white"/>
<path d="M27.9145 25.6324C27.8722 25.2084 27.6909 24.8791 27.3704 24.6443C27.05 24.4095 26.6151 24.2922 26.0657 24.2922C25.6924 24.2922 25.3773 24.3447 25.1202 24.4499C24.8631 24.5515 24.6659 24.6933 24.5286 24.8756C24.3947 25.0578 24.3278 25.2645 24.3278 25.4957C24.3208 25.6884 24.3613 25.8566 24.4493 26.0002C24.5408 26.1439 24.6659 26.2683 24.8244 26.3734C24.9829 26.475 25.166 26.5644 25.3737 26.6414C25.5815 26.7151 25.8034 26.7781 26.0393 26.8307L27.0112 27.0619C27.4831 27.167 27.9163 27.3071 28.3107 27.4824C28.7051 27.6575 29.0467 27.873 29.3354 28.1288C29.6242 28.3846 29.8479 28.6859 30.0063 29.0328C30.1683 29.3797 30.2511 29.7773 30.2546 30.2259C30.2511 30.8845 30.082 31.4557 29.7475 31.9392C29.4164 32.4192 28.9375 32.7923 28.3107 33.0587C27.6874 33.3214 26.9355 33.4529 26.0551 33.4529C25.1818 33.4529 24.4212 33.3197 23.7731 33.0534C23.1288 32.7871 22.6252 32.3929 22.2624 31.8709C21.9032 31.3453 21.7148 30.6953 21.6973 29.921H23.9105C23.9352 30.2819 24.039 30.5832 24.2221 30.825C24.4088 31.0632 24.6571 31.2437 24.967 31.3663C25.2804 31.4854 25.6343 31.545 26.0287 31.545C26.4161 31.545 26.7524 31.489 27.0377 31.3769C27.3264 31.2647 27.5501 31.1088 27.7085 30.9091C27.867 30.7094 27.9462 30.4798 27.9462 30.2206C27.9462 29.9788 27.874 29.7756 27.7296 29.6109C27.5888 29.4463 27.381 29.3061 27.1063 29.1905C26.8352 29.0749 26.5024 28.9697 26.108 28.8751L24.93 28.5808C24.0179 28.3601 23.2977 28.015 22.7695 27.5454C22.2413 27.0759 21.9789 26.4435 21.9825 25.6481C21.9789 24.9964 22.1533 24.4271 22.5054 23.9401C22.8611 23.453 23.3488 23.0729 23.9686 22.7996C24.5884 22.5262 25.2927 22.3896 26.0815 22.3896C26.8845 22.3896 27.5852 22.5262 28.1839 22.7996C28.7861 23.0729 29.2544 23.453 29.589 23.9401C29.9236 24.4271 30.0961 24.9912 30.1067 25.6324H27.9145ZM36.0664 25.2277V26.9095H31.1803V25.2277H36.0664ZM32.2896 23.2936H34.5399V30.8197C34.5399 31.0265 34.5716 31.1876 34.6349 31.3032C34.6983 31.4154 34.7864 31.4942 34.899 31.5397C35.0153 31.5853 35.1491 31.6081 35.3005 31.6081C35.4061 31.6081 35.5118 31.5993 35.6174 31.5818C35.7231 31.5607 35.8041 31.545 35.8604 31.5345L36.2144 33.2006C36.1017 33.2356 35.9432 33.2759 35.739 33.3214C35.5347 33.3705 35.2864 33.4002 34.9942 33.4107C34.4518 33.4318 33.9764 33.36 33.5679 33.1953C33.1629 33.0306 32.8478 32.7749 32.6224 32.428C32.397 32.0811 32.2861 31.6431 32.2896 31.1141V23.2936ZM42.7353 29.8632V25.2277H44.9856V33.3004H42.8252V31.8341H42.7406C42.5575 32.3071 42.253 32.6872 41.8268 32.9746C41.4043 33.2619 40.8883 33.4055 40.2791 33.4055C39.7368 33.4055 39.2596 33.2829 38.8476 33.0376C38.4356 32.7923 38.1133 32.4437 37.8809 31.9917C37.652 31.5397 37.5358 30.9984 37.5323 30.3677V25.2277H39.7826V29.9683C39.7861 30.4448 39.9146 30.8215 40.1681 31.0982C40.4217 31.3751 40.7615 31.5135 41.1877 31.5135C41.4588 31.5135 41.7124 31.4522 41.9483 31.3295C42.1842 31.2034 42.3744 31.0177 42.5188 30.7724C42.6667 30.5272 42.7389 30.2241 42.7353 29.8632ZM49.7754 33.4318C49.1591 33.4318 48.6009 33.2741 48.1009 32.9588C47.6044 32.64 47.2099 32.1722 46.9177 31.5555C46.6289 30.9354 46.4845 30.175 46.4845 29.2746C46.4845 28.3496 46.6342 27.5805 46.9335 26.9673C47.2328 26.3506 47.6308 25.8899 48.1273 25.5851C48.6273 25.2767 49.175 25.1226 49.7701 25.1226C50.2244 25.1226 50.603 25.1996 50.9058 25.3538C51.2122 25.5045 51.4586 25.6937 51.6453 25.9214C51.8355 26.1456 51.9799 26.3664 52.0785 26.5837H52.1471V22.5367H54.3921V33.3004H52.1735V32.0075H52.0785C51.9728 32.2318 51.8231 32.4542 51.6295 32.675C51.4393 32.8922 51.191 33.0726 50.8847 33.2163C50.5818 33.36 50.212 33.4318 49.7754 33.4318ZM50.4885 31.6501C50.8512 31.6501 51.1576 31.552 51.4076 31.3558C51.6612 31.1561 51.8548 30.8776 51.9886 30.5202C52.126 30.1627 52.1947 29.744 52.1947 29.2641C52.1947 28.784 52.1278 28.3671 51.9939 28.0132C51.8601 27.6593 51.6664 27.386 51.4129 27.1933C51.1594 27.0006 50.8512 26.9042 50.4885 26.9042C50.1187 26.9042 49.8071 27.0041 49.5535 27.2038C49.3 27.4035 49.108 27.6803 48.9777 28.0342C48.8475 28.3881 48.7823 28.798 48.7823 29.2641C48.7823 29.7335 48.8475 30.1488 48.9777 30.5096C49.1116 30.867 49.3035 31.1473 49.5535 31.3506C49.8071 31.5502 50.1187 31.6501 50.4885 31.6501ZM59.9398 33.4581C59.1053 33.4581 58.3869 33.2899 57.7847 32.9535C57.186 32.6137 56.7247 32.1337 56.4007 31.5135C56.0767 30.8898 55.9147 30.1522 55.9147 29.3009C55.9147 28.4704 56.0767 27.7417 56.4007 27.1145C56.7247 26.4873 57.1808 25.9985 57.7688 25.6481C58.3605 25.2978 59.0542 25.1226 59.8501 25.1226C60.3853 25.1226 60.8837 25.2084 61.3449 25.3801C61.8098 25.5482 62.2148 25.8023 62.5599 26.1422C62.9085 26.482 63.1797 26.9095 63.3734 27.4246C63.567 27.9361 63.6639 28.5353 63.6639 29.222V29.8369H56.8127V28.4494H61.5457C61.5457 28.1271 61.4752 27.8415 61.3344 27.5927C61.1935 27.344 60.9981 27.1495 60.7481 27.0094C60.5015 26.8657 60.2146 26.7939 59.887 26.7939C59.5454 26.7939 59.2426 26.8727 58.9785 27.0304C58.7179 27.1845 58.5136 27.393 58.3658 27.6558C58.2178 27.9151 58.1421 28.2042 58.1386 28.523V29.8422C58.1386 30.2416 58.2126 30.5868 58.3605 30.8776C58.5119 31.1683 58.7249 31.3926 58.9996 31.5502C59.2743 31.7079 59.6 31.7867 59.9768 31.7867C60.2269 31.7867 60.4558 31.7517 60.6635 31.6817C60.8713 31.6116 61.0491 31.5065 61.1971 31.3663C61.3449 31.2262 61.4577 31.0545 61.5351 30.8512L63.6164 30.9879C63.5107 31.4854 63.2942 31.9199 62.9666 32.2913C62.6426 32.6592 62.2236 32.9465 61.7094 33.1532C61.1988 33.3565 60.609 33.4581 59.9398 33.4581ZM67.3826 28.6334V33.3004H65.1324V25.2277H67.277V26.652H67.3721C67.5517 26.1825 67.8527 25.8111 68.2753 25.5377C68.6979 25.261 69.2103 25.1226 69.8125 25.1226C70.376 25.1226 70.8672 25.2452 71.2863 25.4905C71.7054 25.7358 72.0311 26.0861 72.2635 26.5416C72.4959 26.9936 72.6122 27.5331 72.6122 28.1604V33.3004H70.3619V28.5598C70.3654 28.0657 70.2386 27.6803 69.9816 27.4035C69.7245 27.1233 69.3706 26.9831 68.9198 26.9831C68.617 26.9831 68.3494 27.0479 68.1169 27.1776C67.888 27.3072 67.7084 27.4964 67.5781 27.7452C67.4513 27.9904 67.3862 28.2865 67.3826 28.6334ZM78.7016 25.2277V26.9095H73.8152V25.2277H78.7016ZM74.9245 23.2936H77.1748V30.8197C77.1748 31.0265 77.2064 31.1876 77.2698 31.3032C77.3332 31.4154 77.4212 31.4942 77.5339 31.5397C77.6502 31.5853 77.784 31.6081 77.9354 31.6081C78.041 31.6081 78.1467 31.5993 78.2523 31.5818C78.358 31.5607 78.4391 31.545 78.4956 31.5345L78.8489 33.2006C78.7366 33.2356 78.5781 33.2759 78.3738 33.3214C78.1696 33.3705 77.9213 33.4002 77.629 33.4107C77.0867 33.4318 76.6113 33.36 76.2028 33.1953C75.7978 33.0306 75.4827 32.7749 75.2572 32.428C75.0319 32.0811 74.921 31.6431 74.9245 31.1141V23.2936ZM85.8602 28.6334V33.3004H83.6096V25.2277H85.7546V26.652H85.8498C86.029 26.1825 86.3302 25.8111 86.7527 25.5377C87.1751 25.261 87.6876 25.1226 88.29 25.1226C88.8538 25.1226 89.3447 25.2452 89.7641 25.4905C90.1829 25.7358 90.5086 26.0861 90.7407 26.5416C90.9735 26.9936 91.0895 27.5331 91.0895 28.1604V33.3004H88.8397V28.5598C88.8426 28.0657 88.7162 27.6803 88.4589 27.4035C88.2023 27.1233 87.8482 26.9831 87.3975 26.9831C87.0948 26.9831 86.8271 27.0479 86.5943 27.1776C86.3652 27.3072 86.186 27.4964 86.0558 27.7452C85.9286 27.9904 85.8639 28.2865 85.8602 28.6334ZM95.1772 33.4529C94.6595 33.4529 94.1976 33.3635 93.793 33.1848C93.3877 33.0026 93.0671 32.7345 92.8314 32.3807C92.5993 32.0232 92.4825 31.5783 92.4825 31.0457C92.4825 30.5973 92.5658 30.2206 92.731 29.9157C92.8968 29.6109 93.1222 29.3657 93.407 29.1799C93.6926 28.9943 94.0162 28.8541 94.3791 28.7595C94.7458 28.6649 95.1296 28.5983 95.5304 28.5598C96.0027 28.5108 96.3828 28.4652 96.6721 28.4231C96.9607 28.3776 97.1704 28.311 97.3006 28.2234C97.4307 28.1358 97.4962 28.0062 97.4962 27.8345V27.803C97.4962 27.4701 97.3898 27.2126 97.1786 27.0304C96.9711 26.8482 96.6751 26.7571 96.2913 26.7571C95.8867 26.7571 95.5639 26.8464 95.3244 27.0251C95.0857 27.2003 94.9265 27.421 94.8492 27.6874L92.7681 27.5192C92.8738 27.0286 93.0813 26.6047 93.3914 26.2473C93.7016 25.8864 94.1009 25.6096 94.5903 25.4169C95.0834 25.2206 95.6539 25.1226 96.3017 25.1226C96.7524 25.1226 97.1838 25.1751 97.5958 25.2802C98.0116 25.3854 98.3797 25.5482 98.7003 25.769C99.0238 25.9897 99.2797 26.2736 99.4664 26.6204C99.653 26.9638 99.746 27.3755 99.746 27.8555V33.3004H97.6122V32.1809H97.549C97.4181 32.4332 97.244 32.6557 97.0254 32.8484C96.8075 33.0376 96.5449 33.1865 96.2385 33.2952C95.9321 33.4002 95.578 33.4529 95.1772 33.4529ZM95.8212 31.9077C96.1522 31.9077 96.4445 31.8428 96.6981 31.7132C96.9517 31.5801 97.1511 31.4013 97.2954 31.1771C97.4396 30.9529 97.5118 30.6989 97.5118 30.4151V29.5584C97.4411 29.6039 97.3444 29.646 97.221 29.6845C97.1012 29.7196 96.9659 29.7529 96.8141 29.7844C96.6632 29.8124 96.5114 29.8387 96.3605 29.8632C96.2087 29.8842 96.0711 29.9035 95.9484 29.921C95.6836 29.9595 95.4531 30.0209 95.256 30.1049C95.0589 30.1891 94.9057 30.3029 94.7964 30.4466C94.687 30.5868 94.6327 30.7619 94.6327 30.9721C94.6327 31.277 94.7435 31.51 94.9659 31.6712C95.1913 31.8288 95.4761 31.9077 95.8212 31.9077ZM101.492 33.3004V25.2277H103.637V26.652H103.732C103.901 26.1789 104.182 25.8058 104.577 25.5325C104.971 25.2592 105.443 25.1226 105.993 25.1226C106.549 25.1226 107.022 25.261 107.413 25.5377C107.805 25.8111 108.065 26.1825 108.195 26.652H108.28C108.445 26.1895 108.745 25.8198 109.178 25.543C109.614 25.2628 110.13 25.1226 110.725 25.1226C111.482 25.1226 112.097 25.3626 112.569 25.8426C113.044 26.3191 113.282 26.9953 113.282 27.8713V33.3004H111.037V28.3127C111.037 27.8643 110.917 27.5279 110.678 27.3037C110.438 27.0795 110.139 26.9673 109.78 26.9673C109.372 26.9673 109.053 27.097 108.823 27.3562C108.595 27.612 108.481 27.9501 108.481 28.3706V33.3004H106.298V28.2655C106.298 27.8696 106.185 27.5542 105.956 27.3194C105.73 27.0847 105.433 26.9673 105.063 26.9673C104.812 26.9673 104.587 27.0304 104.386 27.1565C104.189 27.2792 104.033 27.4526 103.916 27.6769C103.8 27.8976 103.742 28.1568 103.742 28.4547V33.3004H101.492ZM118.757 33.4581C117.923 33.4581 117.204 33.2899 116.602 32.9535C116.004 32.6137 115.542 32.1337 115.218 31.5135C114.894 30.8898 114.732 30.1522 114.732 29.3009C114.732 28.4704 114.894 27.7417 115.218 27.1145C115.542 26.4873 115.998 25.9985 116.586 25.6481C117.178 25.2978 117.871 25.1226 118.667 25.1226C119.203 25.1226 119.701 25.2084 120.162 25.3801C120.627 25.5482 121.032 25.8023 121.377 26.1422C121.726 26.482 121.997 26.9095 122.191 27.4246C122.384 27.9361 122.481 28.5353 122.481 29.222V29.8369H115.63V28.4494H120.363C120.363 28.1271 120.293 27.8415 120.152 27.5927C120.011 27.344 119.815 27.1495 119.565 27.0094C119.319 26.8657 119.031 26.7939 118.704 26.7939C118.363 26.7939 118.06 26.8727 117.796 27.0304C117.535 27.1845 117.331 27.393 117.183 27.6558C117.035 27.9151 116.959 28.2042 116.956 28.523V29.8422C116.956 30.2416 117.03 30.5868 117.178 30.8776C117.329 31.1683 117.542 31.3926 117.817 31.5502C118.091 31.7079 118.417 31.7867 118.794 31.7867C119.044 31.7867 119.273 31.7517 119.481 31.6817C119.689 31.6116 119.867 31.5065 120.015 31.3663C120.162 31.2262 120.275 31.0545 120.352 30.8512L122.433 30.9879C122.328 31.4854 122.111 31.9199 121.784 32.2913C121.46 32.6592 121.041 32.9465 120.526 33.1532C120.016 33.3565 119.426 33.4581 118.757 33.4581ZM130.7 27.5297L128.641 27.6558C128.605 27.4806 128.529 27.3229 128.413 27.1828C128.297 27.0391 128.144 26.9252 127.953 26.8412C127.767 26.7536 127.544 26.7098 127.283 26.7098C126.934 26.7098 126.64 26.7834 126.401 26.9305C126.161 27.0742 126.041 27.2669 126.041 27.5087C126.041 27.7014 126.119 27.8643 126.274 27.9974C126.429 28.1306 126.695 28.2374 127.071 28.318L128.54 28.6124C129.329 28.7735 129.917 29.0328 130.304 29.3902C130.692 29.7476 130.885 30.2171 130.885 30.7987C130.885 31.3278 130.728 31.792 130.415 32.1914C130.105 32.5909 129.679 32.9027 129.137 33.127C128.598 33.3477 127.977 33.4581 127.272 33.4581C126.198 33.4581 125.342 33.2356 124.705 32.7906C124.071 32.3421 123.7 31.7325 123.591 30.9616L125.804 30.846C125.871 31.1719 126.032 31.4207 126.29 31.5923C126.547 31.7605 126.876 31.8446 127.277 31.8446C127.672 31.8446 127.989 31.7693 128.229 31.6186C128.471 31.4644 128.595 31.2664 128.598 31.0247C128.595 30.8215 128.508 30.6551 128.339 30.5254C128.17 30.3923 127.91 30.2907 127.558 30.2206L126.152 29.942C125.36 29.7844 124.77 29.5111 124.383 29.1221C123.999 28.7332 123.807 28.2374 123.807 27.6348C123.807 27.1162 123.948 26.6695 124.23 26.2946C124.515 25.9197 124.915 25.6306 125.428 25.4274C125.946 25.2242 126.552 25.1226 127.246 25.1226C128.27 25.1226 129.077 25.3381 129.665 25.769C130.257 26.2 130.602 26.7869 130.7 27.5297ZM174.732 33.3004V22.5367H176.983V26.5837H177.051C177.15 26.3664 177.292 26.1456 177.479 25.9214C177.669 25.6937 177.916 25.5045 178.219 25.3538C178.525 25.1996 178.906 25.1226 179.36 25.1226C179.951 25.1226 180.497 25.2767 180.997 25.5851C181.498 25.8899 181.897 26.3506 182.197 26.9673C182.496 27.5805 182.645 28.3496 182.645 29.2746C182.645 30.175 182.499 30.9354 182.207 31.5555C181.918 32.1722 181.524 32.64 181.024 32.9588C180.527 33.2741 179.971 33.4318 179.355 33.4318C178.918 33.4318 178.546 33.36 178.24 33.2163C177.937 33.0726 177.689 32.8922 177.495 32.675C177.301 32.4542 177.153 32.2318 177.051 32.0075H176.951V33.3004H174.732ZM176.935 29.2641C176.935 29.744 177.002 30.1627 177.136 30.5202C177.27 30.8776 177.463 31.1561 177.717 31.3558C177.971 31.552 178.279 31.6501 178.642 31.6501C179.007 31.6501 179.318 31.5502 179.571 31.3506C179.825 31.1473 180.017 30.867 180.147 30.5096C180.281 30.1488 180.348 29.7335 180.348 29.2641C180.348 28.798 180.282 28.3881 180.152 28.0342C180.022 27.6803 179.83 27.4035 179.576 27.2038C179.323 27.0041 179.011 26.9042 178.642 26.9042C178.275 26.9042 177.965 27.0006 177.712 27.1933C177.462 27.386 177.27 27.6593 177.136 28.0132C177.002 28.3671 176.935 28.784 176.935 29.2641ZM187.845 33.4581C187.01 33.4581 186.292 33.2899 185.689 32.9535C185.091 32.6137 184.629 32.1337 184.305 31.5135C183.982 30.8898 183.819 30.1522 183.819 29.3009C183.819 28.4704 183.982 27.7417 184.305 27.1145C184.629 26.4873 185.085 25.9985 185.674 25.6481C186.265 25.2978 186.959 25.1226 187.755 25.1226C188.29 25.1226 188.788 25.2084 189.25 25.3801C189.714 25.5482 190.12 25.8023 190.465 26.1422C190.813 26.482 191.084 26.9095 191.278 27.4246C191.472 27.9361 191.569 28.5353 191.569 29.222V29.8369H184.717V28.4494H189.45C189.45 28.1271 189.38 27.8415 189.239 27.5927C189.098 27.344 188.903 27.1495 188.652 27.0094C188.406 26.8657 188.119 26.7939 187.792 26.7939C187.45 26.7939 187.147 26.8727 186.883 27.0304C186.623 27.1845 186.418 27.393 186.27 27.6558C186.122 27.9151 186.047 28.2042 186.043 28.523V29.8422C186.043 30.2416 186.117 30.5868 186.265 30.8776C186.417 31.1683 186.629 31.3926 186.905 31.5502C187.179 31.7079 187.505 31.7867 187.882 31.7867C188.132 31.7867 188.36 31.7517 188.568 31.6817C188.776 31.6116 188.954 31.5065 189.102 31.3663C189.25 31.2262 189.363 31.0545 189.44 30.8512L191.521 30.9879C191.415 31.4854 191.199 31.9199 190.871 32.2913C190.547 32.6592 190.128 32.9465 189.614 33.1532C189.103 33.3565 188.513 33.4581 187.845 33.4581ZM200.178 33.4581C199.343 33.4581 198.625 33.2899 198.022 32.9535C197.423 32.6137 196.962 32.1337 196.638 31.5135C196.315 30.8898 196.152 30.1522 196.152 29.3009C196.152 28.4704 196.315 27.7417 196.638 27.1145C196.962 26.4873 197.418 25.9985 198.007 25.6481C198.598 25.2978 199.292 25.1226 200.088 25.1226C200.623 25.1226 201.121 25.2084 201.582 25.3801C202.047 25.5482 202.453 25.8023 202.798 26.1422C203.146 26.482 203.417 26.9095 203.611 27.4246C203.805 27.9361 203.901 28.5353 203.901 29.222V29.8369H197.05V28.4494H201.783C201.783 28.1271 201.713 27.8415 201.572 27.5927C201.431 27.344 201.236 27.1495 200.985 27.0094C200.739 26.8657 200.452 26.7939 200.125 26.7939C199.783 26.7939 199.48 26.8727 199.216 27.0304C198.956 27.1845 198.751 27.393 198.603 27.6558C198.455 27.9151 198.38 28.2042 198.376 28.523V29.8422C198.376 30.2416 198.45 30.5868 198.598 30.8776C198.75 31.1683 198.962 31.3926 199.237 31.5502C199.512 31.7079 199.838 31.7867 200.215 31.7867C200.465 31.7867 200.693 31.7517 200.901 31.6817C201.109 31.6116 201.286 31.5065 201.434 31.3663C201.582 31.2262 201.696 31.0545 201.773 30.8512L203.854 30.9879C203.748 31.4854 203.532 31.9199 203.204 32.2913C202.88 32.6592 202.461 32.9465 201.947 33.1532C201.437 33.3565 200.846 33.4581 200.178 33.4581ZM208.36 33.4318C207.744 33.4318 207.185 33.2741 206.685 32.9588C206.189 32.64 205.794 32.1722 205.502 31.5555C205.213 30.9354 205.069 30.175 205.069 29.2746C205.069 28.3496 205.219 27.5805 205.518 26.9673C205.817 26.3506 206.215 25.8899 206.711 25.5851C207.212 25.2767 207.759 25.1226 208.354 25.1226C208.809 25.1226 209.187 25.1996 209.49 25.3538C209.796 25.5045 210.043 25.6937 210.229 25.9214C210.42 26.1456 210.564 26.3664 210.663 26.5837H210.731V22.5367H212.977V33.3004H210.758V32.0075H210.663C210.557 32.2318 210.408 32.4542 210.214 32.675C210.023 32.8922 209.776 33.0726 209.469 33.2163C209.166 33.36 208.796 33.4318 208.36 33.4318ZM209.073 31.6501C209.436 31.6501 209.742 31.552 209.992 31.3558C210.246 31.1561 210.439 30.8776 210.573 30.5202C210.711 30.1627 210.779 29.744 210.779 29.2641C210.779 28.784 210.712 28.3671 210.578 28.0132C210.444 27.6593 210.251 27.386 209.997 27.1933C209.744 27.0006 209.436 26.9042 209.073 26.9042C208.703 26.9042 208.391 27.0041 208.138 27.2038C207.884 27.4035 207.692 27.6803 207.562 28.0342C207.432 28.3881 207.367 28.798 207.367 29.2641C207.367 29.7335 207.432 30.1488 207.562 30.5096C207.696 30.867 207.888 31.1473 208.138 31.3506C208.391 31.5502 208.703 31.6501 209.073 31.6501ZM214.826 33.3004V25.2277H217.077V33.3004H214.826ZM215.957 24.1871C215.622 24.1871 215.335 24.0767 215.096 23.8559C214.86 23.6317 214.742 23.3637 214.742 23.0519C214.742 22.7435 214.86 22.4789 215.096 22.2582C215.335 22.034 215.622 21.9219 215.957 21.9219C216.292 21.9219 216.576 22.034 216.813 22.2582C217.052 22.4789 217.172 22.7435 217.172 23.0519C217.172 23.3637 217.052 23.6317 216.813 23.8559C216.576 24.0767 216.292 24.1871 215.957 24.1871ZM223.195 25.2277V26.9095H218.309V25.2277H223.195ZM219.418 23.2936H221.668V30.8197C221.668 31.0265 221.7 31.1876 221.763 31.3032C221.827 31.4154 221.915 31.4942 222.027 31.5397C222.144 31.5853 222.278 31.6081 222.429 31.6081C222.535 31.6081 222.64 31.5993 222.746 31.5818C222.851 31.5607 222.933 31.545 222.989 31.5345L223.343 33.2006C223.23 33.2356 223.072 33.2759 222.868 33.3214C222.663 33.3705 222.415 33.4002 222.123 33.4107C221.58 33.4318 221.105 33.36 220.697 33.1953C220.292 33.0306 219.976 32.7749 219.751 32.428C219.525 32.0811 219.415 31.6431 219.418 31.1141V23.2936ZM228.271 33.4581C227.437 33.4581 226.718 33.2899 226.117 32.9535C225.518 32.6137 225.056 32.1337 224.732 31.5135C224.408 30.8898 224.246 30.1522 224.246 29.3009C224.246 28.4704 224.408 27.7417 224.732 27.1145C225.056 26.4873 225.513 25.9985 226.1 25.6481C226.692 25.2978 227.385 25.1226 228.182 25.1226C228.717 25.1226 229.215 25.2084 229.676 25.3801C230.141 25.5482 230.546 25.8023 230.891 26.1422C231.24 26.482 231.511 26.9095 231.705 27.4246C231.898 27.9361 231.995 28.5353 231.995 29.222V29.8369H225.144V28.4494H229.877C229.877 28.1271 229.807 27.8415 229.666 27.5927C229.525 27.344 229.33 27.1495 229.08 27.0094C228.833 26.8657 228.546 26.7939 228.218 26.7939C227.877 26.7939 227.574 26.8727 227.31 27.0304C227.049 27.1845 226.845 27.393 226.697 27.6558C226.549 27.9151 226.474 28.2042 226.47 28.523V29.8422C226.47 30.2416 226.544 30.5868 226.692 30.8776C226.843 31.1683 227.057 31.3926 227.331 31.5502C227.606 31.7079 227.931 31.7867 228.308 31.7867C228.558 31.7867 228.787 31.7517 228.995 31.6817C229.203 31.6116 229.381 31.5065 229.529 31.3663C229.676 31.2262 229.789 31.0545 229.867 30.8512L231.948 30.9879C231.842 31.4854 231.626 31.9199 231.298 32.2913C230.974 32.6592 230.555 32.9465 230.041 33.1532C229.53 33.3565 228.941 33.4581 228.271 33.4581ZM236.454 33.4318C235.837 33.4318 235.28 33.2741 234.779 32.9588C234.283 32.64 233.888 32.1722 233.596 31.5555C233.307 30.9354 233.163 30.175 233.163 29.2746C233.163 28.3496 233.312 27.5805 233.612 26.9673C233.911 26.3506 234.309 25.8899 234.806 25.5851C235.306 25.2767 235.853 25.1226 236.449 25.1226C236.902 25.1226 237.281 25.1996 237.584 25.3538C237.89 25.5045 238.137 25.6937 238.324 25.9214C238.514 26.1456 238.658 26.3664 238.757 26.5837H238.826V22.5367H241.07V33.3004H238.852V32.0075H238.757C238.651 32.2318 238.501 32.4542 238.308 32.675C238.118 32.8922 237.869 33.0726 237.563 33.2163C237.26 33.36 236.891 33.4318 236.454 33.4318ZM237.166 31.6501C237.529 31.6501 237.836 31.552 238.086 31.3558C238.339 31.1561 238.533 30.8776 238.667 30.5202C238.804 30.1627 238.873 29.744 238.873 29.2641C238.873 28.784 238.806 28.3671 238.673 28.0132C238.539 27.6593 238.345 27.386 238.091 27.1933C237.837 27.0006 237.529 26.9042 237.166 26.9042C236.797 26.9042 236.485 27.0041 236.232 27.2038C235.978 27.4035 235.786 27.6803 235.656 28.0342C235.526 28.3881 235.46 28.798 235.46 29.2641C235.46 29.7335 235.526 30.1488 235.656 30.5096C235.79 30.867 235.982 31.1473 236.232 31.3506C236.485 31.5502 236.797 31.6501 237.166 31.6501ZM244.236 33.4371C243.887 33.4371 243.588 33.3144 243.338 33.0692C243.091 32.8204 242.968 32.5226 242.968 32.1757C242.968 31.8323 243.091 31.538 243.338 31.2927C243.588 31.0475 243.887 30.9249 244.236 30.9249C244.574 30.9249 244.869 31.0475 245.123 31.2927C245.377 31.538 245.504 31.8323 245.504 32.1757C245.504 32.4069 245.444 32.6189 245.324 32.8116C245.208 33.0009 245.055 33.1532 244.864 33.2689C244.675 33.381 244.465 33.4371 244.236 33.4371ZM251.355 23.693V22.5367H259.469V23.693H256.067V33.3004H254.757V23.693H251.355ZM263.441 33.4686C262.708 33.4686 262.066 33.2952 261.513 32.9482C260.963 32.6014 260.534 32.1161 260.224 31.4924C259.918 30.8688 259.765 30.14 259.765 29.3061C259.765 28.4652 259.918 27.7312 260.224 27.1039C260.534 26.4768 260.963 25.9897 261.513 25.6429C262.066 25.296 262.708 25.1226 263.441 25.1226C264.174 25.1226 264.815 25.296 265.363 25.6429C265.917 25.9897 266.346 26.4768 266.652 27.1039C266.963 27.7312 267.117 28.4652 267.117 29.3061C267.117 30.14 266.963 30.8688 266.652 31.4924C266.346 32.1161 265.917 32.6014 265.363 32.9482C264.815 33.2952 264.174 33.4686 263.441 33.4686ZM263.441 32.3544C263.997 32.3544 264.455 32.2125 264.815 31.9287C265.174 31.6449 265.439 31.2717 265.612 30.8092C265.784 30.3467 265.871 29.8456 265.871 29.3061C265.871 28.7665 265.784 28.2637 265.612 27.7977C265.439 27.3317 265.174 26.9551 264.815 26.6677C264.455 26.3804 263.997 26.2367 263.441 26.2367C262.885 26.2367 262.427 26.3804 262.068 26.6677C261.709 26.9551 261.442 27.3317 261.27 27.7977C261.097 28.2637 261.011 28.7665 261.011 29.3061C261.011 29.8456 261.097 30.3467 261.27 30.8092C261.442 31.2717 261.709 31.6449 262.068 31.9287C262.427 32.2125 262.885 32.3544 263.441 32.3544ZM276.5 33.4686C275.74 33.4686 275.084 33.2899 274.535 32.9325C273.986 32.5751 273.563 32.0828 273.267 31.4557C272.971 30.8285 272.824 30.112 272.824 29.3061C272.824 28.4862 272.975 27.7627 273.278 27.1355C273.584 26.5048 274.01 26.0125 274.556 25.6587C275.106 25.3012 275.747 25.1226 276.479 25.1226C277.049 25.1226 277.564 25.2277 278.021 25.4379C278.48 25.6481 278.854 25.9424 279.147 26.3209C279.439 26.6992 279.62 27.1407 279.691 27.6453H278.444C278.349 27.2774 278.137 26.9516 277.81 26.6677C277.487 26.3804 277.049 26.2367 276.5 26.2367C276.014 26.2367 275.588 26.3629 275.222 26.6152C274.859 26.864 274.576 27.2161 274.372 27.6716C274.171 28.1236 274.071 28.6544 274.071 29.2641C274.071 29.8878 274.169 30.4308 274.366 30.8933C274.567 31.3558 274.849 31.715 275.211 31.9707C275.577 32.2265 276.007 32.3544 276.5 32.3544C276.824 32.3544 277.118 32.2983 277.382 32.1862C277.647 32.0741 277.87 31.9129 278.053 31.7027C278.236 31.4924 278.366 31.2402 278.444 30.9459H279.691C279.62 31.4224 279.446 31.8516 279.167 32.2335C278.893 32.6119 278.529 32.9132 278.074 33.1375C277.623 33.3582 277.099 33.4686 276.5 33.4686ZM282.76 28.4442V33.3004H281.513V22.5367H282.76V26.4891H282.865C283.056 26.0721 283.341 25.741 283.721 25.4957C284.105 25.247 284.615 25.1226 285.253 25.1226C285.806 25.1226 286.29 25.2329 286.705 25.4537C287.121 25.6709 287.443 26.0055 287.672 26.4575C287.905 26.906 288.021 27.4771 288.021 28.1709V33.3004H286.775V28.2549C286.775 27.6137 286.607 27.118 286.273 26.7676C285.942 26.4138 285.482 26.2367 284.894 26.2367C284.485 26.2367 284.119 26.3226 283.795 26.4943C283.475 26.666 283.221 26.9165 283.034 27.2459C282.851 27.5753 282.76 27.9746 282.76 28.4442ZM292.689 33.4896C292.175 33.4896 291.709 33.3933 291.289 33.2006C290.87 33.0043 290.537 32.7223 290.291 32.3544C290.045 31.983 289.921 31.5345 289.921 31.0089C289.921 30.5464 290.013 30.1715 290.196 29.8842C290.379 29.5934 290.623 29.3657 290.93 29.201C291.236 29.0363 291.575 28.9137 291.944 28.8331C292.318 28.749 292.693 28.6824 293.07 28.6334C293.563 28.5703 293.962 28.523 294.269 28.4914C294.579 28.4564 294.804 28.3986 294.945 28.318C295.089 28.2374 295.161 28.0972 295.161 27.8976V27.8555C295.161 27.337 295.019 26.934 294.733 26.6467C294.452 26.3594 294.024 26.2157 293.45 26.2157C292.855 26.2157 292.388 26.3454 292.05 26.6047C291.712 26.864 291.474 27.1407 291.337 27.4351L290.153 27.0146C290.365 26.5241 290.647 26.1422 290.999 25.8689C291.355 25.5921 291.742 25.3994 292.161 25.2907C292.583 25.1786 292.999 25.1226 293.407 25.1226C293.668 25.1226 293.967 25.1541 294.306 25.2172C294.647 25.2767 294.977 25.4011 295.293 25.5904C295.614 25.7795 295.88 26.0651 296.091 26.447C296.302 26.8289 296.408 27.3405 296.408 27.9817V33.3004H295.161V32.2072H295.098C295.013 32.3824 294.873 32.5699 294.675 32.7696C294.478 32.9693 294.216 33.1392 293.889 33.2794C293.561 33.4196 293.161 33.4896 292.689 33.4896ZM292.879 32.3754C293.372 32.3754 293.788 32.2791 294.126 32.0864C294.468 31.8937 294.725 31.6449 294.897 31.3401C295.073 31.0352 295.161 30.7146 295.161 30.3782V29.243C295.108 29.3061 294.992 29.3639 294.813 29.4164C294.637 29.4655 294.432 29.5093 294.2 29.5479C293.971 29.5829 293.747 29.6144 293.529 29.6424C293.314 29.667 293.14 29.688 293.006 29.7055C292.682 29.7476 292.379 29.8159 292.098 29.9105C291.819 30.0016 291.594 30.14 291.422 30.3257C291.253 30.5079 291.168 30.7567 291.168 31.072C291.168 31.503 291.328 31.8288 291.648 32.0496C291.973 32.2668 292.383 32.3754 292.879 32.3754ZM299.93 28.4442V33.3004H298.683V25.2277H299.888V26.4891H299.993C300.184 26.0791 300.472 25.7497 300.86 25.501C301.247 25.2487 301.747 25.1226 302.36 25.1226C302.909 25.1226 303.39 25.2347 303.802 25.4589C304.214 25.6797 304.535 26.016 304.763 26.468C304.992 26.9165 305.107 27.4842 305.107 28.1709V33.3004H303.86V28.2549C303.86 27.6208 303.694 27.1267 303.363 26.7729C303.032 26.4155 302.579 26.2367 302.001 26.2367C301.603 26.2367 301.247 26.3226 300.933 26.4943C300.624 26.666 300.379 26.9165 300.199 27.2459C300.02 27.5753 299.93 27.9746 299.93 28.4442ZM310.659 36.4959C310.058 36.4959 309.54 36.4188 309.106 36.2646C308.674 36.114 308.313 35.9142 308.024 35.6655C307.739 35.4202 307.511 35.1574 307.342 34.8771L308.335 34.1834C308.448 34.3305 308.591 34.4987 308.764 34.6879C308.936 34.8806 309.172 35.047 309.471 35.1872C309.774 35.3308 310.17 35.4027 310.659 35.4027C311.315 35.4027 311.855 35.245 312.281 34.9297C312.708 34.6144 312.92 34.1203 312.92 33.4476V31.8078H312.815C312.723 31.9549 312.593 32.1371 312.424 32.3544C312.258 32.5681 312.019 32.7591 311.706 32.9272C311.396 33.092 310.977 33.1742 310.448 33.1742C309.794 33.1742 309.205 33.0201 308.684 32.7117C308.166 32.4035 307.757 31.9549 307.453 31.3663C307.154 30.7777 307.005 30.0629 307.005 29.222C307.005 28.3951 307.15 27.6751 307.443 27.0619C307.735 26.4453 308.142 25.9687 308.663 25.6324C309.184 25.2925 309.786 25.1226 310.47 25.1226C310.998 25.1226 311.416 25.2101 311.727 25.3854C312.04 25.5571 312.279 25.7532 312.445 25.974C312.614 26.1912 312.744 26.3699 312.836 26.5101H312.963V25.2277H314.167V33.5317C314.167 34.2254 314.008 34.7895 313.692 35.224C313.379 35.662 312.956 35.9825 312.424 36.1857C311.895 36.3925 311.308 36.4959 310.659 36.4959ZM310.618 32.0601C311.118 32.0601 311.54 31.9462 311.885 31.7184C312.23 31.4907 312.493 31.1631 312.672 30.7356C312.852 30.3081 312.942 29.7967 312.942 29.201C312.942 28.6193 312.853 28.1061 312.677 27.6611C312.502 27.2161 312.241 26.8674 311.895 26.6152C311.55 26.3629 311.124 26.2367 310.618 26.2367C310.089 26.2367 309.649 26.3699 309.297 26.6362C308.948 26.9025 308.686 27.2599 308.51 27.7084C308.337 28.1568 308.251 28.6544 308.251 29.201C308.251 29.7616 308.339 30.2574 308.515 30.6884C308.694 31.1158 308.958 31.4522 309.307 31.6974C309.66 31.9392 310.096 32.0601 310.618 32.0601ZM319.851 33.4686C319.069 33.4686 318.395 33.2969 317.828 32.9535C317.265 32.6067 316.83 32.1231 316.523 31.503C316.22 30.8793 316.069 30.154 316.069 29.3271C316.069 28.5003 316.22 27.7714 316.523 27.1407C316.83 26.5065 317.256 26.0125 317.802 25.6587C318.35 25.3012 318.992 25.1226 319.724 25.1226C320.147 25.1226 320.564 25.1927 320.976 25.3328C321.388 25.4729 321.763 25.7007 322.101 26.016C322.439 26.3279 322.709 26.7413 322.91 27.2564C323.11 27.7714 323.21 28.4056 323.21 29.1589V29.6845H316.956V28.6124H321.943C321.943 28.1568 321.851 27.7504 321.668 27.393C321.488 27.0356 321.231 26.7536 320.897 26.5469C320.566 26.3401 320.175 26.2367 319.724 26.2367C319.227 26.2367 318.798 26.3594 318.435 26.6047C318.076 26.8464 317.799 27.1617 317.606 27.5507C317.412 27.9396 317.315 28.3565 317.315 28.8016V29.5163C317.315 30.126 317.421 30.6428 317.632 31.0667C317.847 31.4872 318.144 31.8078 318.525 32.0285C318.905 32.2458 319.347 32.3544 319.851 32.3544C320.179 32.3544 320.474 32.3088 320.739 32.2177C321.006 32.1231 321.237 31.983 321.43 31.7973C321.624 31.6081 321.774 31.3733 321.88 31.093L323.084 31.4294C322.957 31.8358 322.744 32.1932 322.445 32.5016C322.145 32.8064 321.775 33.0447 321.335 33.2163C320.895 33.3845 320.4 33.4686 319.851 33.4686ZM331.678 33.4896C331.164 33.4896 330.697 33.3933 330.278 33.2006C329.859 33.0043 329.526 32.7223 329.28 32.3544C329.033 31.983 328.91 31.5345 328.91 31.0089C328.91 30.5464 329.002 30.1715 329.185 29.8842C329.368 29.5934 329.612 29.3657 329.919 29.201C330.225 29.0363 330.564 28.9137 330.933 28.8331C331.307 28.749 331.681 28.6824 332.059 28.6334C332.552 28.5703 332.951 28.523 333.257 28.4914C333.568 28.4564 333.793 28.3986 333.934 28.318C334.078 28.2374 334.15 28.0972 334.15 27.8976V27.8555C334.15 27.337 334.007 26.934 333.722 26.6467C333.44 26.3594 333.013 26.2157 332.439 26.2157C331.844 26.2157 331.377 26.3454 331.039 26.6047C330.7 26.864 330.463 27.1407 330.326 27.4351L329.142 27.0146C329.354 26.5241 329.635 26.1422 329.988 25.8689C330.343 25.5921 330.731 25.3994 331.15 25.2907C331.572 25.1786 331.988 25.1226 332.396 25.1226C332.657 25.1226 332.956 25.1541 333.295 25.2172C333.636 25.2767 333.966 25.4011 334.282 25.5904C334.603 25.7795 334.868 26.0651 335.08 26.447C335.291 26.8289 335.396 27.3405 335.396 27.9817V33.3004H334.15V32.2072H334.087C334.002 32.3824 333.861 32.5699 333.664 32.7696C333.467 32.9693 333.205 33.1392 332.877 33.2794C332.549 33.4196 332.15 33.4896 331.678 33.4896ZM331.868 32.3754C332.361 32.3754 332.777 32.2791 333.115 32.0864C333.456 31.8937 333.713 31.6449 333.886 31.3401C334.062 31.0352 334.15 30.7146 334.15 30.3782V29.243C334.097 29.3061 333.981 29.3639 333.801 29.4164C333.626 29.4655 333.421 29.5093 333.189 29.5479C332.96 29.5829 332.736 29.6144 332.518 29.6424C332.303 29.667 332.128 29.688 331.995 29.7055C331.671 29.7476 331.368 29.8159 331.086 29.9105C330.808 30.0016 330.583 30.14 330.41 30.3257C330.242 30.5079 330.157 30.7567 330.157 31.072C330.157 31.503 330.317 31.8288 330.637 32.0496C330.961 32.2668 331.371 32.3754 331.868 32.3754ZM343.102 28.4442V33.3004H341.856V25.2277H343.06V26.4891H343.166C343.356 26.0791 343.645 25.7497 344.032 25.501C344.42 25.2487 344.919 25.1226 345.532 25.1226C346.081 25.1226 346.562 25.2347 346.974 25.4589C347.386 25.6797 347.707 26.016 347.935 26.468C348.164 26.9165 348.279 27.4842 348.279 28.1709V33.3004H347.032V28.2549C347.032 27.6208 346.867 27.1267 346.536 26.7729C346.205 26.4155 345.75 26.2367 345.173 26.2367C344.775 26.2367 344.42 26.3226 344.106 26.4943C343.796 26.666 343.551 26.9165 343.372 27.2459C343.192 27.5753 343.102 27.9746 343.102 28.4442ZM352.945 33.4896C352.431 33.4896 351.964 33.3933 351.545 33.2006C351.126 33.0043 350.793 32.7223 350.547 32.3544C350.3 31.983 350.177 31.5345 350.177 31.0089C350.177 30.5464 350.268 30.1715 350.451 29.8842C350.634 29.5934 350.879 29.3657 351.186 29.201C351.492 29.0363 351.83 28.9137 352.2 28.8331C352.573 28.749 352.948 28.6824 353.325 28.6334C353.818 28.5703 354.218 28.523 354.524 28.4914C354.834 28.4564 355.059 28.3986 355.2 28.318C355.345 28.2374 355.417 28.0972 355.417 27.8976V27.8555C355.417 27.337 355.274 26.934 354.989 26.6467C354.707 26.3594 354.28 26.2157 353.705 26.2157C353.11 26.2157 352.643 26.3454 352.306 26.6047C351.967 26.864 351.73 27.1407 351.592 27.4351L350.409 27.0146C350.62 26.5241 350.902 26.1422 351.254 25.8689C351.61 25.5921 351.997 25.3994 352.416 25.2907C352.839 25.1786 353.255 25.1226 353.663 25.1226C353.923 25.1226 354.223 25.1541 354.561 25.2172C354.903 25.2767 355.232 25.4011 355.549 25.5904C355.869 25.7795 356.135 26.0651 356.346 26.447C356.558 26.8289 356.663 27.3405 356.663 27.9817V33.3004H355.417V32.2072H355.354C355.269 32.3824 355.128 32.5699 354.931 32.7696C354.733 32.9693 354.471 33.1392 354.143 33.2794C353.816 33.4196 353.417 33.4896 352.945 33.4896ZM353.135 32.3754C353.628 32.3754 354.043 32.2791 354.381 32.0864C354.723 31.8937 354.98 31.6449 355.153 31.3401C355.329 31.0352 355.417 30.7146 355.417 30.3782V29.243C355.364 29.3061 355.248 29.3639 355.068 29.4164C354.892 29.4655 354.688 29.5093 354.455 29.5479C354.227 29.5829 354.003 29.6144 353.784 29.6424C353.57 29.667 353.395 29.688 353.261 29.7055C352.938 29.7476 352.634 29.8159 352.353 29.9105C352.075 30.0016 351.85 30.14 351.677 30.3257C351.508 30.5079 351.424 30.7567 351.424 31.072C351.424 31.503 351.583 31.8288 351.904 32.0496C352.228 32.2668 352.638 32.3754 353.135 32.3754ZM358.938 33.3004V25.2277H360.143V26.4891H360.249C360.418 26.0581 360.691 25.7235 361.068 25.4852C361.444 25.2434 361.897 25.1226 362.425 25.1226C362.961 25.1226 363.406 25.2434 363.762 25.4852C364.121 25.7235 364.4 26.0581 364.601 26.4891H364.686C364.894 26.0721 365.205 25.741 365.621 25.4957C366.036 25.247 366.534 25.1226 367.116 25.1226C367.841 25.1226 368.435 25.3486 368.896 25.8006C369.357 26.249 369.588 26.948 369.588 27.8976V33.3004H368.341V27.8976C368.341 27.3019 368.177 26.8762 367.85 26.6204C367.523 26.3647 367.137 26.2367 366.693 26.2367C366.122 26.2367 365.68 26.4085 365.367 26.7519C365.053 27.0917 364.897 27.5226 364.897 28.0447V33.3004H363.629V27.7714C363.629 27.3124 363.48 26.9428 363.181 26.6625C362.881 26.3787 362.496 26.2367 362.023 26.2367C361.7 26.2367 361.396 26.3226 361.115 26.4943C360.836 26.666 360.611 26.9042 360.439 27.2091C360.27 27.5104 360.186 27.859 360.186 28.2549V33.3004H358.938ZM375.269 33.4686C374.487 33.4686 373.813 33.2969 373.246 32.9535C372.682 32.6067 372.248 32.1231 371.941 31.503C371.638 30.8793 371.487 30.154 371.487 29.3271C371.487 28.5003 371.638 27.7714 371.941 27.1407C372.248 26.5065 372.673 26.0125 373.219 25.6587C373.769 25.3012 374.41 25.1226 375.142 25.1226C375.565 25.1226 375.982 25.1927 376.394 25.3328C376.806 25.4729 377.181 25.7007 377.52 26.016C377.857 26.3279 378.126 26.7413 378.327 27.2564C378.528 27.7714 378.628 28.4056 378.628 29.1589V29.6845H372.374V28.6124H377.361C377.361 28.1568 377.269 27.7504 377.086 27.393C376.907 27.0356 376.649 26.7536 376.315 26.5469C375.984 26.3401 375.593 26.2367 375.142 26.2367C374.646 26.2367 374.216 26.3594 373.854 26.6047C373.494 26.8464 373.218 27.1617 373.024 27.5507C372.83 27.9396 372.733 28.3565 372.733 28.8016V29.5163C372.733 30.126 372.839 30.6428 373.05 31.0667C373.265 31.4872 373.563 31.8078 373.943 32.0285C374.324 32.2458 374.765 32.3544 375.269 32.3544C375.596 32.3544 375.892 32.3088 376.156 32.2177C376.424 32.1231 376.655 31.983 376.849 31.7973C377.042 31.6081 377.191 31.3733 377.297 31.093L378.502 31.4294C378.375 31.8358 378.162 32.1932 377.862 32.5016C377.563 32.8064 377.194 33.0447 376.753 33.2163C376.313 33.3845 375.819 33.4686 375.269 33.4686ZM382.384 31.8288L382.3 32.3964C382.24 32.7959 382.149 33.2233 382.025 33.6788C381.905 34.1343 381.78 34.5635 381.65 34.9664C381.519 35.3694 381.412 35.69 381.327 35.9282H380.377C380.423 35.704 380.483 35.4079 380.556 35.0401C380.631 34.6721 380.704 34.2604 380.779 33.8049C380.856 33.353 380.919 32.8905 380.968 32.4174L381.032 31.8288H382.384ZM392.174 33.4686C391.413 33.4686 390.758 33.2899 390.209 32.9325C389.659 32.5751 389.237 32.0828 388.941 31.4557C388.645 30.8285 388.497 30.112 388.497 29.3061C388.497 28.4862 388.649 27.7627 388.952 27.1355C389.258 26.5048 389.684 26.0125 390.229 25.6587C390.779 25.3012 391.42 25.1226 392.153 25.1226C392.723 25.1226 393.237 25.2277 393.695 25.4379C394.153 25.6481 394.528 25.9424 394.82 26.3209C395.112 26.6992 395.294 27.1407 395.364 27.6453H394.118C394.023 27.2774 393.811 26.9516 393.483 26.6677C393.16 26.3804 392.723 26.2367 392.174 26.2367C391.688 26.2367 391.262 26.3629 390.895 26.6152C390.533 26.864 390.25 27.2161 390.045 27.6716C389.844 28.1236 389.744 28.6544 389.744 29.2641C389.744 29.8878 389.843 30.4308 390.04 30.8933C390.241 31.3558 390.522 31.715 390.885 31.9707C391.251 32.2265 391.68 32.3544 392.174 32.3544C392.498 32.3544 392.792 32.2983 393.056 32.1862C393.32 32.0741 393.544 31.9129 393.727 31.7027C393.91 31.4924 394.04 31.2402 394.118 30.9459H395.364C395.294 31.4224 395.12 31.8516 394.841 32.2335C394.566 32.6119 394.202 32.9132 393.748 33.1375C393.297 33.3582 392.772 33.4686 392.174 33.4686ZM398.433 22.5367V33.3004H397.186V22.5367H398.433ZM400.716 33.3004V25.2277H401.963V33.3004H400.716ZM401.351 23.8822C401.108 23.8822 400.898 23.7999 400.722 23.6352C400.549 23.4705 400.463 23.2726 400.463 23.0413C400.463 22.8101 400.549 22.6121 400.722 22.4474C400.898 22.2828 401.108 22.2004 401.351 22.2004C401.593 22.2004 401.801 22.2828 401.974 22.4474C402.15 22.6121 402.238 22.8101 402.238 23.0413C402.238 23.2726 402.15 23.4705 401.974 23.6352C401.801 23.7999 401.593 23.8822 401.351 23.8822ZM407.542 33.4686C406.782 33.4686 406.127 33.2899 405.577 32.9325C405.029 32.5751 404.605 32.0828 404.31 31.4557C404.014 30.8285 403.866 30.112 403.866 29.3061C403.866 28.4862 404.018 27.7627 404.321 27.1355C404.627 26.5048 405.053 26.0125 405.599 25.6587C406.148 25.3012 406.789 25.1226 407.522 25.1226C408.092 25.1226 408.606 25.2277 409.064 25.4379C409.522 25.6481 409.896 25.9424 410.189 26.3209C410.481 26.6992 410.663 27.1407 410.733 27.6453H409.487C409.391 27.2774 409.18 26.9516 408.853 26.6677C408.529 26.3804 408.092 26.2367 407.542 26.2367C407.057 26.2367 406.631 26.3629 406.264 26.6152C405.902 26.864 405.618 27.2161 405.414 27.6716C405.213 28.1236 405.113 28.6544 405.113 29.2641C405.113 29.8878 405.212 30.4308 405.409 30.8933C405.609 31.3558 405.891 31.715 406.254 31.9707C406.62 32.2265 407.049 32.3544 407.542 32.3544C407.867 32.3544 408.161 32.2983 408.425 32.1862C408.689 32.0741 408.912 31.9129 409.095 31.7027C409.278 31.4924 409.409 31.2402 409.487 30.9459H410.733C410.663 31.4224 410.488 31.8516 410.21 32.2335C409.936 32.6119 409.571 32.9132 409.117 33.1375C408.666 33.3582 408.141 33.4686 407.542 33.4686ZM413.718 30.3572L413.696 28.8226H413.95L417.5 25.2277H419.042L415.26 29.0328H415.155L413.718 30.3572ZM412.555 33.3004V22.5367H413.802V33.3004H412.555ZM417.711 33.3004L414.542 29.3061L415.429 28.4442L419.296 33.3004H417.711ZM428.126 33.4686C427.394 33.4686 426.751 33.2952 426.199 32.9482C425.649 32.6014 425.219 32.1161 424.91 31.4924C424.603 30.8688 424.45 30.14 424.45 29.3061C424.45 28.4652 424.603 27.7312 424.91 27.1039C425.219 26.4768 425.649 25.9897 426.199 25.6429C426.751 25.296 427.394 25.1226 428.126 25.1226C428.859 25.1226 429.5 25.296 430.049 25.6429C430.602 25.9897 431.032 26.4768 431.338 27.1039C431.648 27.7312 431.803 28.4652 431.803 29.3061C431.803 30.14 431.648 30.8688 431.338 31.4924C431.032 32.1161 430.602 32.6014 430.049 32.9482C429.5 33.2952 428.859 33.4686 428.126 33.4686ZM428.126 32.3544C428.683 32.3544 429.141 32.2125 429.5 31.9287C429.859 31.6449 430.125 31.2717 430.298 30.8092C430.47 30.3467 430.556 29.8456 430.556 29.3061C430.556 28.7665 430.47 28.2637 430.298 27.7977C430.125 27.3317 429.859 26.9551 429.5 26.6677C429.141 26.3804 428.683 26.2367 428.126 26.2367C427.57 26.2367 427.112 26.3804 426.753 26.6677C426.394 26.9551 426.128 27.3317 425.955 27.7977C425.783 28.2637 425.697 28.7665 425.697 29.3061C425.697 29.8456 425.783 30.3467 425.955 30.8092C426.128 31.2717 426.394 31.6449 426.753 31.9287C427.112 32.2125 427.57 32.3544 428.126 32.3544ZM434.953 28.4442V33.3004H433.706V25.2277H434.91V26.4891H435.016C435.206 26.0791 435.495 25.7497 435.882 25.501C436.27 25.2487 436.77 25.1226 437.382 25.1226C437.932 25.1226 438.413 25.2347 438.825 25.4589C439.237 25.6797 439.557 26.016 439.786 26.468C440.015 26.9165 440.129 27.4842 440.129 28.1709V33.3004H438.883V28.2549C438.883 27.6208 438.717 27.1267 438.386 26.7729C438.055 26.4155 437.6 26.2367 437.023 26.2367C436.625 26.2367 436.27 26.3226 435.956 26.4943C435.647 26.666 435.402 26.9165 435.222 27.2459C435.043 27.5753 434.953 27.9746 434.953 28.4442ZM21.824 43.6604V42.7144C21.824 42.4271 21.8751 42.1222 21.9772 41.7999C22.0828 41.4741 22.2343 41.1605 22.4315 40.8591C22.6322 40.5543 22.8734 40.2898 23.1552 40.0655L23.8313 40.6121C23.6094 40.9274 23.4158 41.2568 23.2502 41.6002C23.0882 41.9401 23.0072 42.3044 23.0072 42.6934V43.6604H21.824ZM28.7174 51.0604H25.379V40.2967H28.8653C29.9147 40.2967 30.8127 40.5122 31.5593 40.9432C32.3059 41.3707 32.8781 41.9856 33.276 42.788C33.674 43.5869 33.873 44.5434 33.873 45.6576C33.873 46.7788 33.6722 47.7441 33.2708 48.5534C32.8694 49.3593 32.2848 49.9795 31.5171 50.414C30.7494 50.8449 29.8161 51.0604 28.7174 51.0604ZM26.689 49.9042H28.6329C29.5274 49.9042 30.2687 49.7325 30.8568 49.3891C31.4449 49.0458 31.8833 48.557 32.1721 47.9227C32.4608 47.2886 32.6052 46.5335 32.6052 45.6576C32.6052 44.7886 32.4626 44.0405 32.1774 43.4134C31.8921 42.7827 31.466 42.2992 30.899 41.9629C30.3321 41.623 29.626 41.453 28.7808 41.453H26.689V49.9042ZM39.3032 51.2286C38.5214 51.2286 37.8471 51.0569 37.2801 50.7135C36.7166 50.3667 36.2817 49.8831 35.9753 49.263C35.6725 48.6393 35.521 47.914 35.521 47.0871C35.521 46.2603 35.6725 45.5314 35.9753 44.9007C36.2817 44.2665 36.7078 43.7725 37.2536 43.4187C37.803 43.0612 38.4439 42.8826 39.1764 42.8826C39.599 42.8826 40.0163 42.9527 40.4283 43.0928C40.8403 43.2329 41.2154 43.4607 41.5535 43.776C41.8915 44.0879 42.1609 44.5013 42.3616 45.0164C42.5624 45.5314 42.6628 46.1656 42.6628 46.9189V47.4445H36.4085V46.3724H41.395C41.395 45.9168 41.3034 45.5104 41.1203 45.153C40.9407 44.7956 40.6836 44.5136 40.3491 44.3069C40.0181 44.1001 39.6271 43.9967 39.1764 43.9967C38.6799 43.9967 38.2502 44.1194 37.8875 44.3647C37.5284 44.6064 37.2519 44.9217 37.0582 45.3107C36.8645 45.6996 36.7676 46.1165 36.7676 46.5616V47.2763C36.7676 47.886 36.8733 48.4028 37.0846 48.8267C37.2994 49.2472 37.597 49.5678 37.9774 49.7885C38.3576 50.0058 38.7996 50.1144 39.3032 50.1144C39.6307 50.1144 39.9265 50.0688 40.1906 49.9777C40.4583 49.8831 40.6889 49.743 40.8826 49.5573C41.0763 49.3681 41.226 49.1333 41.3316 48.853L42.5359 49.1894C42.4092 49.5958 42.1961 49.9532 41.8968 50.2616C41.5975 50.5664 41.2277 50.8047 40.7875 50.9763C40.3473 51.1445 39.8526 51.2286 39.3032 51.2286ZM45.8057 40.2967V51.0604H44.5591V40.2967H45.8057ZM51.4908 51.2286C50.709 51.2286 50.0347 51.0569 49.4677 50.7135C48.9042 50.3667 48.4693 49.8831 48.1629 49.263C47.8601 48.6393 47.7087 47.914 47.7087 47.0871C47.7087 46.2603 47.8601 45.5314 48.1629 44.9007C48.4693 44.2665 48.8955 43.7725 49.4413 43.4187C49.9906 43.0612 50.6315 42.8826 51.364 42.8826C51.7866 42.8826 52.204 42.9527 52.6159 43.0928C53.028 43.2329 53.403 43.4607 53.7411 43.776C54.0792 44.0879 54.3486 44.5013 54.5493 45.0164C54.75 45.5314 54.8504 46.1656 54.8504 46.9189V47.4445H48.5961V46.3724H53.5826C53.5826 45.9168 53.491 45.5104 53.3079 45.153C53.1284 44.7956 52.8712 44.5136 52.5367 44.3069C52.2057 44.1001 51.8148 43.9967 51.364 43.9967C50.8675 43.9967 50.4378 44.1194 50.0751 44.3647C49.716 44.6064 49.4395 44.9217 49.2458 45.3107C49.0522 45.6996 48.9553 46.1165 48.9553 46.5616V47.2763C48.9553 47.886 49.0609 48.4028 49.2722 48.8267C49.487 49.2472 49.7846 49.5678 50.165 49.7885C50.5452 50.0058 50.9873 50.1144 51.4908 50.1144C51.8183 50.1144 52.1141 50.0688 52.3782 49.9777C52.6459 49.8831 52.8765 49.743 53.0702 49.5573C53.2639 49.3681 53.4136 49.1333 53.5192 48.853L54.7236 49.1894C54.5968 49.5958 54.3837 49.9532 54.0845 50.2616C53.7851 50.5664 53.4153 50.8047 52.9751 50.9763C52.5349 51.1445 52.0402 51.2286 51.4908 51.2286ZM60.2753 42.9877V44.0388H56.0706V42.9877H60.2753ZM57.296 41.0536H58.5427V48.7479C58.5427 49.0983 58.5937 49.3611 58.6958 49.5362C58.8015 49.7079 58.9353 49.8236 59.0973 49.8831C59.2629 49.9392 59.4371 49.9672 59.6203 49.9672C59.7576 49.9672 59.8703 49.9603 59.9584 49.9462C60.0464 49.9287 60.1169 49.9147 60.1697 49.9042L60.4232 51.0184C60.3387 51.0499 60.2207 51.0814 60.0693 51.113C59.9178 51.148 59.7259 51.1655 59.4935 51.1655C59.1414 51.1655 58.7963 51.0902 58.4581 50.9395C58.1236 50.7888 57.8454 50.5594 57.6236 50.251C57.4052 49.9427 57.296 49.5538 57.296 49.0842V41.0536ZM65.4652 51.2286C64.6834 51.2286 64.009 51.0569 63.442 50.7135C62.8786 50.3667 62.4437 49.8831 62.1373 49.263C61.8345 48.6393 61.683 47.914 61.683 47.0871C61.683 46.2603 61.8345 45.5314 62.1373 44.9007C62.4437 44.2665 62.8698 43.7725 63.4156 43.4187C63.965 43.0612 64.6059 42.8826 65.3384 42.8826C65.761 42.8826 66.1783 42.9527 66.5903 43.0928C67.0023 43.2329 67.3773 43.4607 67.7155 43.776C68.0535 44.0879 68.3229 44.5013 68.5236 45.0164C68.7244 45.5314 68.8248 46.1656 68.8248 46.9189V47.4445H62.5705V46.3724H67.557C67.557 45.9168 67.4654 45.5104 67.2823 45.153C67.1027 44.7956 66.8456 44.5136 66.5111 44.3069C66.1801 44.1001 65.7891 43.9967 65.3384 43.9967C64.8418 43.9967 64.4122 44.1194 64.0495 44.3647C63.6903 44.6064 63.4139 44.9217 63.2202 45.3107C63.0265 45.6996 62.9296 46.1165 62.9296 46.5616V47.2763C62.9296 47.886 63.0353 48.4028 63.2466 48.8267C63.4614 49.2472 63.759 49.5678 64.1393 49.7885C64.5196 50.0058 64.9616 50.1144 65.4652 50.1144C65.7927 50.1144 66.0885 50.0688 66.3526 49.9777C66.6202 49.8831 66.8509 49.743 67.0446 49.5573C67.2383 49.3681 67.3879 49.1333 67.4936 48.853L68.6979 49.1894C68.5711 49.5958 68.3581 49.9532 68.0588 50.2616C67.7595 50.5664 67.3897 50.8047 66.9495 50.9763C66.5093 51.1445 66.0145 51.2286 65.4652 51.2286ZM80.9901 42.9877C80.9262 42.4551 80.6696 42.0417 80.2189 41.7474C79.7681 41.453 79.2148 41.3059 78.5603 41.3059C78.0811 41.3059 77.6621 41.3829 77.3028 41.5371C76.9472 41.6913 76.6689 41.9033 76.4682 42.1731C76.271 42.4428 76.1724 42.7494 76.1724 43.0928C76.1724 43.3801 76.2411 43.6271 76.3784 43.8339C76.5193 44.0371 76.6989 44.207 76.9172 44.3437C77.1356 44.4768 77.3645 44.5872 77.6039 44.6747C77.8434 44.7589 78.0635 44.8272 78.2642 44.8797L79.3628 45.1741C79.6447 45.2476 79.9578 45.3492 80.3029 45.4789C80.6517 45.6085 80.9849 45.7855 81.3018 46.0097C81.6223 46.2304 81.8863 46.5142 82.0938 46.8611C82.3014 47.208 82.4055 47.6337 82.4055 48.1382C82.4055 48.7199 82.2523 49.2454 81.9458 49.7149C81.6431 50.1845 81.1991 50.5576 80.6145 50.8344C80.0337 51.1113 79.3278 51.2496 78.4963 51.2496C77.7219 51.2496 77.0511 51.1252 76.4841 50.8765C75.9207 50.6277 75.4769 50.2808 75.153 49.8359C74.8325 49.3908 74.6511 48.8741 74.6088 48.2854H75.9611C75.9964 48.6918 76.1337 49.0282 76.3731 49.2945C76.6161 49.5573 76.9225 49.7535 77.2923 49.8831C77.6656 50.0092 78.067 50.0724 78.4963 50.0724C78.9969 50.0724 79.4454 49.9918 79.8433 49.8306C80.2419 49.6659 80.5565 49.4382 80.7893 49.1474C81.0214 48.853 81.1381 48.5096 81.1381 48.1172C81.1381 47.7599 81.0377 47.469 80.8369 47.2448C80.6361 47.0205 80.3721 46.8383 80.0441 46.6982C79.7168 46.558 79.3628 46.4354 78.9827 46.3303L77.6515 45.9519C76.8063 45.7101 76.1372 45.365 75.6442 44.9165C75.1512 44.468 74.9047 43.8812 74.9047 43.1559C74.9047 42.5532 75.0684 42.0277 75.3959 41.5792C75.727 41.1272 76.1707 40.7768 76.7271 40.528C77.287 40.2757 77.912 40.1496 78.6019 40.1496C79.2996 40.1496 79.9191 40.274 80.4613 40.5227C81.0043 40.768 81.4334 41.1044 81.7502 41.5319C82.0708 41.9593 82.2404 42.4446 82.2575 42.9877H80.9901ZM87.9189 42.9877V44.0388H83.7145V42.9877H87.9189ZM84.9394 41.0536H86.1867V48.7479C86.1867 49.0983 86.2373 49.3611 86.3399 49.5362C86.4455 49.7079 86.5787 49.8236 86.7408 49.8831C86.9067 49.9392 87.0807 49.9672 87.2637 49.9672C87.4013 49.9672 87.5143 49.9603 87.6021 49.9462C87.6898 49.9287 87.7605 49.9147 87.8133 49.9042L88.0669 51.0184C87.9821 51.0499 87.8646 51.0814 87.7129 51.113C87.5619 51.148 87.3693 51.1655 87.1372 51.1655C86.7847 51.1655 86.4396 51.0902 86.1019 50.9395C85.7672 50.7888 85.4891 50.5594 85.2674 50.251C85.0488 49.9427 84.9394 49.5538 84.9394 49.0842V41.0536ZM94.9072 47.7599V42.9877H96.1544V51.0604H94.9072V49.6939H94.8231C94.6327 50.1039 94.3367 50.4525 93.9358 50.7398C93.5342 51.0236 93.027 51.1655 92.4141 51.1655C91.9069 51.1655 91.4562 51.0552 91.062 50.8344C90.6678 50.6102 90.3577 50.2738 90.1323 49.8254C89.9069 49.3734 89.7939 48.804 89.7939 48.1172V42.9877H91.0412V48.0331C91.0412 48.6217 91.2063 49.0913 91.5372 49.4417C91.8719 49.7921 92.2981 49.9672 92.8157 49.9672C93.1259 49.9672 93.4405 49.8884 93.7611 49.7307C94.0853 49.5731 94.3561 49.3313 94.5747 49.0054C94.7964 48.6796 94.9072 48.2644 94.9072 47.7599ZM101.501 51.2286C100.825 51.2286 100.228 51.0586 99.7103 50.7188C99.1927 50.3754 98.7881 49.8919 98.4958 49.2682C98.2035 48.6411 98.057 47.9 98.057 47.0451C98.057 46.1971 98.2035 45.4613 98.4958 44.8377C98.7881 44.214 99.1941 43.7323 99.7155 43.3924C100.237 43.0525 100.839 42.8826 101.522 42.8826C102.05 42.8826 102.468 42.9701 102.774 43.1454C103.084 43.3171 103.32 43.5132 103.482 43.734C103.648 43.9512 103.776 44.1299 103.868 44.2701H103.973V40.2967H105.22V51.0604H104.015V49.8201H103.868C103.776 49.9672 103.645 50.1529 103.477 50.3772C103.308 50.5979 103.066 50.7959 102.753 50.9711C102.44 51.1428 102.023 51.2286 101.501 51.2286ZM101.67 50.1144C102.17 50.1144 102.593 49.9847 102.938 49.7255C103.283 49.4627 103.545 49.1001 103.725 48.6376C103.904 48.1715 103.994 47.6337 103.994 47.0241C103.994 46.4214 103.907 45.8941 103.73 45.4421C103.554 44.9866 103.294 44.6327 102.949 44.3804C102.603 44.1247 102.177 43.9967 101.67 43.9967C101.142 43.9967 100.702 44.1316 100.35 44.4014C100.001 44.6678 99.7386 45.0304 99.5623 45.4894C99.3898 45.9449 99.3035 46.4564 99.3035 47.0241C99.3035 47.5987 99.392 48.1208 99.5675 48.5902C99.7475 49.0563 100.012 49.4277 100.36 49.7044C100.712 49.9777 101.149 50.1144 101.67 50.1144ZM111.078 51.2286C110.296 51.2286 109.622 51.0569 109.055 50.7135C108.491 50.3667 108.057 49.8831 107.75 49.263C107.448 48.6393 107.296 47.914 107.296 47.0871C107.296 46.2603 107.448 45.5314 107.75 44.9007C108.057 44.2665 108.483 43.7725 109.029 43.4187C109.578 43.0612 110.219 42.8826 110.951 42.8826C111.374 42.8826 111.791 42.9527 112.203 43.0928C112.615 43.2329 112.99 43.4607 113.328 43.776C113.666 44.0879 113.936 44.5013 114.136 45.0164C114.337 45.5314 114.437 46.1656 114.437 46.9189V47.4445H108.183V46.3724H113.17C113.17 45.9168 113.078 45.5104 112.895 45.153C112.716 44.7956 112.458 44.5136 112.123 44.3069C111.793 44.1001 111.402 43.9967 110.951 43.9967C110.455 43.9967 110.025 44.1194 109.662 44.3647C109.303 44.6064 109.027 44.9217 108.833 45.3107C108.639 45.6996 108.542 46.1165 108.542 46.5616V47.2763C108.542 47.886 108.648 48.4028 108.859 48.8267C109.074 49.2472 109.372 49.5678 109.752 49.7885C110.132 50.0058 110.574 50.1144 111.078 50.1144C111.406 50.1144 111.701 50.0688 111.965 49.9777C112.233 49.8831 112.463 49.743 112.658 49.5573C112.851 49.3681 113 49.1333 113.107 48.853L114.311 49.1894C114.184 49.5958 113.971 49.9532 113.671 50.2616C113.372 50.5664 113.003 50.8047 112.562 50.9763C112.122 51.1445 111.627 51.2286 111.078 51.2286ZM117.58 46.2042V51.0604H116.334V42.9877H117.538V44.2491H117.644C117.834 43.8391 118.123 43.5097 118.51 43.261C118.898 43.0087 119.397 42.8826 120.01 42.8826C120.56 42.8826 121.04 42.9947 121.452 43.2189C121.864 43.4397 122.185 43.776 122.414 44.228C122.642 44.6765 122.757 45.2442 122.757 45.9309V51.0604H121.51V46.0149C121.51 45.3808 121.345 44.8867 121.014 44.5329C120.683 44.1755 120.229 43.9967 119.651 43.9967C119.253 43.9967 118.898 44.0826 118.584 44.2543C118.274 44.426 118.03 44.6765 117.85 45.0059C117.67 45.3353 117.58 45.7346 117.58 46.2042ZM128.564 42.9877V44.0388H124.359V42.9877H128.564ZM125.585 41.0536H126.831V48.7479C126.831 49.0983 126.882 49.3611 126.984 49.5362C127.09 49.7079 127.224 49.8236 127.386 49.8831C127.551 49.9392 127.726 49.9672 127.909 49.9672C128.046 49.9672 128.159 49.9603 128.247 49.9462C128.335 49.9287 128.405 49.9147 128.458 49.9042L128.711 51.0184C128.627 51.0499 128.509 51.0814 128.358 51.113C128.206 51.148 128.014 51.1655 127.782 51.1655C127.43 51.1655 127.085 51.0902 126.746 50.9395C126.412 50.7888 126.134 50.5594 125.912 50.251C125.694 49.9427 125.585 49.5538 125.585 49.0842V41.0536ZM131.959 40.2967V41.2428C131.959 41.5301 131.906 41.8367 131.8 42.1626C131.698 42.4849 131.547 42.7985 131.346 43.1033C131.149 43.4047 130.91 43.6674 130.628 43.8917L129.952 43.3451C130.174 43.0297 130.365 42.7021 130.528 42.3622C130.693 42.0189 130.776 41.6527 130.776 41.2638V40.2967H131.959ZM140.177 51.2496C139.663 51.2496 139.196 51.1533 138.777 50.9606C138.358 50.7643 138.025 50.4823 137.778 50.1144C137.532 49.743 137.409 49.2945 137.409 48.7689C137.409 48.3064 137.5 47.9315 137.684 47.6442C137.867 47.3534 138.112 47.1257 138.418 46.961C138.724 46.7963 139.062 46.6737 139.432 46.5931C139.805 46.509 140.181 46.4424 140.557 46.3934C141.05 46.3303 141.45 46.283 141.756 46.2514C142.066 46.2164 142.291 46.1586 142.433 46.078C142.577 45.9974 142.649 45.8572 142.649 45.6576V45.6155C142.649 45.097 142.506 44.694 142.221 44.4067C141.94 44.1194 141.511 43.9757 140.938 43.9757C140.342 43.9757 139.876 44.1054 139.538 44.3647C139.2 44.624 138.962 44.9007 138.825 45.1951L137.642 44.7746C137.853 44.2841 138.135 43.9022 138.486 43.6289C138.842 43.3521 139.229 43.1594 139.649 43.0507C140.071 42.9386 140.487 42.8826 140.895 42.8826C141.156 42.8826 141.456 42.9141 141.793 42.9772C142.135 43.0367 142.464 43.1611 142.781 43.3504C143.101 43.5395 143.368 43.8251 143.579 44.207C143.79 44.5889 143.896 45.1005 143.896 45.7417V51.0604H142.649V49.9672H142.586C142.501 50.1424 142.36 50.3299 142.163 50.5296C141.966 50.7293 141.703 50.8992 141.376 51.0394C141.049 51.1796 140.649 51.2496 140.177 51.2496ZM140.367 50.1354C140.86 50.1354 141.276 50.0391 141.614 49.8464C141.955 49.6537 142.213 49.4049 142.385 49.1001C142.561 48.7952 142.649 48.4746 142.649 48.1382V47.003C142.596 47.0661 142.48 47.1239 142.3 47.1764C142.124 47.2255 141.92 47.2693 141.688 47.3079C141.458 47.3429 141.235 47.3744 141.017 47.4024C140.802 47.427 140.628 47.448 140.494 47.4655C140.17 47.5076 139.867 47.5759 139.585 47.6705C139.307 47.7616 139.081 47.9 138.909 48.0857C138.74 48.2679 138.655 48.5167 138.655 48.832C138.655 49.263 138.816 49.5888 139.136 49.8096C139.46 50.0268 139.871 50.1354 140.367 50.1354ZM147.417 46.2042V51.0604H146.171V42.9877H147.376V44.2491H147.481C147.671 43.8391 147.96 43.5097 148.347 43.261C148.735 43.0087 149.235 42.8826 149.847 42.8826C150.397 42.8826 150.877 42.9947 151.289 43.2189C151.701 43.4397 152.022 43.776 152.251 44.228C152.48 44.6765 152.595 45.2442 152.595 45.9309V51.0604H151.347V46.0149C151.347 45.3808 151.182 44.8867 150.851 44.5329C150.52 44.1755 150.066 43.9967 149.488 43.9967C149.09 43.9967 148.735 44.0826 148.421 44.2543C148.111 44.426 147.867 44.6765 147.687 45.0059C147.507 45.3353 147.417 45.7346 147.417 46.2042ZM157.936 51.2286C157.26 51.2286 156.663 51.0586 156.145 50.7188C155.628 50.3754 155.223 49.8919 154.931 49.2682C154.638 48.6411 154.492 47.9 154.492 47.0451C154.492 46.1971 154.638 45.4613 154.931 44.8377C155.223 44.214 155.629 43.7323 156.151 43.3924C156.672 43.0525 157.274 42.8826 157.957 42.8826C158.485 42.8826 158.902 42.9701 159.209 43.1454C159.519 43.3171 159.755 43.5132 159.917 43.734C160.083 43.9512 160.211 44.1299 160.303 44.2701H160.408V40.2967H161.655V51.0604H160.45V49.8201H160.303C160.211 49.9672 160.08 50.1529 159.912 50.3772C159.743 50.5979 159.501 50.7959 159.188 50.9711C158.875 51.1428 158.457 51.2286 157.936 51.2286ZM158.105 50.1144C158.605 50.1144 159.028 49.9847 159.373 49.7255C159.718 49.4627 159.98 49.1001 160.16 48.6376C160.339 48.1715 160.429 47.6337 160.429 47.0241C160.429 46.4214 160.342 45.8941 160.165 45.4421C159.989 44.9866 159.729 44.6327 159.384 44.3804C159.038 44.1247 158.612 43.9967 158.105 43.9967C157.577 43.9967 157.137 44.1316 156.784 44.4014C156.436 44.6678 156.174 45.0304 155.997 45.4894C155.825 45.9449 155.738 46.4564 155.738 47.0241C155.738 47.5987 155.827 48.1208 156.003 48.5902C156.182 49.0563 156.447 49.4277 156.795 49.7044C157.147 49.9777 157.584 50.1144 158.105 50.1144ZM170.683 51.2496C170.168 51.2496 169.702 51.1533 169.282 50.9606C168.863 50.7643 168.531 50.4823 168.284 50.1144C168.038 49.743 167.914 49.2945 167.914 48.7689C167.914 48.3064 168.006 47.9315 168.189 47.6442C168.372 47.3534 168.617 47.1257 168.923 46.961C169.229 46.7963 169.568 46.6737 169.937 46.5931C170.311 46.509 170.686 46.4424 171.063 46.3934C171.556 46.3303 171.955 46.283 172.262 46.2514C172.572 46.2164 172.797 46.1586 172.938 46.078C173.082 45.9974 173.154 45.8572 173.154 45.6576V45.6155C173.154 45.097 173.012 44.694 172.726 44.4067C172.445 44.1194 172.017 43.9757 171.443 43.9757C170.848 43.9757 170.381 44.1054 170.043 44.3647C169.705 44.624 169.467 44.9007 169.33 45.1951L168.146 44.7746C168.358 44.2841 168.64 43.9022 168.992 43.6289C169.348 43.3521 169.735 43.1594 170.154 43.0507C170.576 42.9386 170.992 42.8826 171.4 42.8826C171.661 42.8826 171.96 42.9141 172.299 42.9772C172.64 43.0367 172.97 43.1611 173.287 43.3504C173.607 43.5395 173.873 43.8251 174.084 44.207C174.295 44.5889 174.401 45.1005 174.401 45.7417V51.0604H173.154V49.9672H173.091C173.007 50.1424 172.866 50.3299 172.668 50.5296C172.471 50.7293 172.209 50.8992 171.882 51.0394C171.554 51.1796 171.154 51.2496 170.683 51.2496ZM170.872 50.1354C171.365 50.1354 171.781 50.0391 172.119 49.8464C172.461 49.6537 172.718 49.4049 172.89 49.1001C173.066 48.7952 173.154 48.4746 173.154 48.1382V47.003C173.101 47.0661 172.985 47.1239 172.806 47.1764C172.63 47.2255 172.425 47.2693 172.193 47.3079C171.964 47.3429 171.74 47.3744 171.522 47.4024C171.307 47.427 171.133 47.448 170.999 47.4655C170.675 47.5076 170.372 47.5759 170.091 47.6705C169.812 47.7616 169.587 47.9 169.415 48.0857C169.246 48.2679 169.161 48.5167 169.161 48.832C169.161 49.263 169.321 49.5888 169.641 49.8096C169.966 50.0268 170.376 50.1354 170.872 50.1354ZM179.74 51.2286C179.064 51.2286 178.467 51.0586 177.949 50.7188C177.431 50.3754 177.027 49.8919 176.735 49.2682C176.442 48.6411 176.296 47.9 176.296 47.0451C176.296 46.1971 176.442 45.4613 176.735 44.8377C177.027 44.214 177.434 43.7323 177.955 43.3924C178.476 43.0525 179.078 42.8826 179.762 42.8826C180.29 42.8826 180.707 42.9701 181.013 43.1454C181.323 43.3171 181.559 43.5132 181.721 43.734C181.886 43.9512 182.015 44.1299 182.107 44.2701H182.212V40.2967H183.459V51.0604H182.255V49.8201H182.107C182.015 49.9672 181.885 50.1529 181.715 50.3772C181.547 50.5979 181.306 50.7959 180.992 50.9711C180.679 51.1428 180.261 51.2286 179.74 51.2286ZM179.909 50.1144C180.409 50.1144 180.832 49.9847 181.177 49.7255C181.522 49.4627 181.785 49.1001 181.964 48.6376C182.144 48.1715 182.233 47.6337 182.233 47.0241C182.233 46.4214 182.145 45.8941 181.969 45.4421C181.794 44.9866 181.532 44.6327 181.187 44.3804C180.842 44.1247 180.416 43.9967 179.909 43.9967C179.381 43.9967 178.941 44.1316 178.589 44.4014C178.24 44.6678 177.977 45.0304 177.802 45.4894C177.629 45.9449 177.543 46.4564 177.543 47.0241C177.543 47.5987 177.631 48.1208 177.807 48.5902C177.986 49.0563 178.25 49.4277 178.599 49.7044C178.952 49.9777 179.388 50.1144 179.909 50.1144ZM188.979 51.2286C188.303 51.2286 187.706 51.0586 187.188 50.7188C186.67 50.3754 186.266 49.8919 185.973 49.2682C185.681 48.6411 185.535 47.9 185.535 47.0451C185.535 46.1971 185.681 45.4613 185.973 44.8377C186.266 44.214 186.673 43.7323 187.193 43.3924C187.715 43.0525 188.317 42.8826 189 42.8826C189.529 42.8826 189.946 42.9701 190.252 43.1454C190.562 43.3171 190.798 43.5132 190.959 43.734C191.125 43.9512 191.254 44.1299 191.346 44.2701H191.451V40.2967H192.698V51.0604H191.494V49.8201H191.346C191.254 49.9672 191.124 50.1529 190.954 50.3772C190.785 50.5979 190.544 50.7959 190.231 50.9711C189.918 51.1428 189.5 51.2286 188.979 51.2286ZM189.148 50.1144C189.648 50.1144 190.071 49.9847 190.416 49.7255C190.761 49.4627 191.023 49.1001 191.203 48.6376C191.383 48.1715 191.472 47.6337 191.472 47.0241C191.472 46.4214 191.384 45.8941 191.208 45.4421C191.032 44.9866 190.771 44.6327 190.426 44.3804C190.081 44.1247 189.655 43.9967 189.148 43.9967C188.62 43.9967 188.179 44.1316 187.828 44.4014C187.479 44.6678 187.216 45.0304 187.04 45.4894C186.867 45.9449 186.781 46.4564 186.781 47.0241C186.781 47.5987 186.87 48.1208 187.046 48.5902C187.225 49.0563 187.489 49.4277 187.838 49.7044C188.19 49.9777 188.627 50.1144 189.148 50.1144ZM202.866 42.9877V44.0388H198.661V42.9877H202.866ZM199.887 41.0536H201.133V48.7479C201.133 49.0983 201.185 49.3611 201.286 49.5362C201.392 49.7079 201.526 49.8236 201.688 49.8831C201.854 49.9392 202.028 49.9672 202.211 49.9672C202.349 49.9672 202.461 49.9603 202.549 49.9462C202.637 49.9287 202.708 49.9147 202.761 49.9042L203.014 51.0184C202.929 51.0499 202.811 51.0814 202.66 51.113C202.508 51.148 202.317 51.1655 202.085 51.1655C201.732 51.1655 201.387 51.0902 201.049 50.9395C200.715 50.7888 200.436 50.5594 200.215 50.251C199.996 49.9427 199.887 49.5538 199.887 49.0842V41.0536ZM206.162 46.2042V51.0604H204.916V40.2967H206.162V44.2491H206.268C206.458 43.8321 206.743 43.501 207.123 43.2557C207.507 43.007 208.018 42.8826 208.656 42.8826C209.208 42.8826 209.692 42.9929 210.108 43.2137C210.524 43.4309 210.846 43.7655 211.075 44.2175C211.307 44.666 211.424 45.2371 211.424 45.9309V51.0604H210.177V46.0149C210.177 45.3737 210.01 44.878 209.675 44.5276C209.344 44.1738 208.885 43.9967 208.296 43.9967C207.888 43.9967 207.521 44.0826 207.198 44.2543C206.877 44.426 206.624 44.6765 206.437 45.0059C206.254 45.3353 206.162 45.7346 206.162 46.2042ZM217.106 51.2286C216.324 51.2286 215.65 51.0569 215.083 50.7135C214.519 50.3667 214.084 49.8831 213.778 49.263C213.475 48.6393 213.324 47.914 213.324 47.0871C213.324 46.2603 213.475 45.5314 213.778 44.9007C214.084 44.2665 214.51 43.7725 215.056 43.4187C215.606 43.0612 216.247 42.8826 216.979 42.8826C217.402 42.8826 217.819 42.9527 218.231 43.0928C218.643 43.2329 219.018 43.4607 219.356 43.776C219.694 44.0879 219.964 44.5013 220.164 45.0164C220.365 45.5314 220.466 46.1656 220.466 46.9189V47.4445H214.211V46.3724H219.197C219.197 45.9168 219.106 45.5104 218.923 45.153C218.744 44.7956 218.486 44.5136 218.152 44.3069C217.821 44.1001 217.43 43.9967 216.979 43.9967C216.483 43.9967 216.053 44.1194 215.69 44.3647C215.331 44.6064 215.055 44.9217 214.861 45.3107C214.667 45.6996 214.571 46.1165 214.571 46.5616V47.2763C214.571 47.886 214.676 48.4028 214.887 48.8267C215.102 49.2472 215.4 49.5678 215.78 49.7885C216.161 50.0058 216.603 50.1144 217.106 50.1144C217.433 50.1144 217.729 50.0688 217.993 49.9777C218.261 49.8831 218.492 49.743 218.685 49.5573C218.879 49.3681 219.029 49.1333 219.134 48.853L220.338 49.1894C220.212 49.5958 219.999 49.9532 219.699 50.2616C219.4 50.5664 219.03 50.8047 218.591 50.9763C218.15 51.1445 217.655 51.2286 217.106 51.2286ZM222.362 51.0604V42.9877H223.566V44.2491H223.672C223.841 43.8181 224.114 43.4835 224.491 43.2452C224.867 43.0034 225.32 42.8826 225.848 42.8826C226.384 42.8826 226.829 43.0034 227.185 43.2452C227.544 43.4835 227.823 43.8181 228.024 44.2491H228.109C228.317 43.8321 228.628 43.501 229.044 43.2557C229.46 43.007 229.958 42.8826 230.539 42.8826C231.264 42.8826 231.858 43.1086 232.319 43.5606C232.781 44.009 233.011 44.708 233.011 45.6576V51.0604H231.765V45.6576C231.765 45.0619 231.6 44.6362 231.273 44.3804C230.946 44.1247 230.56 43.9967 230.116 43.9967C229.546 43.9967 229.103 44.1685 228.79 44.5119C228.477 44.8517 228.32 45.2826 228.32 45.8047V51.0604H227.052V45.5314C227.052 45.0724 226.903 44.7028 226.604 44.4225C226.304 44.1387 225.919 43.9967 225.446 43.9967C225.123 43.9967 224.82 44.0826 224.538 44.2543C224.26 44.426 224.035 44.6642 223.862 44.9691C223.693 45.2704 223.609 45.619 223.609 46.0149V51.0604H222.362ZM241.862 51.2496C241.347 51.2496 240.881 51.1533 240.462 50.9606C240.043 50.7643 239.71 50.4823 239.463 50.1144C239.217 49.743 239.093 49.2945 239.093 48.7689C239.093 48.3064 239.185 47.9315 239.368 47.6442C239.552 47.3534 239.796 47.1257 240.103 46.961C240.409 46.7963 240.747 46.6737 241.116 46.5931C241.49 46.509 241.865 46.4424 242.242 46.3934C242.735 46.3303 243.134 46.283 243.441 46.2514C243.751 46.2164 243.976 46.1586 244.117 46.078C244.261 45.9974 244.333 45.8572 244.333 45.6576V45.6155C244.333 45.097 244.191 44.694 243.906 44.4067C243.624 44.1194 243.196 43.9757 242.622 43.9757C242.027 43.9757 241.561 44.1054 241.222 44.3647C240.884 44.624 240.646 44.9007 240.509 45.1951L239.326 44.7746C239.538 44.2841 239.819 43.9022 240.171 43.6289C240.527 43.3521 240.914 43.1594 241.333 43.0507C241.756 42.9386 242.171 42.8826 242.58 42.8826C242.841 42.8826 243.14 42.9141 243.478 42.9772C243.819 43.0367 244.149 43.1611 244.466 43.3504C244.786 43.5395 245.052 43.8251 245.263 44.207C245.475 44.5889 245.58 45.1005 245.58 45.7417V51.0604H244.333V49.9672H244.27C244.186 50.1424 244.045 50.3299 243.848 50.5296C243.65 50.7293 243.388 50.8992 243.061 51.0394C242.733 51.1796 242.333 51.2496 241.862 51.2496ZM242.051 50.1354C242.545 50.1354 242.96 50.0391 243.298 49.8464C243.64 49.6537 243.897 49.4049 244.069 49.1001C244.245 48.7952 244.333 48.4746 244.333 48.1382V47.003C244.28 47.0661 244.164 47.1239 243.985 47.1764C243.809 47.2255 243.604 47.2693 243.372 47.3079C243.143 47.3429 242.919 47.3744 242.701 47.4024C242.486 47.427 242.312 47.448 242.179 47.4655C241.854 47.5076 241.552 47.5759 241.27 47.6705C240.992 47.7616 240.766 47.9 240.594 48.0857C240.425 48.2679 240.34 48.5167 240.34 48.832C240.34 49.263 240.501 49.5888 240.82 49.8096C241.145 50.0268 241.555 50.1354 242.051 50.1354ZM251.13 54.2559C250.529 54.2559 250.011 54.1788 249.577 54.0246C249.145 53.874 248.784 53.6742 248.495 53.4255C248.21 53.1802 247.982 52.9174 247.813 52.6371L248.806 51.9434C248.919 52.0905 249.062 52.2587 249.235 52.4479C249.407 52.6406 249.643 52.807 249.942 52.9472C250.245 53.0908 250.641 53.1627 251.13 53.1627C251.786 53.1627 252.326 53.005 252.752 52.6897C253.179 52.3744 253.391 51.8803 253.391 51.2076V49.5678H253.286C253.194 49.7149 253.064 49.8971 252.895 50.1144C252.729 50.3281 252.49 50.5191 252.177 50.6872C251.867 50.852 251.447 50.9342 250.919 50.9342C250.265 50.9342 249.676 50.7801 249.155 50.4717C248.637 50.1635 248.227 49.7149 247.924 49.1263C247.625 48.5377 247.476 47.8229 247.476 46.982C247.476 46.1551 247.621 45.4351 247.914 44.8219C248.206 44.2053 248.613 43.7287 249.134 43.3924C249.655 43.0525 250.257 42.8826 250.941 42.8826C251.469 42.8826 251.887 42.9701 252.198 43.1454C252.511 43.3171 252.75 43.5132 252.916 43.734C253.085 43.9512 253.215 44.1299 253.307 44.2701H253.434V42.9877H254.638V51.2917C254.638 51.9854 254.479 52.5495 254.163 52.984C253.85 53.422 253.426 53.7425 252.895 53.9457C252.366 54.1525 251.779 54.2559 251.13 54.2559ZM251.089 49.8201C251.589 49.8201 252.011 49.7062 252.356 49.4784C252.701 49.2507 252.964 48.9231 253.143 48.4956C253.323 48.0681 253.413 47.5567 253.413 46.961C253.413 46.3793 253.324 45.8661 253.148 45.4211C252.973 44.9761 252.712 44.6274 252.366 44.3752C252.021 44.1229 251.595 43.9967 251.089 43.9967C250.56 43.9967 250.12 44.1299 249.768 44.3962C249.419 44.6625 249.156 45.0199 248.981 45.4684C248.808 45.9168 248.722 46.4144 248.722 46.961C248.722 47.5216 248.81 48.0174 248.986 48.4484C249.165 48.8758 249.429 49.2122 249.778 49.4574C250.131 49.6992 250.567 49.8201 251.089 49.8201ZM259.308 51.2496C258.793 51.2496 258.327 51.1533 257.908 50.9606C257.489 50.7643 257.156 50.4823 256.909 50.1144C256.663 49.743 256.54 49.2945 256.54 48.7689C256.54 48.3064 256.631 47.9315 256.814 47.6442C256.998 47.3534 257.243 47.1257 257.549 46.961C257.855 46.7963 258.193 46.6737 258.563 46.5931C258.936 46.509 259.311 46.4424 259.688 46.3934C260.181 46.3303 260.58 46.283 260.887 46.2514C261.197 46.2164 261.422 46.1586 261.563 46.078C261.707 45.9974 261.78 45.8572 261.78 45.6576V45.6155C261.78 45.097 261.637 44.694 261.352 44.4067C261.07 44.1194 260.642 43.9757 260.068 43.9757C259.473 43.9757 259.007 44.1054 258.668 44.3647C258.331 44.624 258.093 44.9007 257.955 45.1951L256.772 44.7746C256.984 44.2841 257.265 43.9022 257.617 43.6289C257.973 43.3521 258.36 43.1594 258.779 43.0507C259.202 42.9386 259.617 42.8826 260.026 42.8826C260.287 42.8826 260.586 42.9141 260.924 42.9772C261.265 43.0367 261.595 43.1611 261.912 43.3504C262.232 43.5395 262.498 43.8251 262.71 44.207C262.921 44.5889 263.027 45.1005 263.027 45.7417V51.0604H261.78V49.9672H261.716C261.632 50.1424 261.491 50.3299 261.294 50.5296C261.097 50.7293 260.834 50.8992 260.507 51.0394C260.18 51.1796 259.779 51.2496 259.308 51.2496ZM259.498 50.1354C259.991 50.1354 260.406 50.0391 260.744 49.8464C261.086 49.6537 261.343 49.4049 261.515 49.1001C261.692 48.7952 261.78 48.4746 261.78 48.1382V47.003C261.727 47.0661 261.611 47.1239 261.431 47.1764C261.255 47.2255 261.05 47.2693 260.818 47.3079C260.589 47.3429 260.365 47.3744 260.148 47.4024C259.933 47.427 259.759 47.448 259.625 47.4655C259.3 47.5076 258.998 47.5759 258.716 47.6705C258.438 47.7616 258.212 47.9 258.04 48.0857C257.871 48.2679 257.786 48.5167 257.786 48.832C257.786 49.263 257.947 49.5888 258.267 49.8096C258.591 50.0268 259.001 50.1354 259.498 50.1354ZM265.302 51.0604V42.9877H266.548V51.0604H265.302ZM265.935 41.6422C265.693 41.6422 265.483 41.5599 265.307 41.3952C265.134 41.2305 265.048 41.0326 265.048 40.8013C265.048 40.5701 265.134 40.3721 265.307 40.2074C265.483 40.0428 265.693 39.9604 265.935 39.9604C266.179 39.9604 266.386 40.0428 266.559 40.2074C266.735 40.3721 266.823 40.5701 266.823 40.8013C266.823 41.0326 266.735 41.2305 266.559 41.3952C266.386 41.5599 266.179 41.6422 265.935 41.6422ZM270.078 46.2042V51.0604H268.832V42.9877H270.036V44.2491H270.141C270.332 43.8391 270.62 43.5097 271.008 43.261C271.395 43.0087 271.895 42.8826 272.508 42.8826C273.058 42.8826 273.538 42.9947 273.95 43.2189C274.362 43.4397 274.683 43.776 274.912 44.228C275.141 44.6765 275.255 45.2442 275.255 45.9309V51.0604H274.008V46.0149C274.008 45.3808 273.843 44.8867 273.512 44.5329C273.181 44.1755 272.727 43.9967 272.149 43.9967C271.751 43.9967 271.395 44.0826 271.082 44.2543C270.772 44.426 270.527 44.6765 270.347 45.0059C270.168 45.3353 270.078 45.7346 270.078 46.2042ZM286.83 47.7599V42.9877H288.076V51.0604H286.83V49.6939H286.746C286.555 50.1039 286.259 50.4525 285.858 50.7398C285.457 51.0236 284.949 51.1655 284.337 51.1655C283.829 51.1655 283.379 51.0552 282.984 50.8344C282.59 50.6102 282.28 50.2738 282.055 49.8254C281.829 49.3734 281.716 48.804 281.716 48.1172V42.9877H282.963V48.0331C282.963 48.6217 283.129 49.0913 283.46 49.4417C283.794 49.7921 284.221 49.9672 284.738 49.9672C285.048 49.9672 285.363 49.8884 285.683 49.7307C286.008 49.5731 286.278 49.3313 286.497 49.0054C286.719 48.6796 286.83 48.2644 286.83 47.7599ZM296.107 44.7956L294.987 45.111C294.916 44.9253 294.813 44.7448 294.675 44.5696C294.542 44.3909 294.359 44.2438 294.126 44.1282C293.894 44.0126 293.596 43.9547 293.233 43.9547C292.736 43.9547 292.323 44.0686 291.992 44.2964C291.665 44.5206 291.5 44.8062 291.5 45.153C291.5 45.4613 291.613 45.7049 291.839 45.8836C292.064 46.0622 292.417 46.2112 292.895 46.3303L294.1 46.6246C294.825 46.7998 295.366 47.0678 295.721 47.4287C296.077 47.7861 296.255 48.2469 296.255 48.811C296.255 49.2735 296.121 49.6869 295.854 50.0513C295.589 50.4157 295.219 50.703 294.744 50.9132C294.269 51.1235 293.716 51.2286 293.085 51.2286C292.258 51.2286 291.573 51.0499 291.03 50.6925C290.488 50.3351 290.145 49.8131 290 49.1263L291.184 48.832C291.297 49.2665 291.509 49.5923 291.823 49.8096C292.14 50.0268 292.554 50.1354 293.064 50.1354C293.645 50.1354 294.106 50.0128 294.449 49.7675C294.794 49.5188 294.966 49.2209 294.966 48.8741C294.966 48.5938 294.867 48.359 294.67 48.1698C294.473 47.9771 294.17 47.8334 293.761 47.7388L292.409 47.4235C291.666 47.2483 291.12 46.9767 290.771 46.6089C290.426 46.2375 290.254 45.7732 290.254 45.2161C290.254 44.7606 290.382 44.3576 290.64 44.0073C290.9 43.6569 291.254 43.3819 291.701 43.1821C292.152 42.9824 292.663 42.8826 293.233 42.8826C294.037 42.8826 294.666 43.0578 295.125 43.4081C295.586 43.7585 295.913 44.221 296.107 44.7956ZM298.132 51.0604V42.9877H299.378V51.0604H298.132ZM298.765 41.6422C298.522 41.6422 298.312 41.5599 298.137 41.3952C297.964 41.2305 297.878 41.0326 297.878 40.8013C297.878 40.5701 297.964 40.3721 298.137 40.2074C298.312 40.0428 298.522 39.9604 298.765 39.9604C299.009 39.9604 299.216 40.0428 299.389 40.2074C299.565 40.3721 299.653 40.5701 299.653 40.8013C299.653 41.0326 299.565 41.2305 299.389 41.3952C299.216 41.5599 299.009 41.6422 298.765 41.6422ZM302.908 46.2042V51.0604H301.661V42.9877H302.866V44.2491H302.971C303.162 43.8391 303.45 43.5097 303.838 43.261C304.225 43.0087 304.725 42.8826 305.338 42.8826C305.887 42.8826 306.368 42.9947 306.78 43.2189C307.192 43.4397 307.513 43.776 307.741 44.228C307.97 44.6765 308.084 45.2442 308.084 45.9309V51.0604H306.838V46.0149C306.838 45.3808 306.672 44.8867 306.341 44.5329C306.01 44.1755 305.556 43.9967 304.979 43.9967C304.581 43.9967 304.225 44.0826 303.911 44.2543C303.602 44.426 303.357 44.6765 303.177 45.0059C302.998 45.3353 302.908 45.7346 302.908 46.2042ZM313.637 54.2559C313.036 54.2559 312.518 54.1788 312.084 54.0246C311.652 53.874 311.291 53.6742 311.001 53.4255C310.717 53.1802 310.489 52.9174 310.32 52.6371L311.313 51.9434C311.426 52.0905 311.569 52.2587 311.742 52.4479C311.914 52.6406 312.15 52.807 312.449 52.9472C312.752 53.0908 313.148 53.1627 313.637 53.1627C314.293 53.1627 314.833 53.005 315.259 52.6897C315.686 52.3744 315.898 51.8803 315.898 51.2076V49.5678H315.793C315.701 49.7149 315.571 49.8971 315.401 50.1144C315.236 50.3281 314.997 50.5191 314.684 50.6872C314.374 50.852 313.954 50.9342 313.426 50.9342C312.772 50.9342 312.183 50.7801 311.662 50.4717C311.144 50.1635 310.734 49.7149 310.431 49.1263C310.132 48.5377 309.983 47.8229 309.983 46.982C309.983 46.1551 310.128 45.4351 310.421 44.8219C310.713 44.2053 311.12 43.7287 311.641 43.3924C312.162 43.0525 312.764 42.8826 313.448 42.8826C313.976 42.8826 314.394 42.9701 314.705 43.1454C315.018 43.3171 315.257 43.5132 315.423 43.734C315.592 43.9512 315.722 44.1299 315.814 44.2701H315.941V42.9877H317.145V51.2917C317.145 51.9854 316.986 52.5495 316.67 52.984C316.356 53.422 315.933 53.7425 315.401 53.9457C314.873 54.1525 314.286 54.2559 313.637 54.2559ZM313.595 49.8201C314.095 49.8201 314.518 49.7062 314.863 49.4784C315.208 49.2507 315.471 48.9231 315.65 48.4956C315.83 48.0681 315.919 47.5567 315.919 46.961C315.919 46.3793 315.831 45.8661 315.655 45.4211C315.48 44.9761 315.219 44.6274 314.873 44.3752C314.528 44.1229 314.102 43.9967 313.595 43.9967C313.067 43.9967 312.627 44.1299 312.275 44.3962C311.926 44.6625 311.663 45.0199 311.488 45.4684C311.315 45.9168 311.229 46.4144 311.229 46.961C311.229 47.5216 311.317 48.0174 311.493 48.4484C311.672 48.8758 311.936 49.2122 312.285 49.4574C312.638 49.6992 313.074 49.8201 313.595 49.8201ZM324.688 40.2967V43.9967H323.526V40.2967H324.688ZM326.344 51.0604H324.971L328.943 40.2967H330.295L334.267 51.0604H332.895L329.661 41.9996H329.577L326.344 51.0604ZM326.852 46.8559H332.387V48.0121H326.852V46.8559ZM338.847 51.2286C338.171 51.2286 337.574 51.0586 337.057 50.7188C336.539 50.3754 336.134 49.8919 335.842 49.2682C335.55 48.6411 335.403 47.9 335.403 47.0451C335.403 46.1971 335.55 45.4613 335.842 44.8377C336.134 44.214 336.541 43.7323 337.062 43.3924C337.583 43.0525 338.186 42.8826 338.868 42.8826C339.397 42.8826 339.814 42.9701 340.121 43.1454C340.43 43.3171 340.666 43.5132 340.828 43.734C340.994 43.9512 341.123 44.1299 341.214 44.2701H341.32V40.2967H342.566V51.0604H341.362V49.8201H341.214C341.123 49.9672 340.992 50.1529 340.823 50.3772C340.654 50.5979 340.413 50.7959 340.099 50.9711C339.786 51.1428 339.369 51.2286 338.847 51.2286ZM339.016 50.1144C339.517 50.1144 339.939 49.9847 340.284 49.7255C340.63 49.4627 340.891 49.1001 341.071 48.6376C341.251 48.1715 341.341 47.6337 341.341 47.0241C341.341 46.4214 341.253 45.8941 341.077 45.4421C340.9 44.9866 340.64 44.6327 340.295 44.3804C339.95 44.1247 339.524 43.9967 339.016 43.9967C338.488 43.9967 338.048 44.1316 337.696 44.4014C337.347 44.6678 337.085 45.0304 336.909 45.4894C336.736 45.9449 336.65 46.4564 336.65 47.0241C336.65 47.5987 336.738 48.1208 336.914 48.5902C337.094 49.0563 337.358 49.4277 337.707 49.7044C338.058 49.9777 338.495 50.1144 339.016 50.1144ZM348.086 51.2286C347.41 51.2286 346.813 51.0586 346.295 50.7188C345.778 50.3754 345.373 49.8919 345.081 49.2682C344.789 48.6411 344.642 47.9 344.642 47.0451C344.642 46.1971 344.789 45.4613 345.081 44.8377C345.373 44.214 345.779 43.7323 346.301 43.3924C346.822 43.0525 347.424 42.8826 348.107 42.8826C348.635 42.8826 349.053 42.9701 349.359 43.1454C349.669 43.3171 349.905 43.5132 350.067 43.734C350.233 43.9512 350.361 44.1299 350.453 44.2701H350.559V40.2967H351.805V51.0604H350.6V49.8201H350.453C350.361 49.9672 350.231 50.1529 350.062 50.3772C349.893 50.5979 349.651 50.7959 349.338 50.9711C349.025 51.1428 348.608 51.2286 348.086 51.2286ZM348.255 50.1144C348.755 50.1144 349.178 49.9847 349.523 49.7255C349.868 49.4627 350.13 49.1001 350.31 48.6376C350.489 48.1715 350.579 47.6337 350.579 47.0241C350.579 46.4214 350.492 45.8941 350.315 45.4421C350.139 44.9866 349.879 44.6327 349.534 44.3804C349.189 44.1247 348.762 43.9967 348.255 43.9967C347.727 43.9967 347.287 44.1316 346.934 44.4014C346.586 44.6678 346.324 45.0304 346.147 45.4894C345.975 45.9449 345.889 46.4564 345.889 47.0241C345.889 47.5987 345.977 48.1208 346.153 48.5902C346.333 49.0563 346.597 49.4277 346.945 49.7044C347.297 49.9777 347.734 50.1144 348.255 50.1144ZM364.53 42.9877C364.467 42.4551 364.209 42.0417 363.759 41.7474C363.308 41.453 362.755 41.3059 362.1 41.3059C361.621 41.3059 361.202 41.3829 360.843 41.5371C360.488 41.6913 360.209 41.9033 360.009 42.1731C359.811 42.4428 359.713 42.7494 359.713 43.0928C359.713 43.3801 359.781 43.6271 359.919 43.8339C360.059 44.0371 360.239 44.207 360.457 44.3437C360.676 44.4768 360.905 44.5872 361.144 44.6747C361.384 44.7589 361.603 44.8272 361.804 44.8797L362.903 45.1741C363.184 45.2476 363.498 45.3492 363.843 45.4789C364.192 45.6085 364.525 45.7855 364.842 46.0097C365.162 46.2304 365.426 46.5142 365.634 46.8611C365.842 47.208 365.946 47.6337 365.946 48.1382C365.946 48.7199 365.793 49.2454 365.486 49.7149C365.183 50.1845 364.74 50.5576 364.155 50.8344C363.574 51.1113 362.868 51.2496 362.037 51.2496C361.262 51.2496 360.591 51.1252 360.024 50.8765C359.461 50.6277 359.017 50.2808 358.693 49.8359C358.372 49.3908 358.191 48.8741 358.149 48.2854H359.501C359.536 48.6918 359.674 49.0282 359.913 49.2945C360.156 49.5573 360.462 49.7535 360.833 49.8831C361.205 50.0092 361.607 50.0724 362.037 50.0724C362.537 50.0724 362.986 49.9918 363.384 49.8306C363.782 49.6659 364.097 49.4382 364.329 49.1474C364.562 48.853 364.678 48.5096 364.678 48.1172C364.678 47.7599 364.577 47.469 364.377 47.2448C364.176 47.0205 363.912 46.8383 363.585 46.6982C363.257 46.558 362.903 46.4354 362.523 46.3303L361.192 45.9519C360.346 45.7101 359.678 45.365 359.185 44.9165C358.691 44.468 358.445 43.8812 358.445 43.1559C358.445 42.5532 358.609 42.0277 358.936 41.5792C359.267 41.1272 359.711 40.7768 360.267 40.528C360.827 40.2757 361.452 40.1496 362.142 40.1496C362.839 40.1496 363.46 40.274 364.002 40.5227C364.544 40.768 364.974 41.1044 365.291 41.5319C365.611 41.9593 365.78 42.4446 365.798 42.9877H364.53ZM371.459 42.9877V44.0388H367.254V42.9877H371.459ZM368.48 41.0536H369.726V48.7479C369.726 49.0983 369.778 49.3611 369.88 49.5362C369.985 49.7079 370.119 49.8236 370.281 49.8831C370.446 49.9392 370.621 49.9672 370.804 49.9672C370.942 49.9672 371.054 49.9603 371.142 49.9462C371.23 49.9287 371.3 49.9147 371.354 49.9042L371.607 51.0184C371.523 51.0499 371.404 51.0814 371.253 51.113C371.102 51.148 370.91 51.1655 370.677 51.1655C370.325 51.1655 369.98 51.0902 369.642 50.9395C369.308 50.7888 369.03 50.5594 368.807 50.251C368.589 49.9427 368.48 49.5538 368.48 49.0842V41.0536ZM378.448 47.7599V42.9877H379.694V51.0604H378.448V49.6939H378.363C378.173 50.1039 377.877 50.4525 377.476 50.7398C377.074 51.0236 376.567 51.1655 375.955 51.1655C375.447 51.1655 374.997 51.0552 374.602 50.8344C374.208 50.6102 373.897 50.2738 373.672 49.8254C373.447 49.3734 373.334 48.804 373.334 48.1172V42.9877H374.581V48.0331C374.581 48.6217 374.747 49.0913 375.078 49.4417C375.412 49.7921 375.838 49.9672 376.356 49.9672C376.666 49.9672 376.981 49.8884 377.302 49.7307C377.625 49.5731 377.897 49.3313 378.114 49.0054C378.337 48.6796 378.448 48.2644 378.448 47.7599ZM385.041 51.2286C384.365 51.2286 383.768 51.0586 383.251 50.7188C382.733 50.3754 382.328 49.8919 382.036 49.2682C381.743 48.6411 381.597 47.9 381.597 47.0451C381.597 46.1971 381.743 45.4613 382.036 44.8377C382.328 44.214 382.735 43.7323 383.256 43.3924C383.777 43.0525 384.379 42.8826 385.063 42.8826C385.591 42.8826 386.008 42.9701 386.314 43.1454C386.624 43.3171 386.86 43.5132 387.022 43.734C387.188 43.9512 387.316 44.1299 387.408 44.2701H387.513V40.2967H388.76V51.0604H387.556V49.8201H387.408C387.316 49.9672 387.186 50.1529 387.017 50.3772C386.848 50.5979 386.607 50.7959 386.293 50.9711C385.98 51.1428 385.562 51.2286 385.041 51.2286ZM385.211 50.1144C385.71 50.1144 386.133 49.9847 386.478 49.7255C386.823 49.4627 387.086 49.1001 387.265 48.6376C387.445 48.1715 387.535 47.6337 387.535 47.0241C387.535 46.4214 387.446 45.8941 387.27 45.4421C387.095 44.9866 386.833 44.6327 386.488 44.3804C386.143 44.1247 385.717 43.9967 385.211 43.9967C384.682 43.9967 384.242 44.1316 383.89 44.4014C383.541 44.6678 383.278 45.0304 383.103 45.4894C382.93 45.9449 382.844 46.4564 382.844 47.0241C382.844 47.5987 382.932 48.1208 383.108 48.5902C383.287 49.0563 383.551 49.4277 383.9 49.7044C384.253 49.9777 384.689 50.1144 385.211 50.1144ZM394.618 51.2286C393.837 51.2286 393.162 51.0569 392.595 50.7135C392.032 50.3667 391.596 49.8831 391.29 49.263C390.987 48.6393 390.836 47.914 390.836 47.0871C390.836 46.2603 390.987 45.5314 391.29 44.9007C391.596 44.2665 392.023 43.7725 392.569 43.4187C393.118 43.0612 393.759 42.8826 394.491 42.8826C394.914 42.8826 395.332 42.9527 395.743 43.0928C396.155 43.2329 396.53 43.4607 396.868 43.776C397.207 44.0879 397.476 44.5013 397.677 45.0164C397.877 45.5314 397.978 46.1656 397.978 46.9189V47.4445H391.724V46.3724H396.71C396.71 45.9168 396.618 45.5104 396.435 45.153C396.255 44.7956 395.999 44.5136 395.664 44.3069C395.333 44.1001 394.942 43.9967 394.491 43.9967C393.995 43.9967 393.565 44.1194 393.202 44.3647C392.843 44.6064 392.567 44.9217 392.373 45.3107C392.18 45.6996 392.083 46.1165 392.083 46.5616V47.2763C392.083 47.886 392.188 48.4028 392.4 48.8267C392.615 49.2472 392.912 49.5678 393.292 49.7885C393.672 50.0058 394.115 50.1144 394.618 50.1144C394.946 50.1144 395.242 50.0688 395.506 49.9777C395.773 49.8831 396.004 49.743 396.197 49.5573C396.391 49.3681 396.541 49.1333 396.647 48.853L397.851 49.1894C397.724 49.5958 397.511 49.9532 397.212 50.2616C396.912 50.5664 396.542 50.8047 396.102 50.9763C395.663 51.1445 395.167 51.2286 394.618 51.2286ZM401.121 46.2042V51.0604H399.874V42.9877H401.079V44.2491H401.184C401.375 43.8391 401.663 43.5097 402.051 43.261C402.437 43.0087 402.938 42.8826 403.551 42.8826C404.1 42.8826 404.581 42.9947 404.993 43.2189C405.405 43.4397 405.725 43.776 405.954 44.228C406.183 44.6765 406.297 45.2442 406.297 45.9309V51.0604H405.051V46.0149C405.051 45.3808 404.885 44.8867 404.554 44.5329C404.223 44.1755 403.769 43.9967 403.192 43.9967C402.794 43.9967 402.437 44.0826 402.124 44.2543C401.814 44.426 401.569 44.6765 401.39 45.0059C401.21 45.3353 401.121 45.7346 401.121 46.2042ZM412.104 42.9877V44.0388H407.899V42.9877H412.104ZM409.124 41.0536H410.371V48.7479C410.371 49.0983 410.422 49.3611 410.524 49.5362C410.63 49.7079 410.764 49.8236 410.926 49.8831C411.092 49.9392 411.266 49.9672 411.449 49.9672C411.586 49.9672 411.699 49.9603 411.787 49.9462C411.875 49.9287 411.945 49.9147 411.998 49.9042L412.252 51.0184C412.167 51.0499 412.05 51.0814 411.898 51.113C411.746 51.148 411.554 51.1655 411.322 51.1655C410.97 51.1655 410.625 51.0902 410.287 50.9395C409.952 50.7888 409.674 50.5594 409.452 50.251C409.234 49.9427 409.124 49.5538 409.124 49.0842V41.0536ZM415.057 40.2967V43.9967H413.895V40.2967H415.057ZM416.965 51.1445C416.704 51.1445 416.481 51.0517 416.294 50.8659C416.108 50.6803 416.014 50.4578 416.014 50.1985C416.014 49.9392 416.108 49.7167 416.294 49.531C416.481 49.3453 416.704 49.2524 416.965 49.2524C417.225 49.2524 417.449 49.3453 417.636 49.531C417.823 49.7167 417.916 49.9392 417.916 50.1985C417.916 50.3701 417.872 50.5278 417.784 50.6715C417.699 50.8152 417.585 50.9308 417.44 51.0184C417.3 51.1024 417.141 51.1445 416.965 51.1445Z" fill="black"/>
<path d="M139.411 33.4575C138.58 33.4575 137.865 33.2823 137.267 32.9319C136.671 32.578 136.214 32.0875 135.893 31.4603C135.576 30.8332 135.418 30.1114 135.418 29.295C135.418 28.468 135.578 27.7428 135.898 27.1191C136.223 26.492 136.682 26.0032 137.277 25.6528C137.872 25.2989 138.58 25.122 139.401 25.122C140.109 25.122 140.728 25.2499 141.26 25.5056C141.792 25.7614 142.213 26.1205 142.522 26.583C142.832 27.0455 143.003 27.5886 143.035 28.2123H140.911C140.852 27.8094 140.693 27.4853 140.436 27.24C140.182 26.9912 139.85 26.8668 139.438 26.8668C139.089 26.8668 138.784 26.9615 138.524 27.1506C138.267 27.3364 138.066 27.6079 137.921 27.9653C137.777 28.3226 137.705 28.7554 137.705 29.2635C137.705 29.7785 137.776 30.2164 137.916 30.5773C138.061 30.9382 138.263 31.2133 138.524 31.4025C138.784 31.5917 139.089 31.6863 139.438 31.6863C139.695 31.6863 139.925 31.6338 140.13 31.5286C140.337 31.4235 140.508 31.2711 140.642 31.0714C140.78 30.8682 140.869 30.6246 140.911 30.3408H143.035C143 30.9576 142.831 31.5006 142.527 31.9701C142.228 32.4361 141.815 32.8005 141.286 33.0633C140.758 33.3261 140.133 33.4575 139.411 33.4575ZM146.789 33.4522C146.272 33.4522 145.81 33.3628 145.405 33.1842C145 33.002 144.68 32.7339 144.444 32.3801C144.211 32.0226 144.095 31.5777 144.095 31.0451C144.095 30.5967 144.178 30.22 144.344 29.9151C144.509 29.6103 144.734 29.3651 145.02 29.1793C145.305 28.9937 145.629 28.8535 145.992 28.7589C146.358 28.6643 146.742 28.5977 147.143 28.5592C147.615 28.5102 147.996 28.4646 148.284 28.4225C148.573 28.377 148.782 28.3104 148.913 28.2228C149.043 28.1352 149.108 28.0055 149.108 27.8339V27.8023C149.108 27.4695 149.003 27.212 148.791 27.0298C148.584 26.8476 148.288 26.7565 147.904 26.7565C147.499 26.7565 147.177 26.8458 146.937 27.0245C146.698 27.1997 146.539 27.4204 146.462 27.6868L144.381 27.5186C144.487 27.028 144.694 26.6041 145.004 26.2467C145.314 25.8858 145.714 25.609 146.203 25.4163C146.696 25.22 147.267 25.122 147.914 25.122C148.365 25.122 148.797 25.1745 149.209 25.2796C149.624 25.3848 149.992 25.5476 150.312 25.7684C150.637 25.9891 150.892 26.273 151.078 26.6198C151.265 26.9632 151.359 27.3749 151.359 27.8549V33.2998H149.224V32.1803H149.161C149.031 32.4326 148.857 32.6551 148.638 32.8478C148.419 33.037 148.158 33.1859 147.851 33.2945C147.545 33.3996 147.191 33.4522 146.789 33.4522ZM147.434 31.907C147.765 31.907 148.057 31.8422 148.311 31.7126C148.564 31.5794 148.763 31.4007 148.907 31.1765C149.052 30.9523 149.124 30.6983 149.124 30.4145V29.5578C149.054 29.6033 148.956 29.6454 148.834 29.6839C148.714 29.7189 148.578 29.7522 148.427 29.7838C148.275 29.8118 148.124 29.8381 147.972 29.8626C147.821 29.8836 147.684 29.9029 147.56 29.9204C147.296 29.9589 147.066 30.0203 146.869 30.1043C146.672 30.1885 146.518 30.3023 146.409 30.446C146.3 30.5861 146.245 30.7613 146.245 30.9715C146.245 31.2763 146.356 31.5094 146.578 31.6705C146.803 31.8282 147.089 31.907 147.434 31.907ZM155.354 28.6328V33.2998H153.104V25.2271H155.249V26.6513H155.344C155.524 26.1819 155.825 25.8105 156.247 25.5371C156.67 25.2604 157.182 25.122 157.785 25.122C158.348 25.122 158.839 25.2446 159.258 25.4898C159.678 25.7352 160.003 26.0855 160.235 26.541C160.467 26.993 160.584 27.5325 160.584 28.1598V33.2998H158.334V28.5592C158.337 28.0651 158.21 27.6797 157.954 27.4029C157.696 27.1227 157.342 26.9825 156.892 26.9825C156.589 26.9825 156.321 27.0473 156.089 27.177C155.86 27.3065 155.68 27.4958 155.55 27.7445C155.423 27.9898 155.358 28.2859 155.354 28.6328ZM163.805 22.5361V26.6251H162.199V22.5361H163.805ZM169.782 25.2271V26.9089H164.896V25.2271H169.782ZM166.005 23.293H168.255V30.8191C168.255 31.0259 168.287 31.187 168.35 31.3026C168.414 31.4148 168.501 31.4936 168.614 31.5391C168.731 31.5847 168.864 31.6075 169.016 31.6075C169.122 31.6075 169.227 31.5987 169.333 31.5812C169.439 31.5601 169.52 31.5444 169.576 31.5339L169.929 33.2C169.817 33.235 169.659 33.2753 169.454 33.3208C169.25 33.3699 169.002 33.3996 168.71 33.4101C168.168 33.4312 167.692 33.3594 167.283 33.1947C166.879 33.03 166.563 32.7743 166.338 32.4273C166.113 32.0805 166.002 31.6425 166.005 31.1135V23.293Z" fill="#FF0000"/>
</g>
<defs>
<filter id="filter0_d_1712_527" x="0" y="0" width="603" height="82" filterUnits="userSpaceOnUse" color-interpolation-filters="sRGB">
<feFlood flood-opacity="0" result="BackgroundImageFix"/>
<feColorMatrix in="SourceAlpha" type="matrix" values="0 0 0 0 0 0 0 0 0 0 0 0 0 0 0 0 0 0 127 0" result="hardAlpha"/>
<feOffset dy="4"/>
<feGaussianBlur stdDeviation="2"/>
<feComposite in2="hardAlpha" operator="out"/>
<feColorMatrix type="matrix" values="0 0 0 0 0 0 0 0 0 0 0 0 0 0 0 0 0 0 0.15 0"/>
<feBlend mode="normal" in2="BackgroundImageFix" result="effect1_dropShadow_1712_527"/>
<feBlend mode="normal" in="SourceGraphic" in2="effect1_dropShadow_1712_527" result="shape"/>
</filter>
<clipPath id="clip0_1712_527">
<rect width="595" height="74" fill="white" transform="translate(4)"/>
</clipPath>
</defs>
</svg>
