<svg width="60" height="60" viewBox="0 0 60 60" fill="none" xmlns="http://www.w3.org/2000/svg">
<rect x="1" y="1" width="58" height="58" rx="19" stroke="#69A85F" stroke-width="2"/>
<path d="M4.96591 17.017V15.4545H15.875V17.017H11.3011V30H9.53977V17.017H4.96591ZM21.358 30.2273C20.3068 30.2273 19.4001 29.9953 18.6378 29.5312C17.8802 29.0625 17.2955 28.4091 16.8835 27.571C16.4763 26.7282 16.2727 25.7481 16.2727 24.6307C16.2727 23.5133 16.4763 22.5284 16.8835 21.6761C17.2955 20.8191 17.8684 20.1515 18.6023 19.6733C19.3409 19.1903 20.2027 18.9489 21.1875 18.9489C21.7557 18.9489 22.3168 19.0436 22.8707 19.233C23.4247 19.4223 23.929 19.7301 24.3835 20.1562C24.8381 20.5777 25.2003 21.1364 25.4702 21.8324C25.7401 22.5284 25.875 23.3854 25.875 24.4034V25.1136H17.4659V23.6648H24.1705C24.1705 23.0492 24.0473 22.5 23.8011 22.017C23.5597 21.5341 23.214 21.1529 22.7642 20.8736C22.3191 20.5942 21.7936 20.4545 21.1875 20.4545C20.5199 20.4545 19.9422 20.6203 19.4545 20.9517C18.9716 21.2784 18.5999 21.7045 18.3395 22.2301C18.0791 22.7557 17.9489 23.3191 17.9489 23.9205V24.8864C17.9489 25.7102 18.0909 26.4086 18.375 26.9815C18.6638 27.5497 19.0639 27.983 19.5753 28.2812C20.0866 28.5748 20.6809 28.7216 21.358 28.7216C21.7983 28.7216 22.196 28.66 22.5511 28.5369C22.911 28.4091 23.2211 28.2197 23.4815 27.9688C23.742 27.7131 23.9432 27.3958 24.0852 27.017L25.7045 27.4716C25.5341 28.0208 25.2476 28.5038 24.8452 28.9205C24.4427 29.3324 23.9455 29.6544 23.3537 29.8864C22.7618 30.1136 22.0966 30.2273 21.358 30.2273ZM31.6349 30.2557C30.9437 30.2557 30.3163 30.1255 29.7528 29.8651C29.1894 29.5999 28.742 29.2188 28.4105 28.7216C28.0791 28.2197 27.9134 27.6136 27.9134 26.9034C27.9134 26.2784 28.0365 25.7718 28.2827 25.3835C28.5289 24.9905 28.858 24.6828 29.2699 24.4602C29.6818 24.2377 30.1364 24.072 30.6335 23.9631C31.1354 23.8494 31.6397 23.7595 32.1463 23.6932C32.8092 23.608 33.3466 23.544 33.7585 23.5014C34.1752 23.4541 34.4782 23.3759 34.6676 23.267C34.8617 23.1581 34.9588 22.9687 34.9588 22.6989V22.642C34.9588 21.9413 34.767 21.3968 34.3835 21.0085C34.0047 20.6203 33.4295 20.4261 32.6577 20.4261C31.8575 20.4261 31.2301 20.6013 30.7756 20.9517C30.321 21.3021 30.0014 21.6761 29.8168 22.0739L28.2259 21.5057C28.5099 20.8428 28.8887 20.3267 29.3622 19.9574C29.8404 19.5833 30.3613 19.3229 30.9247 19.1761C31.4929 19.0246 32.0516 18.9489 32.6009 18.9489C32.9512 18.9489 33.3537 18.9915 33.8082 19.0767C34.2675 19.1572 34.7102 19.3253 35.1364 19.581C35.5672 19.8366 35.9247 20.2225 36.2088 20.7386C36.4929 21.2547 36.6349 21.946 36.6349 22.8125V30H34.9588V28.5227H34.8736C34.7599 28.7595 34.5705 29.0128 34.3054 29.2827C34.0402 29.5526 33.6875 29.7822 33.2472 29.9716C32.8068 30.161 32.2694 30.2557 31.6349 30.2557ZM31.8906 28.75C32.5535 28.75 33.1122 28.6198 33.5668 28.3594C34.026 28.099 34.3717 27.7628 34.6037 27.3509C34.8404 26.9389 34.9588 26.5057 34.9588 26.0511V24.517C34.8878 24.6023 34.7315 24.6804 34.4901 24.7514C34.2533 24.8177 33.9787 24.8769 33.6662 24.929C33.3584 24.9763 33.0578 25.0189 32.7642 25.0568C32.4754 25.09 32.241 25.1184 32.0611 25.142C31.6255 25.1989 31.2183 25.2912 30.8395 25.419C30.4654 25.5421 30.1624 25.7292 29.9304 25.9801C29.7031 26.2263 29.5895 26.5625 29.5895 26.9886C29.5895 27.571 29.8049 28.0114 30.2358 28.3097C30.6714 28.6032 31.223 28.75 31.8906 28.75ZM39.6942 30V19.0909H41.3136V20.7955H41.4556C41.6829 20.2131 42.0498 19.7609 42.5565 19.4389C43.0631 19.1122 43.6715 18.9489 44.3817 18.9489C45.1014 18.9489 45.7004 19.1122 46.1786 19.4389C46.6616 19.7609 47.038 20.2131 47.3079 20.7955H47.4215C47.7009 20.232 48.1199 19.7846 48.6786 19.4531C49.2373 19.117 49.9073 18.9489 50.6886 18.9489C51.6639 18.9489 52.4618 19.2543 53.082 19.8651C53.7023 20.4711 54.0124 21.4157 54.0124 22.6989V30H52.3363V22.6989C52.3363 21.8939 52.1161 21.3187 51.6758 20.973C51.2354 20.6274 50.717 20.4545 50.1204 20.4545C49.3533 20.4545 48.7591 20.6866 48.3377 21.1506C47.9163 21.6098 47.7056 22.1922 47.7056 22.8977V30H46.0011V22.5284C46.0011 21.9081 45.7998 21.4086 45.3974 21.0298C44.9949 20.6463 44.4764 20.4545 43.842 20.4545C43.4064 20.4545 42.9992 20.5705 42.6204 20.8026C42.2463 21.0346 41.9433 21.3565 41.7113 21.7685C41.484 22.1757 41.3704 22.6468 41.3704 23.1818V30H39.6942Z" fill="#69A85F"/>
<path d="M28.0455 40C27.858 39.4261 27.6108 38.9119 27.304 38.4574C27.0028 37.9972 26.642 37.6051 26.2216 37.2812C25.8068 36.9574 25.3352 36.7102 24.8068 36.5398C24.2784 36.3693 23.6989 36.2841 23.0682 36.2841C22.0341 36.2841 21.0938 36.5511 20.2472 37.0852C19.4006 37.6193 18.7273 38.4062 18.2273 39.446C17.7273 40.4858 17.4773 41.7614 17.4773 43.2727C17.4773 44.7841 17.7301 46.0597 18.2358 47.0994C18.7415 48.1392 19.4261 48.9261 20.2898 49.4602C21.1534 49.9943 22.125 50.2614 23.2045 50.2614C24.2045 50.2614 25.0852 50.0483 25.8466 49.6222C26.6136 49.1903 27.2102 48.5824 27.6364 47.7983C28.0682 47.0085 28.2841 46.0795 28.2841 45.0114L28.9318 45.1477H23.6818V43.2727H30.3295V45.1477C30.3295 46.5852 30.0227 47.8352 29.4091 48.8977C28.8011 49.9602 27.9602 50.7841 26.8864 51.3693C25.8182 51.9489 24.5909 52.2386 23.2045 52.2386C21.6591 52.2386 20.3011 51.875 19.1307 51.1477C17.9659 50.4205 17.0568 49.3864 16.4034 48.0455C15.7557 46.7045 15.4318 45.1136 15.4318 43.2727C15.4318 41.892 15.6165 40.6506 15.9858 39.5483C16.3608 38.4403 16.8892 37.4972 17.571 36.7188C18.2528 35.9403 19.0597 35.3438 19.9915 34.929C20.9233 34.5142 21.9489 34.3068 23.0682 34.3068C23.9886 34.3068 24.8466 34.446 25.642 34.7244C26.4432 34.9972 27.1562 35.3864 27.7812 35.892C28.4119 36.392 28.9375 36.9915 29.358 37.6903C29.7784 38.3835 30.0682 39.1534 30.2273 40H28.0455ZM39.4382 52.2386C38.7223 52.2273 38.0064 52.0909 37.2905 51.8295C36.5746 51.5682 35.9212 51.1278 35.3303 50.5085C34.7393 49.8835 34.2649 49.0398 33.907 47.9773C33.549 46.9091 33.37 45.5682 33.37 43.9545C33.37 42.4091 33.5149 41.0398 33.8047 39.8466C34.0945 38.6477 34.5149 37.6392 35.0661 36.821C35.6172 35.9972 36.282 35.3722 37.0604 34.946C37.8445 34.5199 38.728 34.3068 39.7109 34.3068C40.6882 34.3068 41.5575 34.5028 42.3189 34.8949C43.0859 35.2812 43.7109 35.821 44.1939 36.5142C44.6768 37.2074 44.9893 38.0057 45.1314 38.9091H43.0518C42.8587 38.125 42.4837 37.4744 41.9268 36.9574C41.37 36.4403 40.6314 36.1818 39.7109 36.1818C38.3587 36.1818 37.2933 36.7699 36.5149 37.946C35.7422 39.1222 35.353 40.7727 35.3473 42.8977H35.4837C35.8018 42.4148 36.1797 42.0028 36.6172 41.6619C37.0604 41.3153 37.549 41.0483 38.0831 40.8608C38.6172 40.6733 39.1825 40.5795 39.7791 40.5795C40.7791 40.5795 41.6939 40.8295 42.5234 41.3295C43.353 41.8239 44.0178 42.5085 44.5178 43.3835C45.0178 44.2528 45.2678 45.25 45.2678 46.375C45.2678 47.4545 45.0263 48.4432 44.5433 49.3409C44.0604 50.233 43.3814 50.9432 42.5064 51.4716C41.6371 51.9943 40.6143 52.25 39.4382 52.2386ZM39.4382 50.3636C40.1541 50.3636 40.7962 50.1847 41.3643 49.8267C41.9382 49.4687 42.3899 48.9886 42.7195 48.3864C43.0547 47.7841 43.2223 47.1136 43.2223 46.375C43.2223 45.6534 43.0604 44.9972 42.7365 44.4062C42.4183 43.8097 41.978 43.3352 41.4155 42.983C40.8587 42.6307 40.2223 42.4545 39.5064 42.4545C38.9666 42.4545 38.4638 42.5625 37.9979 42.7784C37.532 42.9886 37.1229 43.2784 36.7706 43.6477C36.424 44.017 36.1513 44.4403 35.9524 44.9176C35.7536 45.3892 35.6541 45.8864 35.6541 46.4091C35.6541 47.1023 35.8161 47.75 36.1399 48.3523C36.4695 48.9545 36.9183 49.4403 37.4865 49.8097C38.0604 50.179 38.7109 50.3636 39.4382 50.3636Z" fill="#69A85F"/>
</svg>
