<svg width="100" height="112" viewBox="0 0 100 112" fill="none" xmlns="http://www.w3.org/2000/svg">
<rect x="1" y="1.82129" width="98" height="108.998" fill="white" stroke="#69A85F" stroke-width="2"/>
<path d="M50.1392 65.0996C49.9517 64.5257 49.7045 64.0115 49.3977 63.557C49.0966 63.0968 48.7358 62.7047 48.3153 62.3809C47.9006 62.057 47.429 61.8098 46.9006 61.6394C46.3722 61.4689 45.7926 61.3837 45.1619 61.3837C44.1278 61.3837 43.1875 61.6507 42.3409 62.1848C41.4943 62.7189 40.821 63.5059 40.321 64.5456C39.821 65.5854 39.571 66.861 39.571 68.3723C39.571 69.8837 39.8239 71.1593 40.3295 72.199C40.8352 73.2388 41.5199 74.0257 42.3835 74.5598C43.2472 75.0939 44.2188 75.361 45.2983 75.361C46.2983 75.361 47.179 75.1479 47.9403 74.7218C48.7074 74.29 49.304 73.682 49.7301 72.8979C50.1619 72.1081 50.3778 71.1792 50.3778 70.111L51.0256 70.2473H45.7756V68.3723H52.4233V70.2473C52.4233 71.6848 52.1165 72.9348 51.5028 73.9973C50.8949 75.0598 50.054 75.8837 48.9801 76.4689C47.9119 77.0485 46.6847 77.3382 45.2983 77.3382C43.7528 77.3382 42.3949 76.9746 41.2244 76.2473C40.0597 75.5201 39.1506 74.486 38.4972 73.1451C37.8494 71.8042 37.5256 70.2132 37.5256 68.3723C37.5256 66.9917 37.7102 65.7502 38.0795 64.6479C38.4545 63.5399 38.983 62.5968 39.6648 61.8184C40.3466 61.04 41.1534 60.4434 42.0852 60.0286C43.017 59.6138 44.0426 59.4064 45.1619 59.4064C46.0824 59.4064 46.9403 59.5456 47.7358 59.824C48.5369 60.0968 49.25 60.486 49.875 60.9917C50.5057 61.4917 51.0313 62.0911 51.4517 62.7899C51.8722 63.4831 52.1619 64.253 52.321 65.0996H50.1392ZM61.532 77.3382C60.8161 77.3269 60.1001 77.1905 59.3842 76.9292C58.6683 76.6678 58.0149 76.2275 57.424 75.6081C56.8331 74.9831 56.3587 74.1394 56.0007 73.0769C55.6428 72.0087 55.4638 70.6678 55.4638 69.0542C55.4638 67.5087 55.6087 66.1394 55.8984 64.9462C56.1882 63.7473 56.6087 62.7388 57.1598 61.9206C57.7109 61.0968 58.3757 60.4718 59.1541 60.0456C59.9382 59.6195 60.8217 59.4064 61.8047 59.4064C62.782 59.4064 63.6513 59.6024 64.4126 59.9945C65.1797 60.3809 65.8047 60.9206 66.2876 61.6138C66.7706 62.307 67.0831 63.1053 67.2251 64.0087H65.1456C64.9524 63.2246 64.5774 62.574 64.0206 62.057C63.4638 61.5399 62.7251 61.2814 61.8047 61.2814C60.4524 61.2814 59.3871 61.8695 58.6087 63.0456C57.8359 64.2218 57.4467 65.8723 57.4411 67.9973H57.5774C57.8956 67.5144 58.2734 67.1025 58.7109 66.7615C59.1541 66.415 59.6428 66.1479 60.1768 65.9604C60.7109 65.7729 61.2763 65.6792 61.8729 65.6792C62.8729 65.6792 63.7876 65.9292 64.6172 66.4292C65.4467 66.9235 66.1115 67.6081 66.6115 68.4831C67.1115 69.3525 67.3615 70.3496 67.3615 71.4746C67.3615 72.5542 67.12 73.5428 66.6371 74.4405C66.1541 75.3326 65.4751 76.0428 64.6001 76.5712C63.7308 77.0939 62.7081 77.3496 61.532 77.3382ZM61.532 75.4632C62.2479 75.4632 62.8899 75.2843 63.4581 74.9263C64.032 74.5684 64.4837 74.0882 64.8132 73.486C65.1484 72.8837 65.3161 72.2132 65.3161 71.4746C65.3161 70.753 65.1541 70.0968 64.8303 69.5059C64.5121 68.9093 64.0717 68.4348 63.5092 68.0826C62.9524 67.7303 62.3161 67.5542 61.6001 67.5542C61.0604 67.5542 60.5575 67.6621 60.0916 67.878C59.6257 68.0882 59.2166 68.378 58.8643 68.7473C58.5178 69.1167 58.245 69.5399 58.0462 70.0172C57.8473 70.4888 57.7479 70.986 57.7479 71.5087C57.7479 72.2019 57.9098 72.8496 58.2337 73.4519C58.5632 74.0542 59.0121 74.54 59.5803 74.9093C60.1541 75.2786 60.8047 75.4632 61.532 75.4632Z" fill="#69A85F"/>
<path d="M24.6944 34.5874V33.0249H35.6035V34.5874H31.0297V47.5703H29.2683V34.5874H24.6944ZM41.0865 47.7976C40.0353 47.7976 39.1286 47.5656 38.3663 47.1016C37.6087 46.6328 37.024 45.9794 36.612 45.1413C36.2048 44.2985 36.0012 43.3184 36.0012 42.201C36.0012 41.0836 36.2048 40.0987 36.612 39.2464C37.024 38.3894 37.5969 37.7218 38.3308 37.2436C39.0694 36.7607 39.9312 36.5192 40.916 36.5192C41.4842 36.5192 42.0453 36.6139 42.5993 36.8033C43.1532 36.9927 43.6575 37.3004 44.112 37.7266C44.5666 38.148 44.9288 38.7067 45.1987 39.4027C45.4686 40.0987 45.6035 40.9557 45.6035 41.9737V42.6839H37.1944V41.2351H43.899C43.899 40.6196 43.7759 40.0703 43.5297 39.5874C43.2882 39.1044 42.9425 38.7232 42.4927 38.4439C42.0476 38.1645 41.5221 38.0249 40.916 38.0249C40.2484 38.0249 39.6708 38.1906 39.1831 38.522C38.7001 38.8487 38.3284 39.2749 38.068 39.8004C37.8076 40.326 37.6774 40.8894 37.6774 41.4908V42.4567C37.6774 43.2805 37.8194 43.9789 38.1035 44.5518C38.3923 45.12 38.7924 45.5533 39.3038 45.8516C39.8152 46.1451 40.4094 46.2919 41.0865 46.2919C41.5268 46.2919 41.9245 46.2304 42.2797 46.1072C42.6395 45.9794 42.9496 45.79 43.21 45.5391C43.4705 45.2834 43.6717 44.9661 43.8137 44.5874L45.4331 45.0419C45.2626 45.5911 44.9761 46.0741 44.5737 46.4908C44.1712 46.9027 43.6741 47.2247 43.0822 47.4567C42.4904 47.6839 41.8251 47.7976 41.0865 47.7976ZM51.3635 47.826C50.6722 47.826 50.0448 47.6958 49.4814 47.4354C48.9179 47.1702 48.4705 46.7891 48.139 46.2919C47.8076 45.79 47.6419 45.1839 47.6419 44.4737C47.6419 43.8487 47.765 43.3421 48.0112 42.9538C48.2574 42.5608 48.5865 42.2531 48.9984 42.0305C49.4103 41.808 49.8649 41.6423 50.362 41.5334C50.8639 41.4197 51.3682 41.3298 51.8748 41.2635C52.5377 41.1783 53.0751 41.1143 53.487 41.0717C53.9037 41.0244 54.2067 40.9463 54.3961 40.8374C54.5903 40.7285 54.6873 40.5391 54.6873 40.2692V40.2124C54.6873 39.5116 54.4956 38.9671 54.112 38.5788C53.7333 38.1906 53.158 37.9964 52.3862 37.9964C51.586 37.9964 50.9586 38.1716 50.5041 38.522C50.0495 38.8724 49.7299 39.2464 49.5453 39.6442L47.9544 39.076C48.2385 38.4131 48.6172 37.897 49.0907 37.5277C49.569 37.1536 50.0898 36.8932 50.6532 36.7464C51.2214 36.5949 51.7801 36.5192 52.3294 36.5192C52.6797 36.5192 53.0822 36.5618 53.5368 36.647C53.996 36.7275 54.4387 36.8956 54.8649 37.1513C55.2958 37.407 55.6532 37.7929 55.9373 38.3089C56.2214 38.825 56.3635 39.5163 56.3635 40.3828V47.5703H54.6873V46.093H54.6021C54.4885 46.3298 54.2991 46.5831 54.0339 46.853C53.7688 47.1229 53.416 47.3525 52.9757 47.5419C52.5353 47.7313 51.9979 47.826 51.3635 47.826ZM51.6191 46.3203C52.282 46.3203 52.8407 46.1901 53.2953 45.9297C53.7546 45.6693 54.1002 45.3331 54.3322 44.9212C54.569 44.5092 54.6873 44.076 54.6873 43.6214V42.0874C54.6163 42.1726 54.46 42.2507 54.2186 42.3217C53.9818 42.388 53.7072 42.4472 53.3947 42.4993C53.0869 42.5466 52.7863 42.5893 52.4927 42.6271C52.2039 42.6603 51.9695 42.6887 51.7896 42.7124C51.354 42.7692 50.9468 42.8615 50.568 42.9893C50.194 43.1125 49.8909 43.2995 49.6589 43.5504C49.4316 43.7966 49.318 44.1328 49.318 44.5589C49.318 45.1413 49.5334 45.5817 49.9643 45.88C50.3999 46.1735 50.9515 46.3203 51.6191 46.3203ZM59.4228 47.5703V36.6612H61.0421V38.3658H61.1841C61.4114 37.7834 61.7783 37.3312 62.285 37.0092C62.7916 36.6825 63.4 36.5192 64.1103 36.5192C64.83 36.5192 65.4289 36.6825 65.9071 37.0092C66.3901 37.3312 66.7665 37.7834 67.0364 38.3658H67.15C67.4294 37.8023 67.8484 37.3549 68.4071 37.0234C68.9659 36.6873 69.6358 36.5192 70.4171 36.5192C71.3925 36.5192 72.1903 36.8246 72.8105 37.4354C73.4308 38.0414 73.7409 38.986 73.7409 40.2692V47.5703H72.0648V40.2692C72.0648 39.4643 71.8446 38.889 71.4043 38.5433C70.964 38.1977 70.4455 38.0249 69.8489 38.0249C69.0819 38.0249 68.4876 38.2569 68.0662 38.7209C67.6448 39.1802 67.4341 39.7625 67.4341 40.468V47.5703H65.7296V40.0987C65.7296 39.4785 65.5284 38.9789 65.1259 38.6001C64.7234 38.2166 64.205 38.0249 63.5705 38.0249C63.1349 38.0249 62.7277 38.1409 62.3489 38.3729C61.9748 38.6049 61.6718 38.9268 61.4398 39.3388C61.2125 39.746 61.0989 40.2171 61.0989 40.7521V47.5703H59.4228Z" fill="#69A85F"/>
</svg>
