<svg width="85" height="85" viewBox="0 0 85 85" fill="none" xmlns="http://www.w3.org/2000/svg">
<rect x="0.572266" y="0.857422" width="84" height="84" rx="42" fill="white"/>
<rect x="1.57227" y="1.85742" width="82" height="82" rx="41" stroke="#69A85F" stroke-width="2"/>
<path d="M17.7663 22.2749V20.7124H28.6754V22.2749H24.1015V35.2578H22.3402V22.2749H17.7663ZM34.1583 35.4851C33.1072 35.4851 32.2005 35.2531 31.4382 34.7891C30.6806 34.3203 30.0958 33.6669 29.6839 32.8288C29.2767 31.986 29.0731 31.0059 29.0731 29.8885C29.0731 28.7711 29.2767 27.7862 29.6839 26.9339C30.0958 26.0769 30.6688 25.4093 31.4027 24.9311C32.1413 24.4482 33.003 24.2067 33.9879 24.2067C34.5561 24.2067 35.1172 24.3014 35.6711 24.4908C36.2251 24.6802 36.7294 24.9879 37.1839 25.4141C37.6385 25.8355 38.0007 26.3942 38.2706 27.0902C38.5404 27.7862 38.6754 28.6432 38.6754 29.6612V30.3714H30.2663V28.9226H36.9708C36.9708 28.3071 36.8477 27.7578 36.6015 27.2749C36.3601 26.7919 36.0144 26.4107 35.5646 26.1314C35.1195 25.852 34.594 25.7124 33.9879 25.7124C33.3203 25.7124 32.7426 25.8781 32.2549 26.2095C31.772 26.5362 31.4003 26.9624 31.1399 27.4879C30.8795 28.0135 30.7493 28.5769 30.7493 29.1783V30.1442C30.7493 30.968 30.8913 31.6664 31.1754 32.2393C31.4642 32.8075 31.8643 33.2408 32.3757 33.5391C32.887 33.8326 33.4813 33.9794 34.1583 33.9794C34.5987 33.9794 34.9964 33.9179 35.3515 33.7947C35.7114 33.6669 36.0215 33.4775 36.2819 33.2266C36.5423 32.9709 36.7436 32.6536 36.8856 32.2749L38.5049 32.7294C38.3345 33.2786 38.048 33.7616 37.6456 34.1783C37.2431 34.5902 36.7459 34.9122 36.1541 35.1442C35.5622 35.3714 34.897 35.4851 34.1583 35.4851ZM44.4353 35.5135C43.744 35.5135 43.1167 35.3833 42.5532 35.1229C41.9898 34.8577 41.5423 34.4766 41.2109 33.9794C40.8795 33.4775 40.7137 32.8714 40.7137 32.1612C40.7137 31.5362 40.8369 31.0296 41.0831 30.6413C41.3293 30.2483 41.6583 29.9406 42.0703 29.718C42.4822 29.4955 42.9368 29.3298 43.4339 29.2209C43.9358 29.1072 44.4401 29.0173 44.9467 28.951C45.6096 28.8658 46.147 28.8018 46.5589 28.7592C46.9756 28.7119 47.2786 28.6338 47.468 28.5249C47.6621 28.416 47.7592 28.2266 47.7592 27.9567V27.8999C47.7592 27.1991 47.5674 26.6546 47.1839 26.2663C46.8051 25.8781 46.2298 25.6839 45.4581 25.6839C44.6579 25.6839 44.0305 25.8591 43.576 26.2095C43.1214 26.5599 42.8018 26.9339 42.6172 27.3317L41.0262 26.7635C41.3103 26.1006 41.6891 25.5845 42.1626 25.2152C42.6408 24.8411 43.1617 24.5807 43.7251 24.4339C44.2933 24.2824 44.852 24.2067 45.4012 24.2067C45.7516 24.2067 46.1541 24.2493 46.6086 24.3345C47.0679 24.415 47.5106 24.5831 47.9368 24.8388C48.3676 25.0945 48.7251 25.4804 49.0092 25.9964C49.2933 26.5125 49.4353 27.2038 49.4353 28.0703V35.2578H47.7592V33.7805H47.674C47.5603 34.0173 47.3709 34.2706 47.1058 34.5405C46.8406 34.8104 46.4879 35.04 46.0476 35.2294C45.6072 35.4188 45.0698 35.5135 44.4353 35.5135ZM44.691 34.0078C45.3539 34.0078 45.9126 33.8776 46.3672 33.6172C46.8264 33.3568 47.1721 33.0206 47.4041 32.6087C47.6408 32.1967 47.7592 31.7635 47.7592 31.3089V29.7749C47.6882 29.8601 47.5319 29.9382 47.2904 30.0092C47.0537 30.0755 46.7791 30.1347 46.4666 30.1868C46.1588 30.2341 45.8582 30.2768 45.5646 30.3146C45.2758 30.3478 45.0414 30.3762 44.8615 30.3999C44.4259 30.4567 44.0187 30.549 43.6399 30.6768C43.2658 30.8 42.9628 30.987 42.7308 31.2379C42.5035 31.4841 42.3899 31.8203 42.3899 32.2464C42.3899 32.8288 42.6053 33.2692 43.0362 33.5675C43.4718 33.861 44.0234 34.0078 44.691 34.0078ZM52.4946 35.2578V24.3487H54.114V26.0533H54.256C54.4833 25.4709 54.8502 25.0187 55.3569 24.6967C55.8635 24.37 56.4719 24.2067 57.1821 24.2067C57.9018 24.2067 58.5008 24.37 58.979 24.6967C59.462 25.0187 59.8384 25.4709 60.1083 26.0533H60.2219C60.5013 25.4898 60.9203 25.0424 61.479 24.7109C62.0377 24.3748 62.7077 24.2067 63.489 24.2067C64.4643 24.2067 65.2622 24.5121 65.8824 25.1229C66.5027 25.7289 66.8128 26.6735 66.8128 27.9567V35.2578H65.1367V27.9567C65.1367 27.1518 64.9165 26.5765 64.4762 26.2308C64.0358 25.8852 63.5174 25.7124 62.9208 25.7124C62.1537 25.7124 61.5595 25.9444 61.1381 26.4084C60.7167 26.8677 60.506 27.45 60.506 28.1555V35.2578H58.8015V27.7862C58.8015 27.166 58.6002 26.6664 58.1978 26.2876C57.7953 25.9041 57.2768 25.7124 56.6424 25.7124C56.2068 25.7124 55.7996 25.8284 55.4208 26.0604C55.0467 26.2924 54.7437 26.6143 54.5117 27.0263C54.2844 27.4335 54.1708 27.9046 54.1708 28.4396V35.2578H52.4946Z" fill="#69A85F"/>
<path d="M40.9111 52.457C40.7236 51.8832 40.4764 51.369 40.1696 50.9144C39.8685 50.4542 39.5077 50.0621 39.0872 49.7383C38.6724 49.4144 38.2009 49.1673 37.6724 48.9968C37.144 48.8263 36.5645 48.7411 35.9338 48.7411C34.8997 48.7411 33.9594 49.0082 33.1128 49.5423C32.2662 50.0763 31.5929 50.8633 31.0929 51.9031C30.5929 52.9428 30.3429 54.2184 30.3429 55.7298C30.3429 57.2411 30.5957 58.5167 31.1014 59.5565C31.6071 60.5962 32.2918 61.3832 33.1554 61.9173C34.019 62.4513 34.9906 62.7184 36.0702 62.7184C37.0702 62.7184 37.9509 62.5053 38.7122 62.0792C39.4793 61.6474 40.0759 61.0394 40.502 60.2553C40.9338 59.4656 41.1497 58.5366 41.1497 57.4684L41.7974 57.6048H36.5474V55.7298H43.1952V57.6048C43.1952 59.0423 42.8884 60.2923 42.2747 61.3548C41.6668 62.4173 40.8259 63.2411 39.752 63.8263C38.6838 64.4059 37.4565 64.6957 36.0702 64.6957C34.5247 64.6957 33.1668 64.332 31.9963 63.6048C30.8315 62.8775 29.9224 61.8434 29.269 60.5025C28.6213 59.1616 28.2974 57.5707 28.2974 55.7298C28.2974 54.3491 28.4821 53.1076 28.8514 52.0053C29.2264 50.8974 29.7548 49.9542 30.4367 49.1758C31.1185 48.3974 31.9253 47.8008 32.8571 47.386C33.7889 46.9712 34.8145 46.7638 35.9338 46.7638C36.8543 46.7638 37.7122 46.9031 38.5077 47.1815C39.3088 47.4542 40.0219 47.8434 40.6469 48.3491C41.2776 48.8491 41.8031 49.4485 42.2236 50.1474C42.644 50.8406 42.9338 51.6104 43.0929 52.457H40.9111ZM52.3038 64.6957C51.5879 64.6843 50.872 64.5479 50.1561 64.2866C49.4402 64.0252 48.7868 63.5849 48.1959 62.9656C47.605 62.3406 47.1305 61.4968 46.7726 60.4343C46.4146 59.3661 46.2357 58.0252 46.2357 56.4116C46.2357 54.8661 46.3805 53.4968 46.6703 52.3036C46.9601 51.1048 47.3805 50.0962 47.9317 49.2781C48.4828 48.4542 49.1476 47.8292 49.926 47.4031C50.7101 46.9769 51.5936 46.7638 52.5766 46.7638C53.5538 46.7638 54.4232 46.9599 55.1845 47.3519C55.9516 47.7383 56.5766 48.2781 57.0595 48.9712C57.5425 49.6644 57.855 50.4627 57.997 51.3661H55.9175C55.7243 50.582 55.3493 49.9315 54.7925 49.4144C54.2357 48.8974 53.497 48.6388 52.5766 48.6388C51.2243 48.6388 50.159 49.2269 49.3805 50.4031C48.6078 51.5792 48.2186 53.2298 48.2129 55.3548H48.3493C48.6675 54.8718 49.0453 54.4599 49.4828 54.119C49.926 53.7724 50.4146 53.5053 50.9487 53.3178C51.4828 53.1303 52.0482 53.0366 52.6447 53.0366C53.6447 53.0366 54.5595 53.2866 55.3891 53.7866C56.2186 54.2809 56.8834 54.9656 57.3834 55.8406C57.8834 56.7099 58.1334 57.707 58.1334 58.832C58.1334 59.9116 57.8919 60.9002 57.409 61.7979C56.926 62.69 56.247 63.4002 55.372 63.9286C54.5027 64.4513 53.48 64.707 52.3038 64.6957ZM52.3038 62.8207C53.0197 62.8207 53.6618 62.6417 54.23 62.2837C54.8038 61.9258 55.2555 61.4457 55.5851 60.8434C55.9203 60.2411 56.0879 59.5707 56.0879 58.832C56.0879 58.1104 55.926 57.4542 55.6021 56.8633C55.284 56.2667 54.8436 55.7923 54.2811 55.44C53.7243 55.0877 53.0879 54.9116 52.372 54.9116C51.8322 54.9116 51.3294 55.0195 50.8635 55.2354C50.3976 55.4457 49.9885 55.7354 49.6362 56.1048C49.2896 56.4741 49.0169 56.8974 48.818 57.3746C48.6192 57.8462 48.5197 58.3434 48.5197 58.8661C48.5197 59.5593 48.6817 60.207 49.0055 60.8093C49.3351 61.4116 49.784 61.8974 50.3521 62.2667C50.926 62.636 51.5766 62.8207 52.3038 62.8207Z" fill="#69A85F"/>
</svg>
