<svg width="30" height="30" viewBox="0 0 30 30" fill="none" xmlns="http://www.w3.org/2000/svg">
<rect x="0.25" y="0.25" width="29.5" height="29.5" rx="9.75" stroke="#69A85F" stroke-width="0.5"/>
<path d="M2.48295 6.50852V5.72727H7.9375V6.50852H5.65057V13H4.76989V6.50852H2.48295ZM10.679 13.1136C10.1534 13.1136 9.70005 12.9976 9.31889 12.7656C8.9401 12.5312 8.64773 12.2045 8.44176 11.7855C8.23816 11.3641 8.13636 10.8741 8.13636 10.3153C8.13636 9.75663 8.23816 9.2642 8.44176 8.83807C8.64773 8.40956 8.93419 8.07576 9.30114 7.83665C9.67045 7.59517 10.1013 7.47443 10.5938 7.47443C10.8778 7.47443 11.1584 7.52178 11.4354 7.61648C11.7124 7.71117 11.9645 7.86506 12.1918 8.07812C12.419 8.28883 12.6001 8.56818 12.7351 8.91619C12.87 9.2642 12.9375 9.69271 12.9375 10.2017V10.5568H8.73295V9.83239H12.0852C12.0852 9.52462 12.0237 9.25 11.9006 9.00852C11.7798 8.76705 11.607 8.57647 11.3821 8.43679C11.1596 8.29711 10.8968 8.22727 10.5938 8.22727C10.2599 8.22727 9.97112 8.31013 9.72727 8.47585C9.4858 8.6392 9.29995 8.85227 9.16974 9.11506C9.03954 9.37784 8.97443 9.65956 8.97443 9.96023V10.4432C8.97443 10.8551 9.04545 11.2043 9.1875 11.4908C9.33191 11.7749 9.53196 11.9915 9.78764 12.1406C10.0433 12.2874 10.3404 12.3608 10.679 12.3608C10.8991 12.3608 11.098 12.33 11.2756 12.2685C11.4555 12.2045 11.6106 12.1098 11.7408 11.9844C11.871 11.8565 11.9716 11.6979 12.0426 11.5085L12.8523 11.7358C12.767 12.0104 12.6238 12.2519 12.4226 12.4602C12.2214 12.6662 11.9728 12.8272 11.6768 12.9432C11.3809 13.0568 11.0483 13.1136 10.679 13.1136ZM15.8175 13.1278C15.4718 13.1278 15.1581 13.0627 14.8764 12.9325C14.5947 12.8 14.371 12.6094 14.2053 12.3608C14.0395 12.1098 13.9567 11.8068 13.9567 11.4517C13.9567 11.1392 14.0182 10.8859 14.1413 10.6918C14.2644 10.4953 14.429 10.3414 14.6349 10.2301C14.8409 10.1188 15.0682 10.036 15.3168 9.98153C15.5677 9.92472 15.8198 9.87973 16.0732 9.84659C16.4046 9.80398 16.6733 9.77202 16.8793 9.75071C17.0876 9.72704 17.2391 9.68797 17.3338 9.63352C17.4309 9.57907 17.4794 9.48437 17.4794 9.34943V9.32102C17.4794 8.97064 17.3835 8.69839 17.1918 8.50426C17.0024 8.31013 16.7147 8.21307 16.3288 8.21307C15.9287 8.21307 15.6151 8.30066 15.3878 8.47585C15.1605 8.65104 15.0007 8.83807 14.9084 9.03693L14.1129 8.75284C14.255 8.4214 14.4444 8.16335 14.6811 7.97869C14.9202 7.79167 15.1806 7.66146 15.4624 7.58807C15.7464 7.51231 16.0258 7.47443 16.3004 7.47443C16.4756 7.47443 16.6768 7.49574 16.9041 7.53835C17.1338 7.5786 17.3551 7.66264 17.5682 7.79048C17.7836 7.91832 17.9624 8.11127 18.1044 8.36932C18.2464 8.62737 18.3175 8.97301 18.3175 9.40625V13H17.4794V12.2614H17.4368C17.38 12.3797 17.2853 12.5064 17.1527 12.6413C17.0201 12.7763 16.8438 12.8911 16.6236 12.9858C16.4034 13.0805 16.1347 13.1278 15.8175 13.1278ZM15.9453 12.375C16.2768 12.375 16.5561 12.3099 16.7834 12.1797C17.013 12.0495 17.1858 11.8814 17.3018 11.6754C17.4202 11.4695 17.4794 11.2528 17.4794 11.0256V10.2585C17.4439 10.3011 17.3658 10.3402 17.245 10.3757C17.1267 10.4089 16.9893 10.4384 16.8331 10.4645C16.6792 10.4882 16.5289 10.5095 16.3821 10.5284C16.2377 10.545 16.1205 10.5592 16.0305 10.571C15.8127 10.5994 15.6091 10.6456 15.4197 10.7095C15.2327 10.7711 15.0812 10.8646 14.9652 10.9901C14.8516 11.1132 14.7947 11.2812 14.7947 11.4943C14.7947 11.7855 14.9025 12.0057 15.1179 12.1548C15.3357 12.3016 15.6115 12.375 15.9453 12.375ZM19.8471 13V7.54545H20.6568V8.39773H20.7278C20.8414 8.10653 21.0249 7.88045 21.2782 7.71946C21.5315 7.55611 21.8358 7.47443 22.1909 7.47443C22.5507 7.47443 22.8502 7.55611 23.0893 7.71946C23.3308 7.88045 23.519 8.10653 23.6539 8.39773H23.7108C23.8504 8.116 24.06 7.89228 24.3393 7.72656C24.6187 7.55848 24.9537 7.47443 25.3443 7.47443C25.832 7.47443 26.2309 7.62713 26.541 7.93253C26.8511 8.23556 27.0062 8.70786 27.0062 9.34943V13H26.1681V9.34943C26.1681 8.94697 26.0581 8.65933 25.8379 8.48651C25.6177 8.31368 25.3585 8.22727 25.0602 8.22727C24.6767 8.22727 24.3796 8.34328 24.1689 8.57528C23.9582 8.80492 23.8528 9.09612 23.8528 9.44886V13H23.0005V9.2642C23.0005 8.95407 22.8999 8.70431 22.6987 8.51491C22.4975 8.32315 22.2382 8.22727 21.921 8.22727C21.7032 8.22727 21.4996 8.28527 21.3102 8.40128C21.1232 8.51728 20.9717 8.67827 20.8556 8.88423C20.742 9.08783 20.6852 9.32339 20.6852 9.59091V13H19.8471Z" fill="#69A85F"/>
<path d="M13.1932 19C13.0838 18.6652 12.9396 18.3653 12.7607 18.1001C12.585 17.8317 12.3745 17.603 12.1293 17.4141C11.8873 17.2251 11.6122 17.081 11.304 16.9815C10.9957 16.8821 10.6577 16.8324 10.2898 16.8324C9.68655 16.8324 9.13802 16.9882 8.64418 17.2997C8.15033 17.6113 7.75758 18.0703 7.46591 18.6768C7.17424 19.2834 7.02841 20.0275 7.02841 20.9091C7.02841 21.7907 7.1759 22.5348 7.47088 23.1413C7.76586 23.7479 8.16525 24.2069 8.66903 24.5185C9.17282 24.83 9.73958 24.9858 10.3693 24.9858C10.9527 24.9858 11.4664 24.8615 11.9105 24.6129C12.358 24.361 12.706 24.0064 12.9545 23.549C13.2064 23.0883 13.3324 22.5464 13.3324 21.9233L13.7102 22.0028H10.6477V20.9091H14.5256V22.0028C14.5256 22.8414 14.3466 23.5705 13.9886 24.1903C13.634 24.8101 13.1435 25.2907 12.517 25.6321C11.8939 25.9702 11.178 26.1392 10.3693 26.1392C9.4678 26.1392 8.67566 25.9271 7.9929 25.5028C7.31345 25.0786 6.78314 24.4754 6.40199 23.6932C6.02415 22.911 5.83523 21.983 5.83523 20.9091C5.83523 20.1037 5.94295 19.3795 6.15838 18.7365C6.37713 18.0902 6.68537 17.54 7.0831 17.0859C7.48082 16.6319 7.95147 16.2839 8.49503 16.0419C9.03859 15.8 9.63684 15.679 10.2898 15.679C10.8267 15.679 11.3272 15.7602 11.7912 15.9226C12.2585 16.0817 12.6745 16.3087 13.0391 16.6037C13.407 16.8954 13.7135 17.245 13.9588 17.6527C14.2041 18.0571 14.3731 18.5062 14.4659 19H13.1932ZM19.839 26.1392C19.4213 26.1326 19.0037 26.053 18.5861 25.9006C18.1685 25.7481 17.7873 25.4912 17.4426 25.13C17.098 24.7654 16.8212 24.2732 16.6124 23.6534C16.4036 23.0303 16.2992 22.2481 16.2992 21.3068C16.2992 20.4053 16.3837 19.6065 16.5527 18.9105C16.7218 18.2112 16.967 17.6229 17.2885 17.1456C17.61 16.665 17.9978 16.3004 18.4519 16.0518C18.9093 15.8033 19.4247 15.679 19.998 15.679C20.5681 15.679 21.0752 15.7933 21.5194 16.022C21.9668 16.2474 22.3314 16.5623 22.6131 16.9666C22.8948 17.371 23.0771 17.8366 23.16 18.3636H21.9469C21.8342 17.9062 21.6155 17.5268 21.2907 17.2251C20.9658 16.9235 20.535 16.7727 19.998 16.7727C19.2092 16.7727 18.5878 17.1158 18.1337 17.8018C17.6829 18.4879 17.4559 19.4508 17.4526 20.6903H17.5321C17.7177 20.4086 17.9382 20.1683 18.1934 19.9695C18.4519 19.7673 18.7369 19.6115 19.0485 19.5021C19.36 19.3928 19.6898 19.3381 20.0378 19.3381C20.6212 19.3381 21.1548 19.4839 21.6387 19.7756C22.1226 20.0639 22.5104 20.4633 22.802 20.9737C23.0937 21.4808 23.2395 22.0625 23.2395 22.7188C23.2395 23.3485 23.0987 23.9252 22.8169 24.4489C22.5352 24.9692 22.1391 25.3835 21.6287 25.6918C21.1216 25.9967 20.525 26.1458 19.839 26.1392ZM19.839 25.0455C20.2566 25.0455 20.6311 24.9411 20.9625 24.7322C21.2973 24.5234 21.5608 24.2434 21.753 23.892C21.9486 23.5407 22.0463 23.1496 22.0463 22.7188C22.0463 22.2978 21.9519 21.915 21.763 21.5703C21.5774 21.2223 21.3205 20.9455 20.9924 20.7401C20.6676 20.5346 20.2963 20.4318 19.8787 20.4318C19.5639 20.4318 19.2705 20.4948 18.9988 20.6207C18.727 20.7434 18.4883 20.9124 18.2828 21.1278C18.0807 21.3433 17.9216 21.5902 17.8056 21.8686C17.6896 22.1437 17.6316 22.4337 17.6316 22.7386C17.6316 23.143 17.726 23.5208 17.915 23.8722C18.1072 24.2235 18.369 24.5069 18.7005 24.7223C19.0352 24.9377 19.4147 25.0455 19.839 25.0455Z" fill="#69A85F"/>
</svg>
