<svg width="60" height="60" viewBox="0 0 60 60" fill="none" xmlns="http://www.w3.org/2000/svg">
<path d="M54.5609 0H5.43914C2.43516 0 0 2.43516 0 5.43914V54.5609C0 57.5648 2.43516 60 5.43914 60H54.5609C57.5648 60 60 57.5648 60 54.5609V5.43914C60 2.43516 57.5648 0 54.5609 0Z" fill="#DC395F"/>
<path d="M16.5073 19.3575C18.808 19.3575 20.7353 17.5487 20.7353 15.1778C20.7353 12.8086 18.808 11 16.5073 11C14.2066 11 12.2798 12.8086 12.2798 15.1778C12.2798 17.5484 14.2066 19.3575 16.5073 19.3575ZM7.7408 41.7369C7.49235 42.7973 7.36771 43.9423 7.36771 44.8763C7.36771 48.5568 9.35724 51 13.5853 51C15.7186 51 17.6063 50.2268 19.2185 48.8617C19.7959 48.3728 21.1175 49.0161 20.9351 49.7504C20.8316 50.1669 21.1467 50.5699 21.5759 50.5699H25.0525C26.6047 50.5699 27.9573 49.5123 28.3317 48.0059L31.674 34.5585C32.6689 30.5047 34.5963 28.4004 37.5188 28.4004C39.8192 28.4004 41.2491 29.8356 41.2491 32.2048C41.2491 32.8912 41.1869 33.6389 40.9382 34.4501L38.8862 41.8096C38.5753 42.87 38.4515 43.9309 38.4515 44.9281C38.4515 48.422 40.5027 50.9775 44.7929 50.9775C48.1634 50.9775 50.9037 48.9777 52.5805 44.2507C52.8422 43.513 52.4416 42.7164 51.7117 42.4337C50.9182 42.1264 50.0358 42.539 49.691 43.3169C48.5647 45.8579 47.5821 46.3633 46.7824 46.3633C45.8497 46.3633 45.3523 45.7401 45.3523 44.4934C45.3523 43.932 45.4772 43.3091 45.6632 42.5589L47.6532 35.389C48.1504 33.7054 48.3372 32.2124 48.3372 30.8407C48.3372 25.4769 45.1038 22.6776 41.1869 22.6776C39.139 22.6776 37.0716 23.7121 35.3202 25.234C34.6547 25.8123 32.9017 25.0025 33.0896 24.1411C33.1928 23.6677 32.8323 23.22 32.3477 23.22H24.7733C23.5257 23.22 22.4331 24.0566 22.1076 25.261L21.8222 26.317C21.4918 27.5398 22.4128 28.7427 23.6794 28.7427C24.9303 28.7427 25.8485 29.9175 25.5462 31.1313L23.2771 40.2443C23.1446 40.7766 22.9723 41.3029 22.7148 41.7872C20.2536 46.416 16.2273 46.4891 15.6997 46.3706C14.7892 46.1645 14.2068 45.8177 14.2068 44.6309C14.2068 43.9461 14.3312 42.9625 14.6421 41.7765L17.5027 30.3939C18.4181 26.7517 15.6641 23.22 11.9086 23.22H9.60657C8.35894 23.22 7.26629 24.0566 6.94082 25.261L6.64875 26.3419C6.32171 27.5521 7.23325 28.7427 8.48692 28.7427C9.72124 28.7427 10.6293 29.899 10.3367 31.0981L7.7408 41.7369Z" fill="white"/>
</svg>
