<svg width="666" height="50" viewBox="0 0 666 50" fill="none" xmlns="http://www.w3.org/2000/svg">
<g filter="url(#filter0_i_3043_141)">
<path d="M30.0155 15.0079C30.0155 12.8106 29.5568 10.9439 28.6395 9.40791C27.7435 7.87191 26.2608 6.70925 24.1915 5.91991C22.1435 5.10924 19.3808 4.70391 15.9035 4.70391H8.57551L8.76751 2.36791H21.5675C25.5568 2.36791 28.7675 2.92258 31.1995 4.03191C33.6528 5.11991 35.4342 6.59191 36.5435 8.44791C37.6742 10.3039 38.2395 12.3839 38.2395 14.6879C38.2395 17.0346 37.6528 19.1999 36.4795 21.1839C35.3275 23.1466 33.5248 24.7146 31.0715 25.8879C28.6395 27.0612 25.4715 27.6479 21.5675 27.6479H8.76751L8.57551 25.2799H19.2635C21.3328 25.2799 23.1782 24.8959 24.7995 24.1279C26.4208 23.3599 27.6902 22.2079 28.6075 20.6719C29.5462 19.1359 30.0155 17.2479 30.0155 15.0079ZM13.6635 2.36791V45.2479L19.0715 46.6879V47.7119H-0.000487804V46.6879L5.40751 45.2479V4.83191L-0.000487804 3.42391V2.36791H13.6635ZM66.435 23.2639C69.4857 23.2639 71.875 22.4532 73.603 20.8319C75.331 19.2106 76.195 16.8319 76.195 13.6959C76.195 11.7546 75.811 10.1119 75.043 8.76791C74.2963 7.40258 73.0803 6.35725 71.395 5.63191C69.731 4.90658 67.5123 4.54391 64.739 4.54391H54.755L55.555 2.36791H67.683C71.843 2.36791 75.139 2.84791 77.571 3.80791C80.0243 4.76791 81.7737 6.07991 82.819 7.74391C83.8857 9.38658 84.419 11.2639 84.419 13.3759C84.419 15.2746 83.907 17.0346 82.883 18.6559C81.859 20.2559 80.323 21.5786 78.275 22.6239C76.2483 23.6479 73.7203 24.2452 70.691 24.4159V24.2879C72.6963 24.3519 74.339 24.6399 75.619 25.1519C76.899 25.6426 77.9657 26.3892 78.819 27.3919C79.6723 28.3946 80.4403 29.7066 81.123 31.3279L85.347 40.8319C86.0723 42.4959 86.7337 43.7226 87.331 44.5119C87.9283 45.2799 88.5897 45.7706 89.315 45.9839C90.0617 46.1759 91.011 46.2719 92.163 46.2719V47.7119C89.5177 47.9252 87.3523 48.0106 85.667 47.9679C84.003 47.9466 82.659 47.7439 81.635 47.3599C80.611 46.9759 79.7683 46.3679 79.107 45.5359C78.467 44.7039 77.8483 43.5946 77.251 42.2079L72.419 31.1039C71.7577 29.5466 71.139 28.3626 70.563 27.5519C69.987 26.7412 69.3683 26.1866 68.707 25.8879C68.0457 25.5892 67.2243 25.4399 66.243 25.4399H55.459L54.627 23.2639H66.435ZM61.251 2.36791V45.2159L66.723 46.6879V47.7119H47.555V46.6879L53.027 45.2159V4.86391L47.555 3.42391V2.36791H61.251ZM108.286 30.9119V28.6399H130.718V30.9119H108.286ZM141.054 45.1839L146.014 46.6879V47.7119H126.622V46.6879L132.318 45.2479L116.862 9.79191L118.11 9.53591L104.222 45.1199L110.078 46.6879V47.7119H96.7975V46.6879L101.694 45.0559L118.91 1.85591H121.886L141.054 45.1839ZM177.481 46.6879C179.017 46.6879 180.542 46.4212 182.057 45.8879C183.571 45.3546 185.086 44.4799 186.601 43.2639L185.193 44.7039L191.145 35.0399H192.137L189.801 46.5599C187.603 47.2426 185.481 47.7226 183.433 47.9999C181.406 48.2772 179.209 48.4159 176.841 48.4159C173.193 48.4159 169.822 47.9252 166.729 46.9439C163.657 45.9412 160.979 44.4479 158.697 42.4639C156.414 40.4586 154.643 37.9839 153.385 35.0399C152.126 32.0746 151.497 28.6399 151.497 24.7359C151.497 20.1492 152.531 16.1279 154.601 12.6719C156.691 9.21591 159.593 6.51724 163.305 4.57591C167.038 2.63458 171.369 1.66391 176.297 1.66391C178.025 1.66391 179.667 1.77058 181.225 1.98391C182.803 2.17591 184.51 2.48524 186.345 2.91191L184.297 3.39191L188.201 0.479912H188.681L191.561 16.5119L190.601 16.6719L184.009 5.66391L185.641 7.51991C183.742 6.09058 181.95 5.08791 180.265 4.51191C178.579 3.93591 176.841 3.64791 175.049 3.64791C172.958 3.64791 171.006 3.99991 169.193 4.70391C167.401 5.40791 165.811 6.53858 164.425 8.09591C163.059 9.63191 161.993 11.6692 161.225 14.2079C160.457 16.7466 160.073 19.8506 160.073 23.5199C160.073 27.3812 160.531 30.7626 161.449 33.6639C162.366 36.5439 163.625 38.9546 165.225 40.8959C166.846 42.8372 168.702 44.2879 170.793 45.2479C172.883 46.2079 175.113 46.6879 177.481 46.6879ZM219.779 3.55191H228.003V45.2159L233.475 46.6879V47.7119H214.307V46.6879L219.779 45.2159V3.55191ZM242.019 4.70391H205.731L209.411 3.99991L202.979 16.6079L201.923 16.3839L203.843 -8.7738e-05H204.451L209.699 2.97591L206.499 2.36791H241.283L238.083 2.97591L243.331 -8.7738e-05H243.939L245.891 16.3839L244.803 16.6079L238.403 3.99991L242.019 4.70391ZM274.697 46.6879V47.7119H255.625V46.6879L261.033 45.2479V4.83191L255.625 3.42391V2.36791H274.697V3.42391L269.289 4.83191V45.2479L274.697 46.6879ZM311.243 46.6879C312.779 46.6879 314.304 46.4212 315.819 45.8879C317.334 45.3546 318.848 44.4799 320.363 43.2639L318.955 44.7039L324.907 35.0399H325.899L323.563 46.5599C321.366 47.2426 319.243 47.7226 317.195 47.9999C315.168 48.2772 312.971 48.4159 310.603 48.4159C306.955 48.4159 303.584 47.9252 300.491 46.9439C297.419 45.9412 294.742 44.4479 292.459 42.4639C290.176 40.4586 288.406 37.9839 287.147 35.0399C285.888 32.0746 285.259 28.6399 285.259 24.7359C285.259 20.1492 286.294 16.1279 288.363 12.6719C290.454 9.21591 293.355 6.51724 297.067 4.57591C300.8 2.63458 305.131 1.66391 310.059 1.66391C311.787 1.66391 313.43 1.77058 314.987 1.98391C316.566 2.17591 318.272 2.48524 320.107 2.91191L318.059 3.39191L321.963 0.479912H322.443L325.323 16.5119L324.363 16.6719L317.771 5.66391L319.403 7.51991C317.504 6.09058 315.712 5.08791 314.027 4.51191C312.342 3.93591 310.603 3.64791 308.811 3.64791C306.72 3.64791 304.768 3.99991 302.955 4.70391C301.163 5.40791 299.574 6.53858 298.187 8.09591C296.822 9.63191 295.755 11.6692 294.987 14.2079C294.219 16.7466 293.835 19.8506 293.835 23.5199C293.835 27.3812 294.294 30.7626 295.211 33.6639C296.128 36.5439 297.387 38.9546 298.987 40.8959C300.608 42.8372 302.464 44.2879 304.555 45.2479C306.646 46.2079 308.875 46.6879 311.243 46.6879ZM364.902 14.5919L363.878 24.0319L364.902 33.4399H363.878L360.582 25.3759L346.118 24.7359V23.3279L360.582 22.5919L363.878 14.5919H364.902ZM374.758 15.2959L373.766 15.5839L366.982 3.74391L371.526 4.70391H345.03V2.36791H367.75L372.006 0.44791H372.39L374.758 15.2959ZM367.782 46.3039L375.558 34.3359L376.55 34.5919L373.19 49.6319H372.742L368.614 47.7119H345.03V45.3759H372.166L367.782 46.3039ZM336.549 47.7119V46.6879L341.958 45.2479V4.83191L336.549 3.42391V2.36791H350.214V47.7119H336.549ZM426.038 21.3759L421.622 23.3279C420.171 24.2666 418.998 25.2906 418.102 26.3999C417.227 27.5092 416.587 28.6826 416.182 29.9199C415.776 31.1572 415.574 32.4586 415.574 33.8239C415.574 35.8079 415.99 37.5572 416.822 39.0719C417.675 40.5652 418.88 41.7386 420.438 42.5919C422.016 43.4239 423.872 43.8399 426.006 43.8399C428.075 43.8399 429.974 43.4559 431.702 42.6879C433.43 41.9199 434.987 40.7466 436.374 39.1679L437.814 37.6639C438.966 36.0212 439.947 33.9519 440.758 31.4559C441.59 28.9386 442.187 25.8879 442.55 22.3039L437.206 21.0239V20.0319H452.054V21.0239L446.742 22.3039C445.739 25.9732 444.587 29.1946 443.286 31.9679C441.984 34.7412 440.523 37.2052 438.902 39.3599L437.75 40.4799C436.256 42.2932 434.678 43.7866 433.014 44.9599C431.35 46.1332 429.59 47.0079 427.734 47.5839C425.878 48.1386 423.872 48.4159 421.718 48.4159C418.795 48.4159 416.352 47.9146 414.39 46.9119C412.427 45.9092 410.955 44.5332 409.974 42.7839C408.992 41.0346 408.502 39.0399 408.502 36.7999C408.502 34.9012 408.875 33.1306 409.622 31.4879C410.368 29.8239 411.627 28.2666 413.398 26.8159C415.19 25.3439 417.654 23.9359 420.79 22.5919L424.854 20.4479C427.243 18.8479 428.928 17.2159 429.91 15.5519C430.891 13.8666 431.382 12.0639 431.382 10.1439C431.382 7.98925 430.902 6.34658 429.942 5.21591C429.003 4.06391 427.648 3.48791 425.878 3.48791C424.107 3.48791 422.656 4.01058 421.526 5.05591C420.395 6.07991 419.83 7.49858 419.83 9.31191C419.83 10.3786 419.99 11.4239 420.31 12.4479C420.651 13.4506 421.195 14.5279 421.942 15.6799C422.71 16.8319 423.744 18.1332 425.046 19.5839L447.766 45.1839L453.622 46.7199V47.7119H440.534L418.934 23.0399C417.59 21.5252 416.534 20.1492 415.766 18.9119C415.019 17.6746 414.486 16.5119 414.166 15.4239C413.867 14.3359 413.718 13.2372 413.718 12.1279C413.718 10.1652 414.187 8.40524 415.126 6.84791C416.086 5.26925 417.494 4.01058 419.35 3.07191C421.227 2.13325 423.531 1.66391 426.262 1.66391C428.694 1.66391 430.699 2.04791 432.278 2.81591C433.878 3.56258 435.072 4.57591 435.862 5.85591C436.651 7.11458 437.046 8.51191 437.046 10.0479C437.046 11.1359 436.864 12.1706 436.502 13.1519C436.139 14.1332 435.531 15.0826 434.678 15.9999C433.824 16.9172 432.694 17.8132 431.286 18.6879C429.878 19.5626 428.128 20.4586 426.038 21.3759ZM510.915 15.0079C510.915 12.8106 510.457 10.9439 509.539 9.40791C508.643 7.87191 507.161 6.70925 505.091 5.91991C503.043 5.10924 500.281 4.70391 496.803 4.70391H489.475L489.667 2.36791H502.467C506.457 2.36791 509.667 2.92258 512.099 4.03191C514.553 5.11991 516.334 6.59191 517.443 8.44791C518.574 10.3039 519.139 12.3839 519.139 14.6879C519.139 17.0346 518.553 19.1999 517.379 21.1839C516.227 23.1466 514.425 24.7146 511.971 25.8879C509.539 27.0612 506.371 27.6479 502.467 27.6479H489.667L489.475 25.2799H500.163C502.233 25.2799 504.078 24.8959 505.699 24.1279C507.321 23.3599 508.59 22.2079 509.507 20.6719C510.446 19.1359 510.915 17.2479 510.915 15.0079ZM494.563 2.36791V45.2479L499.971 46.6879V47.7119H480.899V46.6879L486.307 45.2479V4.83191L480.899 3.42391V2.36791H494.563ZM562.663 49.6639H562.215L557.959 47.7119H536.967V45.3759H561.991L557.127 46.3359L565.095 34.2079L566.119 34.4639L562.663 49.6639ZM542.151 4.83191V47.7119H528.487V46.6879L533.895 45.2479V4.83191L528.487 3.42391V2.36791H547.559V3.42391L542.151 4.83191ZM583.998 30.9119V28.6399H606.43V30.9119H583.998ZM616.766 45.1839L621.726 46.6879V47.7119H602.334V46.6879L608.03 45.2479L592.574 9.79191L593.822 9.53591L579.934 45.1199L585.79 46.6879V47.7119H572.51V46.6879L577.406 45.0559L594.622 1.85591H597.598L616.766 45.1839ZM624.364 4.89591L619.5 3.42391V2.36791H639.468V3.42391L633.644 4.83191L647.852 25.7599L646.22 25.8239L658.54 4.95991L652.748 3.42391V2.36791H665.932V3.42391L661.068 5.05591L647.884 26.9119V45.2479L653.292 46.6879V47.7119H634.22V46.6879L639.628 45.2479V26.9439L624.364 4.89591Z" fill="white"/>
</g>
<defs>
<filter id="filter0_i_3043_141" x="0" y="0" width="665.934" height="53.6641" filterUnits="userSpaceOnUse" color-interpolation-filters="sRGB">
<feFlood flood-opacity="0" result="BackgroundImageFix"/>
<feBlend mode="normal" in="SourceGraphic" in2="BackgroundImageFix" result="shape"/>
<feColorMatrix in="SourceAlpha" type="matrix" values="0 0 0 0 0 0 0 0 0 0 0 0 0 0 0 0 0 0 127 0" result="hardAlpha"/>
<feOffset dy="4"/>
<feGaussianBlur stdDeviation="2"/>
<feComposite in2="hardAlpha" operator="arithmetic" k2="-1" k3="1"/>
<feColorMatrix type="matrix" values="0 0 0 0 0 0 0 0 0 0 0 0 0 0 0 0 0 0 0.15 0"/>
<feBlend mode="normal" in2="shape" result="effect1_innerShadow_3043_141"/>
</filter>
</defs>
</svg>
