<svg width="783" height="71" viewBox="0 0 783 71" fill="none" xmlns="http://www.w3.org/2000/svg">
<g filter="url(#filter0_i_3043_141)">
<path d="M33.9139 16.0918C33.9139 13.5238 33.3619 11.3518 32.2579 9.57583C31.1539 7.77583 29.3299 6.41982 26.7859 5.50782C24.2419 4.57182 20.7979 4.10382 16.4539 4.10382H9.10989V1.94383H22.8619C27.3019 1.94383 30.8779 2.55583 33.5899 3.77983C36.3259 4.97982 38.3179 6.61182 39.5659 8.67583C40.8379 10.7398 41.4739 13.0558 41.4739 15.6238C41.4739 18.2638 40.8259 20.6998 39.5299 22.9318C38.2339 25.1398 36.2179 26.9038 33.4819 28.2238C30.7459 29.5438 27.2059 30.2038 22.8619 30.2038H9.10989V28.0438H21.1339C23.5579 28.0438 25.7299 27.5998 27.6499 26.7118C29.5939 25.7998 31.1179 24.4558 32.2219 22.6798C33.3499 20.9038 33.9139 18.7078 33.9139 16.0918ZM13.8619 1.94383V50.8678L20.3059 52.3798V53.4238H0.00189418V52.3798L6.44589 50.8678V4.46383L0.00189418 2.98783V1.94383H13.8619ZM89.4124 15.9118C90.4684 15.9118 91.3084 16.2118 91.9324 16.8118C92.5564 17.4118 92.8684 18.2398 92.8684 19.2958C92.8684 20.5678 92.4724 21.5998 91.6804 22.3918C90.9124 23.1598 89.9284 23.5438 88.7284 23.5438C88.2004 23.5438 87.6604 23.4838 87.1084 23.3638C86.5804 23.2198 86.0164 23.0878 85.4164 22.9678C84.8164 22.8238 84.1444 22.7518 83.4004 22.7518C82.7044 22.7518 82.0444 22.8838 81.4204 23.1478C80.7964 23.3878 80.1844 23.7238 79.5844 24.1558C78.9844 24.5878 78.3604 25.1038 77.7124 25.7038V24.1198C79.5124 22.2238 81.0244 20.7238 82.2484 19.6198C83.4964 18.5158 84.5404 17.6998 85.3804 17.1718C86.2204 16.6438 86.9524 16.3078 87.5764 16.1638C88.2004 15.9958 88.8124 15.9118 89.4124 15.9118ZM78.1444 22.4638V51.3718L84.0124 52.4518V53.4238H66.3724V52.4518L71.5204 51.3718V22.6078C71.2084 22.4158 70.8244 22.1758 70.3684 21.8878C69.9124 21.5998 69.3484 21.2518 68.6764 20.8438C68.0284 20.4118 67.2604 19.9198 66.3724 19.3678V18.7198L78.0004 15.4438H78.1444V22.4638ZM139.4 29.4478L139.796 30.9598C136.412 32.0158 133.664 33.0238 131.552 33.9838C129.464 34.9438 127.868 35.9038 126.764 36.8638C125.66 37.8238 124.904 38.8318 124.496 39.8878C124.088 40.9438 123.884 42.1078 123.884 43.3798C123.884 45.4438 124.484 47.0038 125.684 48.0598C126.884 49.0918 128.348 49.6078 130.076 49.6078C131.468 49.6078 132.68 49.3438 133.712 48.8158C134.744 48.2638 135.548 47.4718 136.124 46.4398C136.724 45.3838 137.024 44.0998 137.024 42.5878V26.0638C137.024 23.5918 136.412 21.7198 135.188 20.4478C133.988 19.1758 132.152 18.5398 129.68 18.5398C128.504 18.5398 127.316 18.6358 126.116 18.8278C124.94 18.9958 124.016 19.2478 123.344 19.5838L125.252 18.1438C125.18 19.0318 125.06 19.9558 124.892 20.9158C124.748 21.8518 124.556 22.7038 124.316 23.4718C124.1 24.2398 123.836 24.8158 123.524 25.1998C123.212 25.5838 122.732 25.8838 122.084 26.0998C121.46 26.3158 120.812 26.4238 120.14 26.4238C119.276 26.4238 118.58 26.2558 118.052 25.9198C117.548 25.5598 117.296 25.0078 117.296 24.2638C117.296 23.2558 117.776 22.2598 118.736 21.2758C119.696 20.2678 120.932 19.3558 122.444 18.5398C123.98 17.7238 125.624 17.0758 127.376 16.5958C129.152 16.0918 130.844 15.8398 132.452 15.8398C135.164 15.8398 137.336 16.2358 138.968 17.0278C140.6 17.8198 141.788 18.9358 142.532 20.3758C143.276 21.7918 143.648 23.4598 143.648 25.3798V46.7278C143.648 47.5198 143.768 48.1558 144.008 48.6358C144.272 49.1158 144.632 49.4638 145.088 49.6798C145.544 49.8958 146.06 50.0038 146.636 50.0038C147.452 50.0038 148.256 49.8718 149.048 49.6078C149.864 49.3438 150.704 48.9118 151.568 48.3118V49.2838C149.792 51.3958 148.22 52.7398 146.852 53.3158C145.484 53.8678 144.08 54.1438 142.64 54.1438C141.224 54.1438 140.108 53.8318 139.292 53.2078C138.476 52.5598 137.888 51.6358 137.528 50.4358C137.192 49.2358 136.988 47.7958 136.916 46.1158H137.024C136.616 47.6518 135.956 49.0318 135.044 50.2558C134.132 51.4558 133.028 52.4038 131.732 53.0998C130.436 53.7958 129.008 54.1438 127.448 54.1438C124.472 54.1438 121.988 53.3518 119.996 51.7678C118.004 50.1838 117.008 47.8798 117.008 44.8558C117.008 43.2718 117.272 41.8798 117.8 40.6798C118.352 39.4558 119.396 38.2918 120.932 37.1878C122.492 36.0838 124.748 34.9198 127.7 33.6958C130.676 32.4718 134.576 31.0558 139.4 29.4478ZM193.254 15.8398C195.558 15.8398 197.442 16.0798 198.906 16.5598C200.394 17.0398 201.486 17.6758 202.182 18.4678C202.878 19.2598 203.226 20.1238 203.226 21.0598C203.226 21.8038 203.07 22.4518 202.758 23.0038C202.47 23.5558 202.05 23.9758 201.498 24.2638C200.97 24.5518 200.322 24.6958 199.554 24.6958C199.362 24.6958 199.062 24.4678 198.654 24.0118C198.246 23.5318 197.742 22.9558 197.142 22.2838C196.566 21.5878 195.906 20.8918 195.162 20.1958C194.418 19.4998 193.626 18.9238 192.786 18.4678C191.946 17.9878 191.07 17.7478 190.158 17.7478C188.406 17.7478 186.858 18.2518 185.514 19.2598C184.17 20.2678 183.114 21.8278 182.346 23.9398C181.602 26.0278 181.23 28.7158 181.23 32.0038C181.23 36.0118 181.71 39.2758 182.67 41.7958C183.63 44.2918 185.046 46.1158 186.918 47.2678C188.79 48.4198 191.106 48.9958 193.866 48.9958C195.786 48.9958 197.634 48.5998 199.41 47.8078C201.186 46.9918 202.662 45.7678 203.838 44.1358L204.378 44.5318C202.962 46.9078 201.522 48.8038 200.058 50.2198C198.618 51.6118 197.106 52.6198 195.522 53.2438C193.938 53.8438 192.21 54.1438 190.338 54.1438C187.338 54.1438 184.626 53.4478 182.202 52.0558C179.802 50.6398 177.894 48.5638 176.478 45.8278C175.086 43.0678 174.39 39.6718 174.39 35.6398C174.39 32.7598 174.858 30.1198 175.794 27.7198C176.73 25.2958 178.05 23.1958 179.754 21.4198C181.458 19.6438 183.45 18.2758 185.73 17.3158C188.034 16.3318 190.542 15.8398 193.254 15.8398ZM239.887 43.9918C239.887 45.7678 240.439 47.1118 241.543 48.0238C242.671 48.9118 244.147 49.3558 245.971 49.3558C247.027 49.3558 248.131 49.2598 249.283 49.0678C250.435 48.8758 251.779 48.5518 253.315 48.0958V49.1038C251.083 50.4238 249.271 51.4558 247.879 52.1998C246.511 52.9198 245.335 53.4238 244.351 53.7118C243.367 54.0238 242.335 54.1798 241.255 54.1798C239.887 54.1798 238.591 53.8678 237.367 53.2438C236.167 52.6198 235.183 51.6238 234.415 50.2558C233.647 48.8878 233.263 47.0878 233.263 44.8558V21.1678L228.691 18.3598V17.8558C228.931 17.6878 229.291 17.4598 229.771 17.1718C230.251 16.8598 230.815 16.4878 231.463 16.0558C232.135 15.6238 232.891 15.1318 233.731 14.5798C234.571 14.0278 235.483 13.4398 236.467 12.8158C237.451 12.1678 238.483 11.4958 239.563 10.7998H239.887V17.8558V43.9918ZM237.655 20.4478V16.5598H252.307L251.731 20.4478H237.655ZM284.514 10.1518C283.002 10.1518 281.802 9.63583 280.914 8.60383C280.05 7.57183 279.618 6.41982 279.618 5.14783C279.618 3.87583 280.05 2.78383 280.914 1.87183C281.802 0.935826 283.002 0.467825 284.514 0.467825C286.026 0.467825 287.19 0.935826 288.006 1.87183C288.846 2.78383 289.266 3.87583 289.266 5.14783C289.266 6.41982 288.846 7.57183 288.006 8.60383C287.19 9.63583 286.026 10.1518 284.514 10.1518ZM288.402 15.4438V22.4638V51.3718L293.55 52.4518V53.4238H276.63V52.4518L281.778 51.3718V22.6078C281.514 22.4398 281.118 22.1878 280.59 21.8518C280.062 21.5158 279.45 21.1318 278.754 20.6998C278.082 20.2678 277.374 19.8238 276.63 19.3678V18.7198L288.258 15.4438H288.402ZM337.929 15.8398C340.233 15.8398 342.117 16.0798 343.581 16.5598C345.069 17.0398 346.161 17.6758 346.857 18.4678C347.553 19.2598 347.901 20.1238 347.901 21.0598C347.901 21.8038 347.745 22.4518 347.433 23.0038C347.145 23.5558 346.725 23.9758 346.173 24.2638C345.645 24.5518 344.997 24.6958 344.229 24.6958C344.037 24.6958 343.737 24.4678 343.329 24.0118C342.921 23.5318 342.417 22.9558 341.817 22.2838C341.241 21.5878 340.581 20.8918 339.837 20.1958C339.093 19.4998 338.301 18.9238 337.461 18.4678C336.621 17.9878 335.745 17.7478 334.833 17.7478C333.081 17.7478 331.533 18.2518 330.189 19.2598C328.845 20.2678 327.789 21.8278 327.021 23.9398C326.277 26.0278 325.905 28.7158 325.905 32.0038C325.905 36.0118 326.385 39.2758 327.345 41.7958C328.305 44.2918 329.721 46.1158 331.593 47.2678C333.465 48.4198 335.781 48.9958 338.541 48.9958C340.461 48.9958 342.309 48.5998 344.085 47.8078C345.861 46.9918 347.337 45.7678 348.513 44.1358L349.053 44.5318C347.637 46.9078 346.197 48.8038 344.733 50.2198C343.293 51.6118 341.781 52.6198 340.197 53.2438C338.613 53.8438 336.885 54.1438 335.013 54.1438C332.013 54.1438 329.301 53.4478 326.877 52.0558C324.477 50.6398 322.569 48.5638 321.153 45.8278C319.761 43.0678 319.065 39.6718 319.065 35.6398C319.065 32.7598 319.533 30.1198 320.469 27.7198C321.405 25.2958 322.725 23.1958 324.429 21.4198C326.133 19.6438 328.125 18.2758 330.405 17.3158C332.709 16.3318 335.217 15.8398 337.929 15.8398ZM391.589 15.8398C394.109 15.8398 396.305 16.3678 398.177 17.4238C400.049 18.4558 401.537 19.9918 402.641 22.0318C403.745 24.0478 404.405 26.5438 404.621 29.5198H380.789V27.4318H400.661L397.853 28.8718C397.613 26.2798 397.181 24.1558 396.557 22.4998C395.957 20.8438 395.153 19.6198 394.145 18.8278C393.161 18.0118 391.949 17.6038 390.509 17.6038C388.565 17.6038 386.897 18.1678 385.505 19.2958C384.113 20.4238 383.045 22.0678 382.301 24.2278C381.557 26.3638 381.185 28.9558 381.185 32.0038C381.185 36.0118 381.701 39.2758 382.733 41.7958C383.789 44.2918 385.313 46.1158 387.305 47.2678C389.297 48.4198 391.721 48.9958 394.577 48.9958C395.897 48.9958 397.193 48.8158 398.465 48.4558C399.737 48.0958 400.925 47.5558 402.029 46.8358C403.157 46.1158 404.117 45.2158 404.909 44.1358L405.485 44.5318C403.997 46.9078 402.497 48.8038 400.985 50.2198C399.497 51.6118 397.925 52.6198 396.269 53.2438C394.637 53.8438 392.849 54.1438 390.905 54.1438C387.785 54.1438 384.965 53.4478 382.445 52.0558C379.949 50.6398 377.969 48.5638 376.505 45.8278C375.065 43.0678 374.345 39.6718 374.345 35.6398C374.345 32.0638 375.017 28.7758 376.361 25.7758C377.729 22.7758 379.697 20.3758 382.265 18.5758C384.857 16.7518 387.965 15.8398 391.589 15.8398ZM489.803 23.6518L485.771 25.4158C483.851 26.5918 482.303 27.8518 481.127 29.1958C479.975 30.5398 479.135 31.9678 478.607 33.4798C478.079 34.9678 477.815 36.5638 477.815 38.2678C477.815 40.5958 478.319 42.6118 479.327 44.3158C480.359 46.0198 481.799 47.3398 483.647 48.2758C485.495 49.2118 487.631 49.6798 490.055 49.6798C492.671 49.6798 495.059 49.1878 497.219 48.2038C499.379 47.2198 501.263 45.7798 502.871 43.8838L503.771 42.6958C505.163 40.7758 506.375 38.3158 507.407 35.3158C508.439 32.2918 509.159 28.6078 509.567 24.2638L503.411 23.0038V21.9598H519.575V23.0038L513.455 24.2638C512.351 28.7998 511.067 32.7238 509.603 36.0358C508.163 39.3238 506.591 42.1078 504.887 44.3878L504.131 45.3598C502.595 47.3038 500.903 48.9238 499.055 50.2198C497.207 51.5158 495.215 52.4998 493.079 53.1718C490.943 53.8198 488.651 54.1438 486.203 54.1438C482.915 54.1438 480.143 53.5918 477.887 52.4878C475.655 51.3598 473.963 49.8118 472.811 47.8438C471.683 45.8758 471.119 43.6318 471.119 41.1118C471.119 38.9278 471.539 36.8878 472.379 34.9918C473.219 33.0958 474.635 31.3078 476.627 29.6278C478.619 27.9478 481.355 26.3398 484.835 24.8038L488.651 22.9678C491.651 21.0478 493.763 19.1038 494.987 17.1358C496.235 15.1438 496.859 13.0318 496.859 10.7998C496.859 8.23183 496.271 6.26383 495.095 4.89583C493.919 3.50383 492.227 2.80783 490.019 2.80783C487.787 2.80783 485.951 3.45583 484.511 4.75182C483.071 6.02383 482.351 7.76383 482.351 9.97183C482.351 11.2198 482.543 12.4438 482.927 13.6438C483.311 14.8198 483.947 16.0798 484.835 17.4238C485.747 18.7678 486.983 20.3158 488.543 22.0678L514.427 50.9398L521.375 52.4518V53.4238H507.983L483.143 25.3438C481.511 23.4958 480.251 21.8638 479.363 20.4478C478.475 19.0078 477.851 17.6758 477.491 16.4518C477.155 15.2038 476.987 13.9558 476.987 12.7078C476.987 10.5478 477.491 8.60383 478.499 6.87582C479.507 5.14783 480.995 3.77983 482.963 2.77183C484.931 1.73983 487.355 1.22383 490.235 1.22383C492.851 1.22383 495.023 1.65583 496.751 2.51983C498.479 3.35983 499.775 4.48783 500.639 5.90383C501.527 7.31983 501.971 8.87983 501.971 10.5838C501.971 11.8318 501.755 13.0198 501.323 14.1478C500.891 15.2758 500.195 16.3678 499.235 17.4238C498.299 18.4558 497.051 19.4878 495.491 20.5198C493.955 21.5278 492.059 22.5718 489.803 23.6518ZM615.131 16.0918C615.131 13.5238 614.579 11.3518 613.475 9.57583C612.371 7.77583 610.547 6.41982 608.003 5.50782C605.459 4.57182 602.015 4.10382 597.671 4.10382H590.327V1.94383H604.079C608.519 1.94383 612.095 2.55583 614.807 3.77983C617.543 4.97982 619.535 6.61182 620.783 8.67583C622.055 10.7398 622.691 13.0558 622.691 15.6238C622.691 18.2638 622.043 20.6998 620.747 22.9318C619.451 25.1398 617.435 26.9038 614.699 28.2238C611.963 29.5438 608.423 30.2038 604.079 30.2038H590.327V28.0438H602.351C604.775 28.0438 606.947 27.5998 608.867 26.7118C610.811 25.7998 612.335 24.4558 613.439 22.6798C614.567 20.9038 615.131 18.7078 615.131 16.0918ZM595.079 1.94383V50.8678L601.523 52.3798V53.4238H581.219V52.3798L587.663 50.8678V4.46383L581.219 2.98783V1.94383H595.079ZM658.966 51.3718L664.114 52.4518V53.4238H647.194V52.4518L652.342 51.3718V6.08383C652.03 5.93983 651.586 5.74782 651.01 5.50782C650.458 5.24383 649.798 4.94383 649.03 4.60783C648.262 4.24783 647.41 3.85183 646.474 3.41983V2.77183L658.822 -0.000174999H658.966V6.26383V51.3718ZM712.32 29.4478L712.716 30.9598C709.332 32.0158 706.584 33.0238 704.472 33.9838C702.384 34.9438 700.788 35.9038 699.684 36.8638C698.58 37.8238 697.824 38.8318 697.416 39.8878C697.008 40.9438 696.804 42.1078 696.804 43.3798C696.804 45.4438 697.404 47.0038 698.604 48.0598C699.804 49.0918 701.268 49.6078 702.996 49.6078C704.388 49.6078 705.6 49.3438 706.632 48.8158C707.664 48.2638 708.468 47.4718 709.044 46.4398C709.644 45.3838 709.944 44.0998 709.944 42.5878V26.0638C709.944 23.5918 709.332 21.7198 708.108 20.4478C706.908 19.1758 705.072 18.5398 702.6 18.5398C701.424 18.5398 700.236 18.6358 699.036 18.8278C697.86 18.9958 696.936 19.2478 696.264 19.5838L698.172 18.1438C698.1 19.0318 697.98 19.9558 697.812 20.9158C697.668 21.8518 697.476 22.7038 697.236 23.4718C697.02 24.2398 696.756 24.8158 696.444 25.1998C696.132 25.5838 695.652 25.8838 695.004 26.0998C694.38 26.3158 693.732 26.4238 693.06 26.4238C692.196 26.4238 691.5 26.2558 690.972 25.9198C690.468 25.5598 690.216 25.0078 690.216 24.2638C690.216 23.2558 690.696 22.2598 691.656 21.2758C692.616 20.2678 693.852 19.3558 695.364 18.5398C696.9 17.7238 698.544 17.0758 700.296 16.5958C702.072 16.0918 703.764 15.8398 705.372 15.8398C708.084 15.8398 710.256 16.2358 711.888 17.0278C713.52 17.8198 714.708 18.9358 715.452 20.3758C716.196 21.7918 716.568 23.4598 716.568 25.3798V46.7278C716.568 47.5198 716.688 48.1558 716.928 48.6358C717.192 49.1158 717.552 49.4638 718.008 49.6798C718.464 49.8958 718.98 50.0038 719.556 50.0038C720.372 50.0038 721.176 49.8718 721.968 49.6078C722.784 49.3438 723.624 48.9118 724.488 48.3118V49.2838C722.712 51.3958 721.14 52.7398 719.772 53.3158C718.404 53.8678 717 54.1438 715.56 54.1438C714.144 54.1438 713.028 53.8318 712.212 53.2078C711.396 52.5598 710.808 51.6358 710.448 50.4358C710.112 49.2358 709.908 47.7958 709.836 46.1158H709.944C709.536 47.6518 708.876 49.0318 707.964 50.2558C707.052 51.4558 705.948 52.4038 704.652 53.0998C703.356 53.7958 701.928 54.1438 700.368 54.1438C697.392 54.1438 694.908 53.3518 692.916 51.7678C690.924 50.1838 689.928 47.8798 689.928 44.8558C689.928 43.2718 690.192 41.8798 690.72 40.6798C691.272 39.4558 692.316 38.2918 693.852 37.1878C695.412 36.0838 697.668 34.9198 700.62 33.6958C703.596 32.4718 707.496 31.0558 712.32 29.4478ZM767.126 46.4398L763.418 54.3598L746.714 19.1158L742.106 17.7478V16.5598H759.242V17.7478L754.022 19.0438L767.126 46.4398ZM751.142 70.1638C749.606 70.1638 748.334 69.7678 747.326 68.9758C746.318 68.2078 745.814 67.0918 745.814 65.6278C745.814 64.9318 745.934 64.3558 746.174 63.8998C746.414 63.4678 746.714 63.1438 747.074 62.9278C747.458 62.7118 747.818 62.6038 748.154 62.6038C748.49 62.6038 748.91 62.7478 749.414 63.0358C749.918 63.3238 750.53 63.6118 751.25 63.8998C751.97 64.1878 752.798 64.3318 753.734 64.3318C754.814 64.3318 755.762 64.1638 756.578 63.8278C757.394 63.5158 758.15 62.9038 758.846 61.9918C759.566 61.0798 760.286 59.7598 761.006 58.0318L763.958 51.0118L765.47 47.2678L774.614 18.8278L769.25 17.7478V16.5598H782.282V17.7478L777.638 18.7918L762.698 59.0038C761.642 61.8358 760.526 64.0558 759.35 65.6638C758.198 67.2958 756.95 68.4478 755.606 69.1198C754.262 69.8158 752.774 70.1638 751.142 70.1638Z" fill="white"/>
</g>
<defs>
<filter id="filter0_i_3043_141" x="0" y="0" width="782.281" height="74.1641" filterUnits="userSpaceOnUse" color-interpolation-filters="sRGB">
<feFlood flood-opacity="0" result="BackgroundImageFix"/>
<feBlend mode="normal" in="SourceGraphic" in2="BackgroundImageFix" result="shape"/>
<feColorMatrix in="SourceAlpha" type="matrix" values="0 0 0 0 0 0 0 0 0 0 0 0 0 0 0 0 0 0 127 0" result="hardAlpha"/>
<feOffset dy="4"/>
<feGaussianBlur stdDeviation="2"/>
<feComposite in2="hardAlpha" operator="arithmetic" k2="-1" k3="1"/>
<feColorMatrix type="matrix" values="0 0 0 0 0 0 0 0 0 0 0 0 0 0 0 0 0 0 0.15 0"/>
<feBlend mode="normal" in2="shape" result="effect1_innerShadow_3043_141"/>
</filter>
</defs>
</svg>
