<svg width="60" height="60" viewBox="0 0 60 60" fill="none" xmlns="http://www.w3.org/2000/svg">
<rect width="60" height="60" rx="30" fill="#86C17C"/>
<path d="M27.928 38.112C27.8213 38.112 27.768 38.0693 27.768 37.984V36.256C27.768 35.4027 27.96 34.5493 28.344 33.696C28.7493 32.8213 29.2933 32.0427 29.976 31.36C30.616 30.72 31.0853 30.2293 31.384 29.888C31.6827 29.5253 31.8747 29.1947 31.96 28.896C32.0453 28.5973 32.088 28.2453 32.088 27.84C32.088 27.0933 31.864 26.4747 31.416 25.984C30.968 25.472 30.4027 25.216 29.72 25.216C29.0373 25.216 28.4613 25.472 27.992 25.984C27.544 26.4747 27.32 27.0933 27.32 27.84V30.176C27.32 30.2613 27.2773 30.304 27.192 30.304H23.576C23.4907 30.304 23.448 30.2613 23.448 30.176V27.84C23.448 26.6453 23.7253 25.5573 24.28 24.576C24.856 23.5947 25.6133 22.816 26.552 22.24C27.512 21.664 28.568 21.376 29.72 21.376C30.872 21.376 31.9173 21.664 32.856 22.24C33.816 22.816 34.5733 23.5947 35.128 24.576C35.6827 25.5573 35.96 26.6453 35.96 27.84C35.96 28.544 35.8853 29.1733 35.736 29.728C35.5867 30.2613 35.3093 30.8267 34.904 31.424C34.4987 32 33.9013 32.7253 33.112 33.6C32.5787 34.1333 32.1947 34.6133 31.96 35.04C31.7467 35.4667 31.64 35.936 31.64 36.448V37.984C31.64 38.0693 31.5867 38.112 31.48 38.112H27.928ZM27.928 44C27.8213 44 27.768 43.9467 27.768 43.84V40.288C27.768 40.2027 27.8213 40.16 27.928 40.16H31.48C31.5867 40.16 31.64 40.2027 31.64 40.288V43.84C31.64 43.9467 31.5867 44 31.48 44H27.928Z" fill="white"/>
</svg>
