<svg width="45" height="34" viewBox="0 0 45 34" fill="none" xmlns="http://www.w3.org/2000/svg">
<path d="M9.375 0.5H41.25C42.1108 0.5 42.9371 0.844685 43.5469 1.45898C44.1566 2.07329 44.4999 2.90707 44.5 3.77734V30.2227C44.4999 31.0929 44.1566 31.9267 43.5469 32.541C42.9371 33.1553 42.1108 33.5 41.25 33.5H9.375C8.51424 33.5 7.68791 33.1553 7.07812 32.541C6.46842 31.9267 6.12511 31.0929 6.125 30.2227V23.167H8.875V30.7227H41.75V3.27734H8.875V10.833H6.125V3.77734C6.12511 2.90707 6.46842 2.07329 7.07812 1.45898C7.68791 0.844686 8.51424 0.5 9.375 0.5ZM31.375 23.167V25.9443H24.875V23.167H31.375ZM19.7939 17L13.625 21.6611V18.3887H0.5V15.6113H13.625V12.3379L19.7939 17ZM37 15.6113V18.3887H24.875V15.6113H37ZM37 8.05566V10.833H24.875V8.05566H37Z" fill="white" stroke="white"/>
</svg>
