<svg width="45" height="45" viewBox="0 0 45 45" fill="none" xmlns="http://www.w3.org/2000/svg">
<rect width="45" height="45" rx="10" fill="white"/>
<path d="M28.4557 13.3796C27.7021 12.6229 26.4802 12.6229 25.7272 13.3796L13.4475 25.7087C11.9397 27.2213 9.49681 27.2213 7.99008 25.7087C6.48178 24.1954 6.48178 21.7424 7.99008 20.2284L20.0333 8.13722C18.5263 6.62365 16.0824 6.62365 14.5754 8.13722L5.26033 17.4894C2.24656 20.5159 2.24656 25.4219 5.26033 28.4487C8.27489 31.4754 13.1612 31.4754 16.1757 28.4487L28.4557 16.1195C29.2087 15.3629 29.2087 14.1361 28.4557 13.3796ZM32.5489 9.27024C29.5343 6.24325 24.648 6.24325 21.6335 9.27024L9.35417 21.5987C8.60111 22.3548 8.60111 23.5824 9.35417 24.3386C10.1077 25.0952 11.329 25.0952 12.0827 24.3386L24.3631 12.0102C25.8701 10.4966 28.313 10.4966 29.8197 12.0102C30.574 12.7662 31.7955 12.7662 32.549 12.0102C33.3025 11.2528 33.3024 10.0268 32.5489 9.27024ZM36.6424 21.5987C35.8889 20.8429 34.6666 20.8429 33.9131 21.5987L21.6335 33.9276C20.1264 35.4407 17.6828 35.4407 16.1757 33.9276C15.4227 33.1716 14.2011 33.1716 13.4475 33.9276C12.6929 34.6845 12.6929 35.9113 13.4475 36.6671C16.4608 39.6938 21.3484 39.6938 24.3629 36.6671L36.6424 24.3386C37.3954 23.5825 37.3954 22.3549 36.6424 21.5987ZM40.7361 17.4895C37.7215 14.4633 32.8345 14.4633 29.8207 17.4895L17.5403 29.8188C16.7867 30.5745 16.7867 31.8022 17.5403 32.5582C18.2943 33.3153 19.5162 33.3153 20.2692 32.5582L32.5489 20.2293C34.0554 18.7159 36.4996 18.7159 38.0063 20.2293C39.5134 21.7425 39.5134 24.1956 38.0063 25.7088L25.9631 37.8007C27.4701 39.3134 29.9127 39.3134 31.421 37.8007L40.7361 28.4486C43.7498 25.4216 43.7498 20.5157 40.7361 17.4895Z" fill="#1A1918"/>
</svg>
