<svg width="80" height="80" viewBox="0 0 80 80" fill="none" xmlns="http://www.w3.org/2000/svg">
<path d="M40 65.6802L10.91 37.3736C10.6756 37.1405 10.3973 36.9563 10.0912 36.8315C9.78506 36.7067 9.45724 36.6439 9.12669 36.6466C8.79614 36.6494 8.46942 36.7176 8.16543 36.8475C7.86144 36.9773 7.58622 37.1662 7.35569 37.4031C7.12517 37.64 6.94391 37.9203 6.82243 38.2277C6.70094 38.5351 6.64162 38.8636 6.64791 39.1941C6.65421 39.5246 6.72598 39.8506 6.85908 40.1532C6.99219 40.4558 7.18398 40.7289 7.42335 40.9569L38.2567 70.9569C38.7234 71.411 39.3489 71.665 40 71.665C40.6512 71.665 41.2766 71.411 41.7433 70.9569L72.5767 40.9569C72.8161 40.7289 73.0079 40.4558 73.141 40.1532C73.2741 39.8506 73.3458 39.5246 73.3521 39.1941C73.3584 38.8636 73.2991 38.5351 73.1776 38.2277C73.0561 37.9203 72.8749 37.64 72.6443 37.4031C72.4138 37.1662 72.1386 36.9773 71.8346 36.8475C71.5306 36.7176 71.2039 36.6494 70.8733 36.6466C70.5428 36.6439 70.215 36.7067 69.9089 36.8315C69.6028 36.9563 69.3244 37.1405 69.09 37.3736L40 65.6802Z" fill="#FF0000"/>
</svg>
