<svg width="80" height="80" viewBox="0 0 80 80" fill="none" xmlns="http://www.w3.org/2000/svg">
<path d="M40 65.68L10.91 37.3733C10.6756 37.1403 10.3973 36.956 10.0912 36.8312C9.78506 36.7065 9.45724 36.6436 9.12669 36.6464C8.79614 36.6491 8.46942 36.7174 8.16543 36.8472C7.86144 36.9771 7.58622 37.1659 7.35569 37.4029C7.12517 37.6398 6.94391 37.9201 6.82243 38.2275C6.70094 38.5349 6.64162 38.8634 6.64791 39.1939C6.65421 39.5244 6.72598 39.8504 6.85908 40.1529C6.99219 40.4555 7.18398 40.7287 7.42335 40.9567L38.2567 70.9567C38.7234 71.4107 39.3489 71.6648 40 71.6648C40.6512 71.6648 41.2766 71.4107 41.7433 70.9567L72.5767 40.9567C72.8161 40.7287 73.0078 40.4555 73.141 40.1529C73.2741 39.8504 73.3458 39.5244 73.3521 39.1939C73.3584 38.8634 73.2991 38.5349 73.1776 38.2275C73.0561 37.9201 72.8749 37.6398 72.6443 37.4029C72.4138 37.1659 72.1386 36.9771 71.8346 36.8472C71.5306 36.7174 71.2039 36.6491 70.8733 36.6464C70.5428 36.6436 70.215 36.7065 69.9089 36.8312C69.6028 36.956 69.3244 37.1403 69.09 37.3733L40 65.68Z" fill="#E79BCD"/>
</svg>
