<svg width="161" height="62" viewBox="0 0 161 62" fill="none" xmlns="http://www.w3.org/2000/svg">
<path d="M81 48.411L63.5561 31.436C63.4155 31.2962 63.2486 31.1857 63.065 31.1109C62.8815 31.0361 62.6849 30.9984 62.4867 31.0001C62.2885 31.0017 62.0925 31.0426 61.9103 31.1205C61.728 31.1984 61.5629 31.3116 61.4247 31.4537C61.2865 31.5958 61.1778 31.7639 61.1049 31.9482C61.0321 32.1326 60.9965 32.3296 61.0003 32.5277C61.004 32.7259 61.0471 32.9214 61.1269 33.1029C61.2067 33.2843 61.3217 33.4481 61.4653 33.5849L79.9546 51.5753C80.2345 51.8476 80.6095 52 81 52C81.3905 52 81.7655 51.8476 82.0454 51.5753L100.535 33.5849C100.678 33.4481 100.793 33.2843 100.873 33.1029C100.953 32.9214 100.996 32.7259 101 32.5277C101.004 32.3296 100.968 32.1326 100.895 31.9482C100.822 31.7639 100.714 31.5958 100.575 31.4537C100.437 31.3116 100.272 31.1984 100.09 31.1205C99.9075 31.0426 99.7115 31.0017 99.5133 31.0001C99.3151 30.9984 99.1185 31.0361 98.935 31.1109C98.7514 31.1857 98.5845 31.2962 98.4439 31.436L81 48.411Z" fill="url(#paint0_linear_2936_4354)" fill-opacity="0.75"/>
<path d="M6.712 4.632L6.056 4.472L6.664 3.768H6.848L7.272 7.256L6.928 7.288L5.92 4.816L6.472 5.44C6.056 5.088 5.672 4.84533 5.32 4.712C4.97333 4.57333 4.59467 4.504 4.184 4.504C3.40533 4.504 2.82133 4.68267 2.432 5.04C2.04267 5.39733 1.848 5.848 1.848 6.392C1.848 6.77067 1.92 7.09067 2.064 7.352C2.21333 7.608 2.41867 7.82667 2.68 8.008C2.94133 8.18933 3.23467 8.34667 3.56 8.48C3.89067 8.61333 4.23467 8.744 4.592 8.872C4.95467 9 5.31467 9.14133 5.672 9.296C6.02933 9.45067 6.35733 9.64267 6.656 9.872C6.95467 10.1013 7.192 10.392 7.368 10.744C7.54933 11.0907 7.64 11.5253 7.64 12.048C7.64 12.7413 7.48267 13.3173 7.168 13.776C6.85333 14.2347 6.41333 14.5813 5.848 14.816C5.288 15.0453 4.62933 15.16 3.872 15.16C3.37067 15.16 2.92267 15.128 2.528 15.064C2.13333 15.0053 1.73333 14.9013 1.328 14.752L0.744 11.992H1.128L2.52 14.792L1.56 14.088C1.94933 14.3013 2.32533 14.4507 2.688 14.536C3.056 14.616 3.43733 14.656 3.832 14.656C4.44 14.656 4.97067 14.576 5.424 14.416C5.88267 14.256 6.23733 14.0053 6.488 13.664C6.744 13.3227 6.872 12.8827 6.872 12.344C6.872 11.9013 6.78133 11.5333 6.6 11.24C6.41867 10.9413 6.17867 10.696 5.88 10.504C5.58133 10.312 5.25067 10.1467 4.888 10.008C4.53067 9.86933 4.17333 9.73333 3.816 9.6C3.464 9.46133 3.12533 9.31467 2.8 9.16C2.47467 9.00533 2.18667 8.82133 1.936 8.608C1.68533 8.38933 1.48533 8.12267 1.336 7.808C1.192 7.49333 1.12 7.11467 1.12 6.672C1.12 6.13867 1.24533 5.67467 1.496 5.28C1.752 4.88 2.11733 4.57067 2.592 4.352C3.072 4.13333 3.64533 4.024 4.312 4.024C4.78667 4.024 5.21333 4.07733 5.592 4.184C5.976 4.29067 6.34933 4.44 6.712 4.632ZM15.2364 14.64C15.6897 14.64 16.1484 14.592 16.6124 14.496C17.0817 14.3947 17.5137 14.248 17.9084 14.056L17.3884 14.552L18.4204 12.216H18.7724L18.4364 14.56C18.0524 14.736 17.5724 14.88 16.9964 14.992C16.4257 15.104 15.839 15.16 15.2364 15.16C14.367 15.16 13.5697 15.04 12.8444 14.8C12.119 14.5547 11.4924 14.1973 10.9644 13.728C10.4364 13.2587 10.0284 12.68 9.74038 11.992C9.45238 11.304 9.30838 10.5147 9.30838 9.624C9.30838 8.47733 9.55104 7.48533 10.0364 6.648C10.527 5.80533 11.2204 5.15733 12.1164 4.704C13.0124 4.25067 14.079 4.024 15.3164 4.024C15.759 4.024 16.1857 4.06133 16.5964 4.136C17.0124 4.20533 17.4577 4.31733 17.9324 4.472L17.4764 4.456L18.1004 3.768H18.2764L18.7324 7.352L18.3884 7.392L17.3244 4.84L17.8684 5.424C17.319 5.11467 16.823 4.89867 16.3804 4.776C15.9377 4.648 15.463 4.584 14.9564 4.584C14.231 4.584 13.5777 4.688 12.9964 4.896C12.4204 5.09867 11.927 5.40267 11.5164 5.808C11.111 6.21333 10.8017 6.71467 10.5884 7.312C10.375 7.904 10.2657 8.58667 10.2604 9.36C10.2604 10.2133 10.3857 10.968 10.6364 11.624C10.887 12.28 11.239 12.832 11.6924 13.28C12.1457 13.728 12.6737 14.0667 13.2764 14.296C13.8844 14.5253 14.5377 14.64 15.2364 14.64ZM24.436 9.224C25.156 9.224 25.7427 9.03467 26.196 8.656C26.6493 8.27733 26.876 7.70933 26.876 6.952C26.876 6.488 26.772 6.09067 26.564 5.76C26.356 5.42933 26.0067 5.17867 25.516 5.008C25.0307 4.832 24.364 4.744 23.516 4.744H21.668L21.548 4.184H24.076C24.988 4.184 25.716 4.30133 26.26 4.536C26.8093 4.77067 27.2067 5.09333 27.452 5.504C27.6973 5.90933 27.82 6.368 27.82 6.88C27.82 7.33333 27.7213 7.744 27.524 8.112C27.332 8.47467 27.044 8.77867 26.66 9.024C26.2813 9.26933 25.8093 9.44 25.244 9.536V9.472C25.596 9.49333 25.884 9.56 26.108 9.672C26.3373 9.784 26.5347 9.96267 26.7 10.208C26.8653 10.448 27.0227 10.7733 27.172 11.184L27.996 13.448C28.1293 13.8053 28.2547 14.072 28.372 14.248C28.4893 14.4187 28.6307 14.5307 28.796 14.584C28.9667 14.632 29.1907 14.656 29.468 14.656V15C29.0573 15.0267 28.724 15.032 28.468 15.016C28.2173 15.0053 28.012 14.9547 27.852 14.864C27.692 14.768 27.5533 14.616 27.436 14.408C27.3187 14.2 27.196 13.9173 27.068 13.56L26.308 11.416C26.1587 10.9947 26.0147 10.6667 25.876 10.432C25.7373 10.192 25.5747 10.024 25.388 9.928C25.2013 9.832 24.9533 9.784 24.644 9.784H21.78L21.708 9.224H24.436ZM22.436 4.184V14.424L23.916 14.712V15H20.148V14.712L21.54 14.424V4.76L20.148 4.464V4.184H22.436ZM35.2431 4.024C36.0271 4.024 36.7418 4.16 37.3871 4.432C38.0378 4.69867 38.6005 5.08 39.0751 5.576C39.5551 6.072 39.9258 6.66133 40.1871 7.344C40.4485 8.02133 40.5791 8.768 40.5791 9.584C40.5791 10.4 40.4511 11.1493 40.1951 11.832C39.9391 12.5093 39.5765 13.0987 39.1071 13.6C38.6431 14.1013 38.0938 14.488 37.4591 14.76C36.8245 15.0267 36.1258 15.16 35.3631 15.16C34.5845 15.16 33.8698 15.024 33.2191 14.752C32.5685 14.48 32.0031 14.0987 31.5231 13.608C31.0485 13.112 30.6805 12.5253 30.4191 11.848C30.1578 11.1653 30.0271 10.416 30.0271 9.6C30.0271 8.77867 30.1551 8.02933 30.4111 7.352C30.6671 6.66933 31.0271 6.08 31.4911 5.584C31.9605 5.08267 32.5125 4.69867 33.1471 4.432C33.7871 4.16 34.4858 4.024 35.2431 4.024ZM35.3711 14.608C36.2671 14.608 37.0325 14.4053 37.6671 14C38.3018 13.5893 38.7845 13.0187 39.1151 12.288C39.4511 11.552 39.6191 10.6987 39.6191 9.728C39.6191 8.64533 39.4351 7.72 39.0671 6.952C38.6991 6.184 38.1845 5.59467 37.5231 5.184C36.8671 4.77333 36.1045 4.568 35.2351 4.568C34.3391 4.568 33.5738 4.77333 32.9391 5.184C32.3045 5.59467 31.8191 6.16533 31.4831 6.896C31.1525 7.62667 30.9871 8.48 30.9871 9.456C30.9871 10.5333 31.1711 11.4587 31.5391 12.232C31.9071 13 32.4218 13.5893 33.0831 14C33.7445 14.4053 34.5071 14.608 35.3711 14.608ZM49.6184 15.432H49.4104L48.7784 15H43.6584V14.44H49.3144L48.6424 14.696L49.9304 11.992L50.2424 12.048L49.6184 15.432ZM44.1704 4.76V15H41.8824V14.712L43.2744 14.424V4.76L41.8824 4.464V4.184H45.5624V4.464L44.1704 4.76ZM58.9309 15.432H58.7229L58.0909 15H52.9709V14.44H58.6269L57.9549 14.696L59.2429 11.992L59.5549 12.048L58.9309 15.432ZM53.4829 4.76V15H51.1949V14.712L52.5869 14.424V4.76L51.1949 4.464V4.184H54.8749V4.464L53.4829 4.76ZM67.3602 4.424H68.2483V14.424L69.6563 14.712V15H65.9523V14.712L67.3602 14.424V4.424ZM71.8323 4.744H63.7763L64.2963 4.592L63.3763 7.12L63.0403 7.08L63.4243 3.64H63.6243L64.3683 4.288L63.8963 4.184H71.7283L71.2403 4.288L71.9843 3.64H72.1843L72.5683 7.08L72.2243 7.12L71.3123 4.592L71.8323 4.744ZM78.79 4.024C79.574 4.024 80.2887 4.16 80.934 4.432C81.5847 4.69867 82.1473 5.08 82.622 5.576C83.102 6.072 83.4727 6.66133 83.734 7.344C83.9953 8.02133 84.126 8.768 84.126 9.584C84.126 10.4 83.998 11.1493 83.742 11.832C83.486 12.5093 83.1233 13.0987 82.654 13.6C82.19 14.1013 81.6407 14.488 81.006 14.76C80.3713 15.0267 79.6727 15.16 78.91 15.16C78.1313 15.16 77.4167 15.024 76.766 14.752C76.1153 14.48 75.55 14.0987 75.07 13.608C74.5953 13.112 74.2273 12.5253 73.966 11.848C73.7047 11.1653 73.574 10.416 73.574 9.6C73.574 8.77867 73.702 8.02933 73.958 7.352C74.214 6.66933 74.574 6.08 75.038 5.584C75.5073 5.08267 76.0593 4.69867 76.694 4.432C77.334 4.16 78.0327 4.024 78.79 4.024ZM78.918 14.608C79.814 14.608 80.5793 14.4053 81.214 14C81.8487 13.5893 82.3313 13.0187 82.662 12.288C82.998 11.552 83.166 10.6987 83.166 9.728C83.166 8.64533 82.982 7.72 82.614 6.952C82.246 6.184 81.7313 5.59467 81.07 5.184C80.414 4.77333 79.6513 4.568 78.782 4.568C77.886 4.568 77.1207 4.77333 76.486 5.184C75.8513 5.59467 75.366 6.16533 75.03 6.896C74.6993 7.62667 74.534 8.48 74.534 9.456C74.534 10.5333 74.718 11.4587 75.086 12.232C75.454 13 75.9687 13.5893 76.63 14C77.2913 14.4053 78.054 14.608 78.918 14.608ZM95.5999 7.232L95.5439 9.344L95.5999 11.448H95.2079L94.9039 9.632L91.1919 9.608V9.072L94.9039 9.04L95.2079 7.232H95.5999ZM97.7039 6.992L97.3679 7.032L96.3759 4.52L96.8319 4.744H90.9279V4.184H96.4959L97.1599 3.808H97.3359L97.7039 6.992ZM96.5119 14.688L97.7519 12.08L98.0639 12.136L97.4639 15.432H97.2719L96.6479 15H90.9279V14.44H96.9439L96.5119 14.688ZM89.3199 15V14.712L90.7119 14.424V4.76L89.3199 4.464V4.184H91.6079V15H89.3199ZM104.321 9.64L100.689 14.424L102.081 14.712V15H98.745V14.712L100.041 14.424L104.009 9.264L104.241 9.08L107.513 4.752L106.129 4.464V4.184H109.465V4.464L108.161 4.76L104.545 9.472L104.321 9.64ZM107.521 14.424L104.081 9.752L103.961 9.608L100.393 4.76L99.057 4.464V4.184H102.921V4.464L101.489 4.76L104.529 8.92L104.665 9.072L108.609 14.424L109.953 14.712V15H106.089V14.712L107.521 14.424ZM117.992 7.216C117.992 6.69333 117.882 6.248 117.664 5.88C117.445 5.512 117.077 5.232 116.56 5.04C116.048 4.84267 115.352 4.744 114.472 4.744H112.304L112.336 4.184H114.912C115.888 4.184 116.669 4.31467 117.256 4.576C117.842 4.832 118.266 5.18667 118.528 5.64C118.789 6.09333 118.92 6.608 118.92 7.184C118.92 7.77067 118.786 8.296 118.52 8.76C118.258 9.224 117.84 9.592 117.264 9.864C116.688 10.136 115.933 10.272 115 10.272H112.344L112.312 9.712H114.888C115.597 9.712 116.181 9.616 116.64 9.424C117.098 9.22667 117.437 8.944 117.656 8.576C117.88 8.20267 117.992 7.74933 117.992 7.216ZM112.952 4.184V14.424L114.432 14.712V15H110.664V14.712L112.056 14.424V4.76L110.664 4.464V4.184H112.952ZM127.665 15.432H127.457L126.825 15H121.705V14.44H127.361L126.689 14.696L127.977 11.992L128.289 12.048L127.665 15.432ZM122.217 4.76V15H119.929V14.712L121.321 14.424V4.76L119.929 4.464V4.184H123.609V4.464L122.217 4.76ZM134.431 4.024C135.215 4.024 135.929 4.16 136.575 4.432C137.225 4.69867 137.788 5.08 138.263 5.576C138.743 6.072 139.113 6.66133 139.375 7.344C139.636 8.02133 139.767 8.768 139.767 9.584C139.767 10.4 139.639 11.1493 139.383 11.832C139.127 12.5093 138.764 13.0987 138.295 13.6C137.831 14.1013 137.281 14.488 136.647 14.76C136.012 15.0267 135.313 15.16 134.551 15.16C133.772 15.16 133.057 15.024 132.407 14.752C131.756 14.48 131.191 14.0987 130.711 13.608C130.236 13.112 129.868 12.5253 129.607 11.848C129.345 11.1653 129.215 10.416 129.215 9.6C129.215 8.77867 129.343 8.02933 129.599 7.352C129.855 6.66933 130.215 6.08 130.679 5.584C131.148 5.08267 131.7 4.69867 132.335 4.432C132.975 4.16 133.673 4.024 134.431 4.024ZM134.559 14.608C135.455 14.608 136.22 14.4053 136.855 14C137.489 13.5893 137.972 13.0187 138.303 12.288C138.639 11.552 138.807 10.6987 138.807 9.728C138.807 8.64533 138.623 7.72 138.255 6.952C137.887 6.184 137.372 5.59467 136.711 5.184C136.055 4.77333 135.292 4.568 134.423 4.568C133.527 4.568 132.761 4.77333 132.127 5.184C131.492 5.59467 131.007 6.16533 130.671 6.896C130.34 7.62667 130.175 8.48 130.175 9.456C130.175 10.5333 130.359 11.4587 130.727 12.232C131.095 13 131.609 13.5893 132.271 14C132.932 14.4053 133.695 14.608 134.559 14.608ZM145.358 9.224C146.078 9.224 146.665 9.03467 147.118 8.656C147.571 8.27733 147.798 7.70933 147.798 6.952C147.798 6.488 147.694 6.09067 147.486 5.76C147.278 5.42933 146.929 5.17867 146.438 5.008C145.953 4.832 145.286 4.744 144.438 4.744H142.59L142.47 4.184H144.998C145.91 4.184 146.638 4.30133 147.182 4.536C147.731 4.77067 148.129 5.09333 148.374 5.504C148.619 5.90933 148.742 6.368 148.742 6.88C148.742 7.33333 148.643 7.744 148.446 8.112C148.254 8.47467 147.966 8.77867 147.582 9.024C147.203 9.26933 146.731 9.44 146.166 9.536V9.472C146.518 9.49333 146.806 9.56 147.03 9.672C147.259 9.784 147.457 9.96267 147.622 10.208C147.787 10.448 147.945 10.7733 148.094 11.184L148.918 13.448C149.051 13.8053 149.177 14.072 149.294 14.248C149.411 14.4187 149.553 14.5307 149.718 14.584C149.889 14.632 150.113 14.656 150.39 14.656V15C149.979 15.0267 149.646 15.032 149.39 15.016C149.139 15.0053 148.934 14.9547 148.774 14.864C148.614 14.768 148.475 14.616 148.358 14.408C148.241 14.2 148.118 13.9173 147.99 13.56L147.23 11.416C147.081 10.9947 146.937 10.6667 146.798 10.432C146.659 10.192 146.497 10.024 146.31 9.928C146.123 9.832 145.875 9.784 145.566 9.784H142.702L142.63 9.224H145.358ZM143.358 4.184V14.424L144.838 14.712V15H141.07V14.712L142.462 14.424V4.76L141.07 4.464V4.184H143.358ZM157.272 7.232L157.216 9.344L157.272 11.448H156.88L156.576 9.632L152.864 9.608V9.072L156.576 9.04L156.88 7.232H157.272ZM159.376 6.992L159.04 7.032L158.048 4.52L158.504 4.744H152.6V4.184H158.168L158.832 3.808H159.008L159.376 6.992ZM158.184 14.688L159.424 12.08L159.736 12.136L159.136 15.432H158.944L158.32 15H152.6V14.44H158.616L158.184 14.688ZM150.992 15V14.712L152.384 14.424V4.76L150.992 4.464V4.184H153.28V15H150.992Z" fill="#999898"/>
<defs>
<linearGradient id="paint0_linear_2936_4354" x1="61" y1="41.5" x2="101" y2="41.5" gradientUnits="userSpaceOnUse">
<stop stop-color="#005EFF"/>
<stop offset="1" stop-color="#C200FF"/>
</linearGradient>
</defs>
</svg>
