<svg width="80" height="80" viewBox="0 0 80 80" fill="none" xmlns="http://www.w3.org/2000/svg">
<path d="M40.3526 51.0338L11.2626 22.7271C11.0281 22.494 10.7498 22.3098 10.4437 22.185C10.1376 22.0602 9.80978 21.9974 9.47923 22.0001C9.14868 22.0029 8.82196 22.0712 8.51797 22.201C8.21398 22.3309 7.93876 22.5197 7.70823 22.7566C7.47771 22.9935 7.29645 23.2738 7.17496 23.5812C7.05348 23.8887 6.99416 24.2171 7.00045 24.5476C7.00675 24.8781 7.07852 25.2041 7.21162 25.5067C7.34473 25.8093 7.53651 26.0824 7.77589 26.3104L38.6092 56.3104C39.0759 56.7645 39.7014 57.0186 40.3526 57.0186C41.0037 57.0186 41.6292 56.7645 42.0959 56.3104L72.9292 26.3104C73.1686 26.0824 73.3604 25.8093 73.4935 25.5067C73.6266 25.2041 73.6984 24.8781 73.7047 24.5476C73.711 24.2171 73.6516 23.8887 73.5301 23.5812C73.4087 23.2738 73.2274 22.9935 72.9969 22.7566C72.7664 22.5197 72.4911 22.3309 72.1871 22.201C71.8832 22.0712 71.5564 22.0029 71.2259 22.0001C70.8953 21.9974 70.5675 22.0602 70.2614 22.185C69.9553 22.3098 69.677 22.494 69.4426 22.7271L40.3526 51.0338Z" fill="url(#paint0_linear_2849_282)" fill-opacity="0.75"/>
<defs>
<linearGradient id="paint0_linear_2849_282" x1="40.3526" y1="57.0186" x2="40.3526" y2="22" gradientUnits="userSpaceOnUse">
<stop stop-color="#CFF0FF"/>
<stop offset="0.966346" stop-color="#06B6FD"/>
</linearGradient>
</defs>
</svg>
